<?xml version="1.0" encoding="UTF-8" standalone="no"?>
<!DOCTYPE svg PUBLIC "-//W3C//DTD SVG 1.1//EN" "http://www.w3.org/Graphics/SVG/1.1/DTD/svg11.dtd">
<svg width="100%" height="100%" viewBox="0 0 256 256" version="1.1" xmlns="http://www.w3.org/2000/svg" xmlns:xlink="http://www.w3.org/1999/xlink" xml:space="preserve" xmlns:serif="http://www.serif.com/" style="fill-rule:evenodd;clip-rule:evenodd;stroke-linecap:round;stroke-linejoin:round;stroke-miterlimit:1.5;">
    <rect id="neobread_cutlery_eyes" x="0" y="0" width="256" height="256" style="fill:none;"/>
    <path id="Crust" d="M192.734,26.885C222.946,26.885 247.473,51.413 247.473,81.624C247.473,94.467 243.041,106.282 235.623,115.623L235.623,200.464C235.623,216.277 222.785,229.115 206.972,229.115L48.771,229.115C32.958,229.115 20.12,216.277 20.12,200.464L20.12,115.297C12.857,106.008 8.527,94.318 8.527,81.624C8.527,51.413 33.054,26.885 63.266,26.885L192.734,26.885Z" style="fill:rgb(209,160,132);stroke:black;stroke-width:15px;"/>
    <rect id="Shadow" x="122.332" y="112.959" width="105.66" height="15.248" style="fill:rgb(186,133,109);"/>
    <path id="Slice" d="M42.009,112.691C33.24,105.704 27.616,94.934 27.616,82.861C27.616,61.82 44.698,44.738 65.738,44.738L135.611,44.738C156.652,44.738 173.734,61.82 173.734,82.861C173.734,94.528 168.481,104.979 160.213,111.974L160.213,196.732C160.213,204.964 153.53,211.647 145.299,211.647L56.924,211.647C48.692,211.647 42.009,204.964 42.009,196.732L42.009,112.691Z" style="fill:rgb(252,233,186);"/>
    <g id="Face">
        <g id="Eyes">
            <g id="Right-eye" serif:id="Right eye">
                <ellipse cx="135.41" cy="116.691" rx="27.618" ry="45.357" style="fill:white;"/>
                <circle cx="125.988" cy="116.691" r="14.595"/>
            </g>
            <g id="Left-eye" serif:id="Left eye">
                <ellipse cx="75.963" cy="116.729" rx="27.641" ry="45.395" style="fill:white;"/>
                <circle cx="66.617" cy="116.729" r="14.608"/>
            </g>
        </g>
    </g>
    <path id="Fork" d="M156.582,144.807L152.188,143.491C146.15,141.682 143.105,134.015 145.392,126.381L161.212,73.567C162.987,67.643 167.454,63.467 172.187,62.739L157.184,112.825L168.5,116.214C168.5,116.214 182.708,65.037 187.09,66.383C191.868,67.849 175.372,118.273 175.372,118.273L186.817,121.701L201.811,71.647C205.324,74.869 206.736,80.782 204.971,86.675L189.15,139.488C186.863,147.123 180.105,151.853 174.067,150.044L169.673,148.728L141.959,241.245C141.275,243.529 139.253,244.944 137.447,244.403L130.902,242.442C129.096,241.901 128.185,239.608 128.869,237.324L156.582,144.807Z" style="fill:rgb(185,185,185);"/>
    <path d="M144.955,150.517C137.233,145.583 132.947,134.818 136.291,123.655L152.112,70.841C155.053,61.021 162.897,54.557 170.743,53.35C173.964,52.854 177.214,54.044 179.353,56.502C179.982,57.225 180.49,58.028 180.869,58.881C181.328,58.517 181.747,58.242 182.106,58.054C184.88,56.599 187.509,56.574 189.878,57.301C192.156,58 194.214,59.407 195.709,61.898C195.987,62.361 196.268,62.985 196.518,63.758C197.356,63.196 198.288,62.763 199.289,62.488C202.443,61.619 205.822,62.434 208.233,64.646C214.051,69.983 216.995,79.64 214.071,89.401L198.251,142.214C194.907,153.378 185.409,160.014 176.246,159.89L151.06,243.971C148.71,251.815 140.925,255.362 134.721,253.503L128.176,251.543C121.972,249.684 117.419,242.442 119.769,234.598L144.955,150.517ZM156.582,144.807L128.869,237.324C128.185,239.608 129.096,241.901 130.902,242.442L137.447,244.403C139.253,244.944 141.275,243.529 141.959,241.245L169.673,148.728L174.067,150.044C180.105,151.853 186.863,147.123 189.15,139.488L204.971,86.675C206.736,80.782 205.324,74.869 201.811,71.647L186.817,121.701L175.372,118.273C175.372,118.273 191.868,67.849 187.09,66.383C182.708,65.037 168.5,116.214 168.5,116.214L157.184,112.825L172.187,62.739C167.454,63.467 162.987,67.643 161.212,73.567L145.392,126.381C143.105,134.015 146.15,141.682 152.188,143.491L156.582,144.807Z"/>
    <path id="Knife" d="M45.472,158.183L63.687,238.755C64.208,241.137 63.098,243.407 61.209,243.821L54.361,245.321C52.472,245.735 50.514,244.138 49.992,241.756L11.716,67.07C11.024,63.91 12.497,60.9 15.003,60.35C25.029,58.153 35.417,66.63 38.186,79.268L53.231,150.483C53.923,153.643 52.45,156.654 49.943,157.203L45.472,158.183Z" style="fill:rgb(185,185,185);"/>
    <path d="M57.182,164.63L73.44,236.551C73.445,236.572 73.45,236.594 73.455,236.615C75.283,244.959 69.968,252.139 63.349,253.589L56.502,255.09C49.882,256.54 42.052,252.24 40.224,243.896L1.948,69.21C-0.05,60.091 5.629,52.167 12.863,50.582C27.606,47.352 43.883,58.544 47.955,77.128C47.96,77.152 47.965,77.176 47.97,77.201C47.97,77.201 63.009,148.389 63.007,148.381C64.48,155.175 61.694,161.302 57.182,164.63ZM45.472,158.183L49.943,157.203C52.45,156.654 53.923,153.643 53.231,150.483L38.186,79.268C35.417,66.63 25.029,58.153 15.003,60.35C12.497,60.9 11.024,63.91 11.716,67.07L49.992,241.756C50.514,244.138 52.472,245.735 54.361,245.321L61.209,243.821C63.098,243.407 64.208,241.137 63.687,238.755L45.472,158.183Z"/>
    <path id="Right-hand" serif:id="Right hand" d="M183.018,186.65L158.968,172.764C148.938,166.973 136.093,170.415 130.303,180.445C124.613,190.3 127.994,202.921 137.85,208.612L162.217,222.68" style="fill:rgb(209,160,132);stroke:black;stroke-width:10px;stroke-linecap:butt;"/>
    <path id="Right-hand1" serif:id="Right hand" d="M18.166,190.361L42.217,176.475C52.247,170.684 65.091,174.126 70.882,184.156C76.572,194.011 73.19,206.632 63.335,212.322L38.968,226.39" style="fill:rgb(209,160,132);stroke:black;stroke-width:10px;stroke-linecap:butt;"/>
</svg>
