<?xml version="1.0" encoding="UTF-8" standalone="no"?>
<!DOCTYPE svg PUBLIC "-//W3C//DTD SVG 1.1//EN" "http://www.w3.org/Graphics/SVG/1.1/DTD/svg11.dtd">
<svg width="100%" height="100%" viewBox="0 0 256 256" version="1.1" xmlns="http://www.w3.org/2000/svg" xmlns:xlink="http://www.w3.org/1999/xlink" xml:space="preserve" xmlns:serif="http://www.serif.com/" style="fill-rule:evenodd;clip-rule:evenodd;stroke-linecap:round;stroke-linejoin:round;stroke-miterlimit:1.5;">
    <rect id="neobread_hug_fox" x="0" y="0" width="256" height="256" style="fill:none;"/>
    <g id="Right-bread" serif:id="Right bread">
        <path id="Crust" d="M213.578,107.289C231.759,107.289 246.519,122.049 246.519,140.229C246.519,147.958 243.851,155.068 239.388,160.69L239.388,211.745C239.388,221.261 231.662,228.987 222.146,228.987L126.944,228.987C117.428,228.987 109.702,221.261 109.702,211.745L109.702,160.494C105.332,154.904 102.726,147.868 102.726,140.229C102.726,122.049 117.486,107.289 135.666,107.289L213.578,107.289Z" style="fill:rgb(209,160,132);stroke:black;stroke-width:15px;"/>
        <rect id="Shadow" x="171.212" y="159.086" width="60.449" height="9.176" style="fill:rgb(186,133,109);"/>
        <path id="Slice" d="M124.789,159.431C119.798,155.454 116.597,149.324 116.597,142.453C116.597,130.478 126.319,120.756 138.294,120.756L178.062,120.756C190.038,120.756 199.76,130.478 199.76,142.453C199.76,149.094 196.77,155.041 192.065,159.023L192.065,207.263C192.065,211.948 188.261,215.751 183.576,215.751L133.278,215.751C128.593,215.751 124.789,211.948 124.789,207.263L124.789,159.431Z" style="fill:rgb(252,233,186);"/>
        <g id="Face">
            <path id="Mouth" d="M137.069,184.819L143.553,195.722L152.291,184.838L163.116,195.691L176.01,184.851" style="fill:none;stroke:black;stroke-width:6.02px;"/>
            <g id="Eyes">
                <path id="Right-eye" serif:id="Right eye" d="M182.791,158.299L182.791,162.628C182.791,167.175 179.099,170.867 174.551,170.867C170.003,170.867 166.311,167.175 166.311,162.628L166.311,158.299C166.311,153.751 170.003,150.059 174.551,150.059C179.099,150.059 182.791,153.751 182.791,158.299Z"/>
                <path id="Left-eye" serif:id="Left eye" d="M150.045,158.263L150.045,162.592C150.045,167.14 146.353,170.832 141.806,170.832C137.258,170.832 133.566,167.14 133.566,162.592L133.566,158.263C133.566,153.716 137.258,150.024 141.806,150.024C146.353,150.024 150.045,153.716 150.045,158.263Z"/>
            </g>
        </g>
    </g>
    <g id="Fox">
        <path id="Outline" d="M57.965,101.226L59.108,99.969C62.997,94.834 69.731,92.756 75.838,94.806C77.507,95.366 79.027,96.2 80.355,97.248C88.826,93.618 96.422,92.444 98.766,92.444C102.584,92.444 113.388,94.375 113.388,94.375C113.849,94.463 114.304,94.572 114.752,94.702C117.744,91.629 120.531,88.973 122.112,87.957C127.7,84.369 129.58,82.87 136.673,82.924C142.132,82.965 145.234,84.571 147.363,85.982C150.366,87.972 153.385,92.863 153.385,92.863C153.385,92.863 152.994,92.186 152.778,91.867C153.501,92.936 154.771,95.111 155.458,98.649C156.063,101.764 156.66,109.011 156.023,118.698C155.375,128.549 153.606,145.447 151.741,153.396C155.311,162.829 157.418,173.852 157.021,184.966C156.444,201.099 151.239,209.359 141.32,222.738C130.091,237.883 104.998,240.542 104.998,240.542C104.871,240.551 104.744,240.559 104.617,240.565C104.617,240.565 64.327,242.42 51.364,240.981C40.03,239.722 31.383,239.177 19.527,228.458C7.915,217.96 6.164,206.105 5.719,184.15C5.455,171.151 7.934,159.859 9.596,153.832C8.69,151.153 7.816,148.352 7.2,145.904C5.216,138.024 4.217,125.945 4.149,117.964C4.111,113.6 4.428,109.991 4.907,107.194C6.006,99.404 8.705,92.943 10.091,91.096C14.925,84.653 19.699,82.126 26.834,82.397C28.714,82.469 31.907,83.048 35.585,84.995C40.22,87.447 48.392,93.612 51.579,96.158C52.923,97.231 55.142,98.898 57.965,101.226ZM99.122,125.269C98.735,125.506 98.395,125.648 98.115,125.677C98.115,125.677 98.459,125.515 99.122,125.269C103.075,122.848 111.9,110.556 110.575,109.109C110.575,109.109 101.853,107.444 98.766,107.444C95.679,107.444 79.687,110.564 70.981,122.365C71.071,119.142 71.065,109.026 71.065,109.026C71.065,109.026 63.136,119.493 58.367,121.854C58.398,121.887 58.436,121.929 58.481,121.979C51.039,114.455 44.83,109.965 42.217,107.878C38.805,105.152 28.8,97.483 26.265,97.386C24.382,97.315 23.365,98.398 22.089,100.098C21.299,101.152 20.335,105.034 19.731,109.494C19.345,111.656 19.119,114.443 19.148,117.835C19.208,124.805 20.014,135.361 21.746,142.243C23.36,148.658 26.98,157.763 27.463,158.968L25.14,154.272C25.14,154.272 20.383,167.459 20.715,183.846C21.048,200.233 20.919,209.495 29.587,217.331C38.254,225.167 44.734,225.152 53.019,226.072C65.404,227.448 103.891,225.583 103.891,225.583C103.891,225.583 121.504,224.28 129.27,213.804C137.037,203.329 141.579,197.061 142.031,184.43C142.423,173.444 139.806,162.568 135.701,153.993C136.11,153.156 136.508,152.17 136.866,151.01C138.728,144.98 140.412,127.498 141.055,117.713C141.699,107.928 140.994,101.218 140.352,100.268C139.709,99.317 139.725,97.948 136.56,97.924C133.394,97.9 132.711,98.978 130.217,100.579C127.723,102.181 121.79,108.999 117.828,113.401C116.315,115.081 112.977,118.97 109.427,123.137C104.309,123.561 100.751,124.666 99.122,125.269ZM67.621,132.229L67.64,132.25L67.616,132.251C67.618,132.243 67.62,132.236 67.621,132.229ZM27.543,159.099L27.535,159.114L27.528,159.1L27.543,159.099Z"/>
        <g id="Left-ear" serif:id="Left ear">
            <path id="Outer" d="M27.517,159.102C27.517,159.102 23.478,149.124 21.746,142.243C20.014,135.361 19.208,124.805 19.148,117.835C19.088,110.865 20.813,101.798 22.089,100.098C23.365,98.398 24.382,97.315 26.265,97.386C28.8,97.483 38.805,105.152 42.217,107.878C45.85,110.78 56.439,118.328 67.623,132.222C66.65,135.974 41.821,157.644 27.517,159.102Z" style="fill:rgb(42,42,42);"/>
            <path id="Inner" d="M27.517,159.102C27.517,159.102 23.478,149.124 21.746,142.243C20.014,135.361 19.208,124.805 19.148,117.835C19.088,110.865 20.105,106.454 21.38,104.753C22.656,103.053 23.573,103.092 25.456,103.005C27.338,102.919 34.404,108.005 36.786,111.664C39.168,115.323 43.424,124.727 46.312,127.276C49.2,129.825 54.518,132.748 58.491,132.481C57.519,136.233 41.821,157.644 27.517,159.102Z" style="fill:rgb(235,220,204);"/>
        </g>
        <path id="Right-ear" serif:id="Right ear" d="M97.375,137.362C97.375,137.362 113.865,117.803 117.828,113.401C121.79,108.999 127.723,102.181 130.217,100.579C132.711,98.978 133.394,97.9 136.56,97.924C139.725,97.948 139.709,99.317 140.352,100.268C140.994,101.218 141.699,107.928 141.055,117.713C140.412,127.498 138.728,144.98 136.866,151.01C135.004,157.041 132.065,158.384 132.065,158.384L97.375,137.362Z" style="fill:rgb(42,42,42);"/>
        <path id="Body" d="M53.019,226.072C65.404,227.448 103.891,225.583 103.891,225.583C103.891,225.583 121.504,224.28 129.27,213.804C137.037,203.329 141.579,197.061 142.031,184.43C142.482,171.799 138.955,159.312 133.762,150.302C128.568,141.291 118.647,132.195 112.05,132.493C115.855,131.16 125.974,128.475 130.891,128.951C129.583,128.077 122.423,122.858 113.016,122.969C103.609,123.08 98.115,125.677 98.115,125.677C101.252,125.356 112.03,110.698 110.575,109.109C110.575,109.109 101.853,107.444 98.766,107.444C95.679,107.444 79.687,110.564 70.981,122.365C71.071,119.142 71.065,109.026 71.065,109.026C71.065,109.026 63.136,119.493 58.367,121.854C59.303,122.876 67.64,132.25 67.64,132.25L47.669,132.629L47.64,145.765L34.233,145.814L27.535,159.114L25.14,154.272C25.14,154.272 20.383,167.459 20.715,183.846C21.048,200.233 20.919,209.495 29.587,217.331C38.254,225.167 44.734,225.152 53.019,226.072Z" style="fill:rgb(247,150,91);"/>
        <g id="Face1" serif:id="Face">
            <path id="Mouth1" serif:id="Mouth" d="M67.461,192.618L80.865,206.341L94.523,192.679L104.511,206.342L111.548,192.737" style="fill:none;stroke:black;stroke-width:8px;stroke-miterlimit:5;"/>
            <path id="Nose" d="M101.36,177.64C101.36,180.442 99.085,182.717 96.283,182.717L92.565,182.717C89.763,182.717 87.488,180.442 87.488,177.64C87.488,174.838 89.763,172.563 92.565,172.563L96.283,172.563C99.085,172.563 101.36,174.838 101.36,177.64Z" style="fill:rgb(50,18,11);"/>
            <g id="Eyes1" serif:id="Eyes">
                <path id="Right-eye1" serif:id="Right eye" d="M100.885,155.182C102.786,160.745 107.396,162.503 110.892,162.534C114.823,162.569 119.053,161.369 121.734,154.7" style="fill:none;stroke:black;stroke-width:10px;"/>
                <path id="Left-eye1" serif:id="Left eye" d="M59.131,155.182C61.032,160.745 65.642,162.503 69.138,162.534C73.069,162.569 77.299,161.369 79.98,154.7" style="fill:none;stroke:black;stroke-width:10px;"/>
            </g>
        </g>
    </g>
    <path id="Arm" d="M192.517,212.327L138.382,212.327C130.153,212.327 123.473,205.646 123.473,197.418C123.473,189.332 130.037,182.768 138.122,182.768L192.517,182.768" style="fill:rgb(209,160,132);stroke:black;stroke-width:10px;stroke-linecap:butt;"/>
</svg>
