<?xml version="1.0" encoding="UTF-8" standalone="no"?>
<!DOCTYPE svg PUBLIC "-//W3C//DTD SVG 1.1//EN" "http://www.w3.org/Graphics/SVG/1.1/DTD/svg11.dtd">
<svg width="100%" height="100%" viewBox="0 0 256 256" version="1.1" xmlns="http://www.w3.org/2000/svg" xmlns:xlink="http://www.w3.org/1999/xlink" xml:space="preserve" xmlns:serif="http://www.serif.com/" style="fill-rule:evenodd;clip-rule:evenodd;stroke-linecap:round;stroke-linejoin:round;stroke-miterlimit:1.5;">
    <rect id="neobread_nd" x="0" y="0" width="256" height="256" style="fill:none;"/>
    <path id="Crust" d="M192.734,26.885C222.946,26.885 247.473,51.413 247.473,81.624C247.473,94.467 243.041,106.282 235.623,115.623L235.623,200.464C235.623,216.277 222.785,229.115 206.972,229.115L48.771,229.115C32.958,229.115 20.12,216.277 20.12,200.464L20.12,115.297C12.857,106.008 8.527,94.318 8.527,81.624C8.527,51.413 33.054,26.885 63.266,26.885L192.734,26.885Z" style="fill:rgb(209,160,132);stroke:black;stroke-width:15px;"/>
    <rect id="Shadow" x="122.332" y="112.959" width="105.66" height="15.248" style="fill:rgb(186,133,109);"/>
    <path id="Slice" d="M42.009,112.691C33.24,105.704 27.616,94.934 27.616,82.861C27.616,61.82 44.698,44.738 65.738,44.738L135.611,44.738C156.652,44.738 173.734,61.82 173.734,82.861C173.734,94.528 168.481,104.979 160.213,111.974L160.213,196.732C160.213,204.964 153.53,211.647 145.299,211.647L56.924,211.647C48.692,211.647 42.009,204.964 42.009,196.732L42.009,112.691Z" style="fill:rgb(252,233,186);"/>
    <g id="Eyes">
        <g id="Right-eye" serif:id="Right eye">
            <circle id="Eye-white" serif:id="Eye white" cx="130.968" cy="115.715" r="23.779" style="fill:white;"/>
            <circle id="Pupil" cx="127.906" cy="112.691" r="20.392"/>
            <path id="Eye-reflection-top" serif:id="Eye reflection top" d="M116.892,101.838C120.92,97.81 126.719,97.069 129.835,100.185C132.95,103.3 132.21,109.1 128.182,113.127C124.154,117.155 118.355,117.896 115.239,114.78C112.124,111.665 112.864,105.865 116.892,101.838Z" style="fill:white;"/>
            <path id="Eye-reflection-bottom" serif:id="Eye reflection bottom" d="M137.831,117.603C137.831,117.603 136.632,121.739 132.389,122.644" style="fill:none;stroke:rgb(151,151,151);stroke-width:8px;"/>
        </g>
        <g id="Left-eye" serif:id="Left eye">
            <circle id="Eye-white1" serif:id="Eye white" cx="70.382" cy="115.715" r="23.779" style="fill:white;"/>
            <circle id="Pupil1" serif:id="Pupil" cx="67.32" cy="112.691" r="20.392"/>
            <path id="Eye-reflection-top1" serif:id="Eye reflection top" d="M56.306,101.838C60.333,97.81 66.133,97.069 69.248,100.185C72.364,103.3 71.623,109.1 67.595,113.127C63.568,117.155 57.768,117.896 54.653,114.78C51.537,111.665 52.278,105.865 56.306,101.838Z" style="fill:white;"/>
            <path id="Eye-reflection-bottom1" serif:id="Eye reflection bottom" d="M77.244,117.603C77.244,117.603 76.045,121.739 71.803,122.644" style="fill:none;stroke:rgb(151,151,151);stroke-width:8px;"/>
        </g>
    </g>
    <path id="Infinity" d="M96.094,155.227C96.094,155.227 111.926,132.755 136.834,132.846C161.386,132.936 173.459,150.991 173.969,167.628C174.482,184.386 160.701,204.236 136.732,203.693C112.756,203.15 104.038,190.006 96.132,181.065C93.093,183.763 80.225,204.149 54.089,203.332C28.836,202.543 18.618,185.407 18.244,167.641C17.86,149.407 33.143,133.514 54.507,132.981C76.556,132.432 89.922,149.036 96.094,155.227ZM85.394,168.274C85.394,168.274 71.657,148.432 53.258,149.173C42.608,149.602 35.068,158.945 34.699,168.275C34.322,177.8 45.549,187.296 53.377,187.216C75.459,186.991 83.027,170.391 85.394,168.274ZM106.441,168.542C108.807,170.659 120.031,187.423 137.984,187.216C145.811,187.126 157.038,177.8 156.661,168.275C156.292,158.945 148.76,149.029 138.103,149.173C118.783,149.435 106.441,168.542 106.441,168.542Z" style="fill:url(#_Linear1);"/>
    <path d="M95.78,140.783C104.038,132.989 118.393,122.778 136.871,122.846C168.128,122.96 183.316,146.141 183.964,167.322C184.621,188.771 167.184,214.386 136.505,213.691C115.277,213.21 104.093,204.595 95.897,195.892C88.199,203.518 74.485,213.974 53.777,213.327C41.07,212.93 31.459,209.036 24.387,203.324C13.627,194.634 8.532,181.452 8.246,167.852C7.754,144.491 26.888,123.667 54.257,122.984C73.307,122.509 87.022,132.588 95.78,140.783ZM96.094,155.227C89.922,149.036 76.556,132.432 54.507,132.981C33.143,133.514 17.86,149.407 18.244,167.641C18.618,185.407 28.836,202.543 54.089,203.332C80.225,204.149 93.093,183.763 96.132,181.065C104.038,190.006 112.756,203.15 136.732,203.693C160.701,204.236 174.482,184.386 173.969,167.628C173.459,150.991 161.386,132.936 136.834,132.846C111.926,132.755 96.094,155.227 96.094,155.227ZM85.394,168.274C83.027,170.391 75.459,186.991 53.377,187.216C45.549,187.296 34.322,177.8 34.699,168.275C35.068,158.945 42.608,149.602 53.258,149.173C71.657,148.432 85.394,168.274 85.394,168.274ZM72.49,168.573C70.917,167.014 68.992,165.315 66.781,163.767C63.16,161.231 58.702,158.962 53.661,159.165C48.435,159.376 44.873,164.092 44.691,168.67C44.61,170.735 46.232,172.56 47.852,174.101C49.555,175.72 51.493,177.235 53.275,177.217C63.116,177.116 68.99,172.507 72.49,168.573ZM106.441,168.542C106.441,168.542 118.783,149.435 138.103,149.173C148.76,149.029 156.292,158.945 156.661,168.275C157.038,177.8 145.811,187.126 137.984,187.216C120.031,187.423 108.807,170.659 106.441,168.542ZM119.574,168.144C119.821,168.389 120.074,168.637 120.333,168.887C124.265,172.675 130.12,177.306 137.868,177.217C139.718,177.196 141.763,175.686 143.53,174.016C145.135,172.499 146.75,170.715 146.669,168.67C146.493,164.221 143.32,159.104 138.238,159.172C130.046,159.283 123.606,164.051 119.574,168.144Z"/>
    <path id="Right-hand" serif:id="Right hand" d="M151.779,225.367L132.142,205.73C123.953,197.541 123.953,184.243 132.142,176.054C140.189,168.007 153.255,168.007 161.302,176.054L181.198,195.949" style="fill:rgb(209,160,132);stroke:black;stroke-width:10px;stroke-linecap:butt;"/>
    <path id="Left-hand" serif:id="Left hand" d="M47.21,226.367L66.847,206.73C75.037,198.541 75.037,185.243 66.847,177.054C58.8,169.007 45.734,169.007 37.687,177.054L17.792,196.949" style="fill:rgb(209,160,132);stroke:black;stroke-width:10px;stroke-linecap:butt;"/>
    <defs>
        <linearGradient id="_Linear1" x1="0" y1="0" x2="1" y2="0" gradientUnits="userSpaceOnUse" gradientTransform="matrix(155.746,0,0,155.746,18.2367,168.275)"><stop offset="0" style="stop-color:rgb(255,68,109);stop-opacity:1"/><stop offset="0.2" style="stop-color:rgb(255,155,50);stop-opacity:1"/><stop offset="0.4" style="stop-color:rgb(255,213,63);stop-opacity:1"/><stop offset="0.6" style="stop-color:rgb(161,222,28);stop-opacity:1"/><stop offset="0.8" style="stop-color:rgb(35,193,234);stop-opacity:1"/><stop offset="1" style="stop-color:rgb(157,139,236);stop-opacity:1"/></linearGradient>
    </defs>
</svg>
