<?xml version="1.0" encoding="UTF-8" standalone="no"?>
<!DOCTYPE svg PUBLIC "-//W3C//DTD SVG 1.1//EN" "http://www.w3.org/Graphics/SVG/1.1/DTD/svg11.dtd">
<svg width="100%" height="100%" viewBox="0 0 256 256" version="1.1" xmlns="http://www.w3.org/2000/svg" xmlns:xlink="http://www.w3.org/1999/xlink" xml:space="preserve" xmlns:serif="http://www.serif.com/" style="fill-rule:evenodd;clip-rule:evenodd;stroke-linecap:round;stroke-linejoin:round;stroke-miterlimit:1.5;">
    <rect id="neobread_flag_agender" x="0" y="0" width="256" height="256" style="fill:none;"/>
    <path id="Crust" d="M192.734,26.885C222.946,26.885 247.473,51.413 247.473,81.624C247.473,94.467 243.041,106.282 235.623,115.623L235.623,200.464C235.623,216.277 222.785,229.115 206.972,229.115L48.771,229.115C32.958,229.115 20.12,216.277 20.12,200.464L20.12,115.297C12.857,106.008 8.527,94.318 8.527,81.624C8.527,51.413 33.054,26.885 63.266,26.885L192.734,26.885Z" style="fill:rgb(209,160,132);stroke:black;stroke-width:15px;"/>
    <g id="Stripes">
        <path d="M206.972,221.615L48.771,221.615C37.098,221.615 27.62,212.138 27.62,200.464L27.62,194.869L228.123,194.869L228.123,200.464C228.123,212.138 218.646,221.615 206.972,221.615Z" style="fill:rgb(42,42,42);"/>
        <rect x="27.62" y="168.123" width="200.503" height="26.746" style="fill:rgb(227,227,227);"/>
        <rect x="27.62" y="141.377" width="200.503" height="26.746" style="fill:white;"/>
        <path d="M27.591,114.63L228.189,114.63C228.145,114.958 228.123,115.29 228.123,115.623L228.123,141.377L27.62,141.377L27.62,115.297C27.62,115.074 27.61,114.852 27.591,114.63Z" style="fill:rgb(160,228,137);"/>
        <path d="M16.439,87.884L239.561,87.884C239.153,90.96 238.448,93.943 237.477,96.803C235.948,101.305 233.758,105.503 231.023,109.281C230.611,109.85 230.186,110.41 229.75,110.959C228.904,112.024 228.368,113.294 228.189,114.63L27.591,114.63C27.462,113.195 26.922,111.821 26.029,110.678C25.67,110.219 25.319,109.753 24.978,109.281C22.242,105.503 20.052,101.305 18.523,96.803C17.552,93.943 16.847,90.96 16.439,87.884Z" style="fill:white;"/>
        <path d="M16.027,81.624C16.027,78.269 16.378,74.995 17.044,71.837C17.495,69.7 18.09,67.617 18.819,65.598C19.37,64.073 19.996,62.585 20.695,61.138L235.305,61.138C236.004,62.585 236.63,64.073 237.181,65.598C237.91,67.617 238.505,69.7 238.956,71.837C239.622,74.995 239.973,78.269 239.973,81.624C239.973,83.746 239.833,85.836 239.561,87.884L16.439,87.884C16.167,85.836 16.027,83.746 16.027,81.624Z" style="fill:rgb(227,227,227);"/>
        <path d="M62.443,34.392L193.557,34.392C211.942,34.707 227.782,45.546 235.305,61.138L20.695,61.138C28.218,45.546 44.058,34.707 62.443,34.392Z" style="fill:rgb(42,42,42);"/>
    </g>
    <path id="Slice" d="M42.009,112.691C33.24,105.704 27.616,94.934 27.616,82.861C27.616,61.82 44.698,44.738 65.738,44.738L135.611,44.738C156.652,44.738 173.734,61.82 173.734,82.861C173.734,94.528 168.481,104.979 160.213,111.974L160.213,196.732C160.213,204.964 153.53,211.647 145.299,211.647L56.924,211.647C48.692,211.647 42.009,204.964 42.009,196.732L42.009,112.691Z" style="fill:rgb(252,233,186);"/>
    <g id="Face">
        <path id="Mouth" d="M65.596,155.72L76.372,173.837L90.892,155.752L108.879,173.787L130.306,155.773" style="fill:none;stroke:black;stroke-width:10px;"/>
        <g id="Eyes">
            <path id="Right-eye" serif:id="Right eye" d="M143.057,111.742L143.057,119.688C143.057,128.036 136.28,134.813 127.933,134.813C119.586,134.813 112.809,128.036 112.809,119.688L112.809,111.742C112.809,103.395 119.586,96.618 127.933,96.618C136.28,96.618 143.057,103.395 143.057,111.742Z"/>
            <path id="Left-eye" serif:id="Left eye" d="M82.953,111.678L82.953,119.624C82.953,127.971 76.176,134.748 67.828,134.748C59.481,134.748 52.704,127.971 52.704,119.624L52.704,111.678C52.704,103.331 59.481,96.554 67.828,96.554C76.176,96.554 82.953,103.331 82.953,111.678Z"/>
        </g>
    </g>
</svg>
