<?xml version="1.0" encoding="UTF-8" standalone="no"?>
<!DOCTYPE svg PUBLIC "-//W3C//DTD SVG 1.1//EN" "http://www.w3.org/Graphics/SVG/1.1/DTD/svg11.dtd">
<svg width="100%" height="100%" viewBox="0 0 256 256" version="1.1" xmlns="http://www.w3.org/2000/svg" xmlns:xlink="http://www.w3.org/1999/xlink" xml:space="preserve" xmlns:serif="http://www.serif.com/" style="fill-rule:evenodd;clip-rule:evenodd;stroke-linecap:round;stroke-linejoin:round;stroke-miterlimit:1.5;">
    <rect id="neobread_knife" x="0" y="0" width="256" height="256" style="fill:none;"/>
    <path id="Crust" d="M192.734,26.885C222.946,26.885 247.473,51.413 247.473,81.624C247.473,94.467 243.041,106.282 235.623,115.623L235.623,200.464C235.623,216.277 222.785,229.115 206.972,229.115L48.771,229.115C32.958,229.115 20.12,216.277 20.12,200.464L20.12,115.297C12.857,106.008 8.527,94.318 8.527,81.624C8.527,51.413 33.054,26.885 63.266,26.885L192.734,26.885Z" style="fill:rgb(209,160,132);stroke:black;stroke-width:15px;"/>
    <rect id="Shadow" x="122.332" y="112.959" width="105.66" height="15.248" style="fill:rgb(186,133,109);"/>
    <path id="Slice" d="M42.009,112.691C33.24,105.704 27.616,94.934 27.616,82.861C27.616,61.82 44.698,44.738 65.738,44.738L135.611,44.738C156.652,44.738 173.734,61.82 173.734,82.861C173.734,94.528 168.481,104.979 160.213,111.974L160.213,196.732C160.213,204.964 153.53,211.647 145.299,211.647L56.924,211.647C48.692,211.647 42.009,204.964 42.009,196.732L42.009,112.691Z" style="fill:rgb(252,233,186);"/>
    <g id="Face">
        <path id="Mouth" d="M65.596,155.72L76.372,173.837L90.892,155.752L108.879,173.787L130.306,155.773" style="fill:none;stroke:black;stroke-width:10px;"/>
        <g id="Eyes">
            <path id="Right-eye" serif:id="Right eye" d="M104.684,113.268L104.684,116.704C104.684,126.523 112.655,134.494 122.473,134.494C132.291,134.494 140.262,126.523 140.262,116.704L140.262,109.081C140.262,106.179 139.566,103.437 138.33,101.016L104.684,113.268Z"/>
            <path id="Left-eye" serif:id="Left eye" d="M53.375,100.771C52.28,103.126 51.669,105.75 51.669,108.516L51.669,116.404C51.669,126.564 59.917,134.813 70.077,134.813C80.237,134.813 88.485,126.564 88.485,116.404L88.485,113.614L53.375,100.771Z"/>
        </g>
    </g>
    <g id="Knife">
        <path id="Knife-outline" serif:id="Knife outline" d="M27.501,86.254C28.788,87.428 33.254,91.596 39.183,98.158C46.46,106.211 49.353,116.941 50.018,119.775L62.204,158.598C62.307,158.927 62.392,159.259 62.46,159.592L74.578,200.27C77.895,211.406 71.547,223.141 60.411,226.458C49.296,229.769 37.583,223.433 34.272,212.317L22.672,173.378C21.193,173.366 19.72,173.025 18.364,172.362C15.915,171.164 14.06,169.019 13.231,166.421C13.231,166.421 1.255,128.236 0.827,121.834C0.376,115.09 2.773,99.465 2.773,99.465C2.814,99.211 2.865,98.958 2.925,98.707L5.686,87.223C6.474,83.948 8.858,81.289 12.028,80.15C15.198,79.011 18.728,79.544 21.42,81.569L26.49,85.382C26.849,85.653 27.187,85.944 27.501,86.254ZM14.235,94.446C12.414,92.101 10.856,90.47 10.663,91.464C10.239,93.642 10.495,95.442 11.15,96.923L13.874,95.944L12.648,101.045C12.648,101.045 10.399,115.098 10.805,121.167C11.211,127.236 22.757,163.378 22.757,163.378L23.917,162.952C23.78,163.896 23.872,164.912 24.125,165.954L31.324,169.566C31.284,168.693 31.233,167.804 31.17,166.928L31.462,167.913L31.477,167.908L33.603,175.045L31.47,177.902L31.477,177.908L33.605,175.054L43.855,209.463C45.591,215.289 51.73,218.61 57.556,216.874C63.403,215.132 66.736,208.971 64.994,203.125L52.626,161.604L52.663,161.593L52.342,160.572C52.005,155.88 51.293,151.566 49.805,152.01C49.759,152.024 49.713,152.038 49.668,152.052L40.359,122.395C40.359,122.395 38.398,112.204 31.763,104.862C30.268,103.207 28.873,101.715 27.608,100.395C28.555,99.432 29.315,98.269 29.817,96.954C30.027,96.406 30.185,95.847 30.295,95.285C30.212,95.707 30.102,96.127 29.963,96.543C29.469,98.023 28.651,99.328 27.604,100.391C23.482,96.09 20.748,93.626 20.477,93.384L20.479,93.374L15.409,89.561L14.235,94.446ZM17.419,118.841C17.362,118.408 17.321,117.947 17.294,117.464C17.329,117.935 17.371,118.394 17.419,118.841ZM31.462,177.893C31.466,177.618 31.506,174.52 31.376,170.865L27.183,172.406C29.139,175.386 31.268,177.685 31.462,177.893Z"/>
        <path id="Handle" d="M52.619,161.583L64.994,203.125C66.736,208.971 63.403,215.132 57.556,216.874C51.73,218.61 45.591,215.289 43.855,209.463L31.469,167.883L52.619,161.583Z" style="fill:rgb(42,42,42);"/>
        <path id="Blade" d="M31.462,167.913L52.663,161.593L40.359,122.395C40.359,122.395 38.398,112.204 31.763,104.862C25.129,97.52 20.454,93.364 20.454,93.364C20.454,93.364 19.671,96.026 17.635,108.938C15.939,119.694 19.648,128.121 19.648,128.121" style="fill:rgb(185,185,185);"/>
        <path id="Edge" d="M20.479,93.374L15.409,89.561L12.648,101.045C12.648,101.045 10.399,115.098 10.805,121.167C11.211,127.236 22.757,163.378 22.757,163.378L29.473,160.911C29.473,160.911 21.323,132.733 17.728,120.384C16.227,115.226 18.752,102.244 18.752,102.244L20.479,93.374Z" style="fill:rgb(223,223,230);"/>
    </g>
    <path id="Hand" d="M47.901,231.373L67.538,211.736C75.728,203.547 75.728,190.249 67.538,182.06C59.491,174.013 46.425,174.013 38.378,182.06L18.483,201.955" style="fill:rgb(209,160,132);stroke:black;stroke-width:10px;stroke-linecap:butt;"/>
</svg>
