<?xml version="1.0" encoding="UTF-8" standalone="no"?>
<!DOCTYPE svg PUBLIC "-//W3C//DTD SVG 1.1//EN" "http://www.w3.org/Graphics/SVG/1.1/DTD/svg11.dtd">
<svg width="100%" height="100%" viewBox="0 0 256 256" version="1.1" xmlns="http://www.w3.org/2000/svg" xmlns:xlink="http://www.w3.org/1999/xlink" xml:space="preserve" xmlns:serif="http://www.serif.com/" style="fill-rule:evenodd;clip-rule:evenodd;stroke-linecap:round;stroke-linejoin:round;stroke-miterlimit:1.5;">
    <rect id="neobread_sob_loud" x="0" y="0" width="256" height="256" style="fill:none;"/>
    <path id="Crust" d="M192.734,26.885C222.946,26.885 247.473,51.413 247.473,81.624C247.473,94.467 243.041,106.282 235.623,115.623L235.623,200.464C235.623,216.277 222.785,229.115 206.972,229.115L48.771,229.115C32.958,229.115 20.12,216.277 20.12,200.464L20.12,115.297C12.857,106.008 8.527,94.318 8.527,81.624C8.527,51.413 33.054,26.885 63.266,26.885L192.734,26.885Z" style="fill:rgb(209,160,132);stroke:black;stroke-width:15px;"/>
    <rect id="Shadow" x="122.332" y="112.959" width="105.66" height="15.248" style="fill:rgb(186,133,109);"/>
    <path id="Slice" d="M42.009,112.691C33.24,105.704 27.616,94.934 27.616,82.861C27.616,61.82 44.698,44.738 65.738,44.738L135.611,44.738C156.652,44.738 173.734,61.82 173.734,82.861C173.734,94.528 168.481,104.979 160.213,111.974L160.213,196.732C160.213,204.964 153.53,211.647 145.299,211.647L56.924,211.647C48.692,211.647 42.009,204.964 42.009,196.732L42.009,112.691Z" style="fill:rgb(252,233,186);"/>
    <g id="Face">
        <g id="Mouth">
            <path id="Mouth-backgorund" serif:id="Mouth backgorund" d="M125.446,171.98C125.446,160.913 116.461,151.928 105.394,151.928L89.442,151.928C78.235,151.928 69.136,161.027 69.136,172.234C69.136,178.646 74.342,183.852 80.753,183.852L113.575,183.852C120.127,183.852 125.446,178.532 125.446,171.98Z" style="fill:rgb(160,25,25);"/>
            <path id="Tongue" d="M94.708,183.852C94.075,182.669 93.732,181.405 93.732,180.093C93.732,173.429 102.569,168.018 113.454,168.018C117.939,168.018 122.076,168.937 125.391,170.483C125.427,170.977 125.446,171.477 125.446,171.98C125.446,178.532 120.127,183.852 113.575,183.852L94.708,183.852Z" style="fill:rgb(216,72,72);"/>
        </g>
        <g id="Tears">
            <path id="Right-tears" serif:id="Right tears" d="M146.575,131.526L108.869,121.131L108.869,209.126C108.869,218.356 117.317,225.85 127.722,225.85C138.128,225.85 146.575,218.356 146.575,209.126L146.575,131.526Z" style="fill:rgb(91,206,250);fill-opacity:0.9;"/>
            <path id="Left-tears" serif:id="Left tears" d="M85.047,121.033L47.226,131.428L47.226,209.027C47.226,218.258 55.699,225.752 66.136,225.752C76.573,225.752 85.047,218.258 85.047,209.027L85.047,121.033Z" style="fill:rgb(91,206,250);fill-opacity:0.9;"/>
        </g>
        <g id="Eyes">
            <path id="Right-eye" serif:id="Right eye" d="M140.719,104.84L114.941,119.751L140.871,131.015" style="fill:none;stroke:black;stroke-width:12.61px;"/>
            <path id="Left-eye" serif:id="Left eye" d="M53.272,104.84L79.05,119.751L53.12,131.015" style="fill:none;stroke:black;stroke-width:12.61px;"/>
        </g>
    </g>
</svg>
