<?xml version="1.0" encoding="UTF-8" standalone="no"?>
<!DOCTYPE svg PUBLIC "-//W3C//DTD SVG 1.1//EN" "http://www.w3.org/Graphics/SVG/1.1/DTD/svg11.dtd">
<svg width="100%" height="100%" viewBox="0 0 256 256" version="1.1" xmlns="http://www.w3.org/2000/svg" xmlns:xlink="http://www.w3.org/1999/xlink" xml:space="preserve" xmlns:serif="http://www.serif.com/" style="fill-rule:evenodd;clip-rule:evenodd;stroke-linecap:round;stroke-linejoin:round;stroke-miterlimit:1.5;">
    <rect id="neobread_hug_mouse" x="0" y="0" width="256" height="256" style="fill:none;"/>
    <g id="Right-bread" serif:id="Right bread">
        <path id="Crust" d="M213.578,107.289C231.759,107.289 246.519,122.049 246.519,140.229C246.519,147.958 243.851,155.068 239.388,160.69L239.388,211.745C239.388,221.261 231.662,228.987 222.146,228.987L126.944,228.987C117.428,228.987 109.702,221.261 109.702,211.745L109.702,160.494C105.332,154.904 102.726,147.868 102.726,140.229C102.726,122.049 117.486,107.289 135.666,107.289L213.578,107.289Z" style="fill:rgb(209,160,132);stroke:black;stroke-width:15px;"/>
        <rect id="Shadow" x="171.212" y="159.086" width="60.449" height="9.176" style="fill:rgb(186,133,109);"/>
        <path id="Slice" d="M124.789,159.431C119.798,155.454 116.597,149.324 116.597,142.453C116.597,130.478 126.319,120.756 138.294,120.756L178.062,120.756C190.038,120.756 199.76,130.478 199.76,142.453C199.76,149.094 196.77,155.041 192.065,159.023L192.065,207.263C192.065,211.948 188.261,215.751 183.576,215.751L133.278,215.751C128.593,215.751 124.789,211.948 124.789,207.263L124.789,159.431Z" style="fill:rgb(252,233,186);"/>
        <g id="Face">
            <g id="Eyes">
                <path id="Right-eye" serif:id="Right eye" d="M182.791,158.299L182.791,162.628C182.791,167.175 179.099,170.867 174.551,170.867C170.003,170.867 166.311,167.175 166.311,162.628L166.311,158.299C166.311,153.751 170.003,150.059 174.551,150.059C179.099,150.059 182.791,153.751 182.791,158.299Z"/>
                <path id="Left-eye" serif:id="Left eye" d="M150.045,158.263L150.045,162.592C150.045,167.14 146.353,170.832 141.806,170.832C137.258,170.832 133.566,167.14 133.566,162.592L133.566,158.263C133.566,153.716 137.258,150.024 141.806,150.024C146.353,150.024 150.045,153.716 150.045,158.263Z"/>
            </g>
        </g>
    </g>
    <g id="Mouse">
        <path id="Tail-outline" serif:id="Tail outline" d="M37.097,250.518L99.15,250.518C101.785,250.518 103.923,248.385 103.923,245.745C103.923,243.105 101.785,240.972 99.15,240.972L37.097,240.972C24.963,240.972 18.003,238.745 18.003,229.324C18.003,221.988 25.846,213.811 37.097,213.811L70.51,213.811C73.15,213.811 75.283,211.677 75.283,209.038C75.283,206.398 73.15,204.264 70.51,204.264L37.097,204.264C19.965,204.264 8.326,217.225 8.457,229.324C8.603,242.801 19.698,250.518 37.097,250.518" style="fill:rgb(234,89,110);fill-rule:nonzero;stroke:black;stroke-width:10px;stroke-linecap:butt;stroke-miterlimit:2;"/>
        <path id="Tail" d="M37.097,250.518L99.15,250.518C101.785,250.518 103.923,248.385 103.923,245.745C103.923,243.105 101.785,240.972 99.15,240.972L37.097,240.972C24.963,240.972 18.003,238.745 18.003,229.324C18.003,221.988 25.846,213.811 37.097,213.811L70.51,213.811C73.15,213.811 75.283,211.677 75.283,209.038C75.283,206.398 73.15,204.264 70.51,204.264L37.097,204.264C19.965,204.264 8.326,217.225 8.457,229.324C8.603,242.801 19.698,250.518 37.097,250.518" style="fill:rgb(245,169,184);fill-rule:nonzero;"/>
        <path id="Body" d="M99.711,163.814C93.467,161.15 86.004,158.862 77.102,157.082C54.061,152.475 22.777,160.967 22.777,199.025C22.777,221.814 38.584,227.777 60.963,228.116L60.963,228.131L63.073,228.132C66.247,228.132 69.589,228.141 73.031,228.132L125.761,228.131L125.766,228.123C126.172,228.128 126.603,228.13 127.059,228.13C140.658,228.13 171.403,228.13 171.403,219.175C171.403,212.139 153.32,191.284 136.308,182.668C139.905,178.517 142.11,172.92 142.11,166.761C142.11,153.954 132.577,143.577 120.821,143.577C109.989,143.577 101.04,152.4 99.711,163.814Z" style="fill:rgb(204,214,221);stroke:black;stroke-width:15px;stroke-linecap:butt;stroke-miterlimit:2;"/>
        <g id="Ear">
            <path id="path44" d="M110.548,166.947C110.548,173.62 115.198,179.034 120.932,179.034C126.671,179.034 131.317,173.62 131.317,166.947C131.317,160.274 126.671,154.863 120.932,154.863C115.198,154.863 110.548,160.274 110.548,166.947" style="fill:rgb(245,169,184);fill-rule:nonzero;stroke:black;stroke-width:3.5px;stroke-linecap:butt;stroke-miterlimit:2;"/>
        </g>
        <path id="Eye" d="M123.725,201.578C123.725,201.578 135.394,195.29 142.461,205.445" style="fill:none;stroke:black;stroke-width:8px;"/>
    </g>
    <path id="Arm" d="M204.268,208.862L171.033,222.455C163.317,225.313 154.732,221.369 151.874,213.653C149.066,206.071 152.941,197.635 160.523,194.827L194.002,181.144" style="fill:rgb(209,160,132);stroke:black;stroke-width:10px;stroke-linecap:butt;"/>
</svg>
