<?xml version="1.0" encoding="UTF-8" standalone="no"?>
<!DOCTYPE svg PUBLIC "-//W3C//DTD SVG 1.1//EN" "http://www.w3.org/Graphics/SVG/1.1/DTD/svg11.dtd">
<svg width="100%" height="100%" viewBox="0 0 256 256" version="1.1" xmlns="http://www.w3.org/2000/svg" xmlns:xlink="http://www.w3.org/1999/xlink" xml:space="preserve" xmlns:serif="http://www.serif.com/" style="fill-rule:evenodd;clip-rule:evenodd;stroke-linecap:round;stroke-linejoin:round;stroke-miterlimit:1.5;">
    <rect id="neobread_hug_heart" x="0" y="0" width="256" height="256" style="fill:none;"/>
    <clipPath id="_clip1">
        <rect x="0" y="0" width="256" height="256"/>
    </clipPath>
    <g clip-path="url(#_clip1)">
        <g id="Right-bread" serif:id="Right bread">
            <path id="Crust" d="M213.578,107.289C231.759,107.289 246.519,122.049 246.519,140.229C246.519,147.958 243.851,155.068 239.388,160.69L239.388,211.745C239.388,221.261 231.662,228.987 222.146,228.987L126.944,228.987C117.428,228.987 109.702,221.261 109.702,211.745L109.702,160.494C105.332,154.904 102.726,147.868 102.726,140.229C102.726,122.049 117.486,107.289 135.666,107.289L213.578,107.289Z" style="fill:rgb(209,160,132);stroke:black;stroke-width:15px;"/>
            <rect id="Shadow" x="171.212" y="159.086" width="60.449" height="9.176" style="fill:rgb(186,133,109);"/>
            <path id="Slice" d="M124.789,159.431C119.798,155.454 116.597,149.324 116.597,142.453C116.597,130.478 126.319,120.756 138.294,120.756L178.062,120.756C190.038,120.756 199.76,130.478 199.76,142.453C199.76,149.094 196.77,155.041 192.065,159.023L192.065,207.263C192.065,211.948 188.261,215.751 183.576,215.751L133.278,215.751C128.593,215.751 124.789,211.948 124.789,207.263L124.789,159.431Z" style="fill:rgb(252,233,186);"/>
            <g id="Face">
                <path id="Mouth" d="M137.069,184.819L143.553,195.722L152.291,184.838L163.116,195.691L176.01,184.851" style="fill:none;stroke:black;stroke-width:6.02px;"/>
                <g id="Eyes">
                    <path id="Right-eye" serif:id="Right eye" d="M182.791,158.299L182.791,162.628C182.791,167.175 179.099,170.867 174.551,170.867C170.003,170.867 166.311,167.175 166.311,162.628L166.311,158.299C166.311,153.751 170.003,150.059 174.551,150.059C179.099,150.059 182.791,153.751 182.791,158.299Z"/>
                    <path id="Left-eye" serif:id="Left eye" d="M150.045,158.263L150.045,162.592C150.045,167.14 146.353,170.832 141.806,170.832C137.258,170.832 133.566,167.14 133.566,162.592L133.566,158.263C133.566,153.716 137.258,150.024 141.806,150.024C146.353,150.024 150.045,153.716 150.045,158.263Z"/>
                </g>
            </g>
        </g>
        <g id="Left-bread" serif:id="Left bread">
            <path id="Crust1" serif:id="Crust" d="M43.401,107.404C25.22,107.405 10.46,122.165 10.46,140.345C10.46,148.074 13.127,155.184 17.591,160.805L17.591,211.861C17.591,221.377 25.317,229.102 34.833,229.102L130.035,229.102C139.551,229.102 147.276,221.377 147.276,211.861L147.276,160.609C151.647,155.019 154.253,147.984 154.253,140.345C154.253,122.165 139.493,107.405 121.312,107.404L43.401,107.404Z" style="fill:rgb(209,160,132);stroke:black;stroke-width:15px;"/>
            <rect id="Shadow1" serif:id="Shadow" x="25.111" y="159.202" width="60.656" height="9.176" style="fill:rgb(186,133,109);"/>
            <path id="Slice1" serif:id="Slice" d="M132.19,159.546C137.181,155.57 140.382,149.44 140.382,142.569C140.382,130.594 130.659,120.871 118.684,120.871L78.916,120.871C66.941,120.871 57.219,130.594 57.219,142.569C57.219,149.209 60.208,155.157 64.914,159.138L64.914,207.378C64.914,212.063 68.718,215.867 73.403,215.867L123.701,215.867C128.386,215.867 132.19,212.063 132.19,207.378L132.19,159.546Z" style="fill:rgb(252,233,186);"/>
            <g id="Face1" serif:id="Face">
                <path id="Mouth1" serif:id="Mouth" d="M119.91,184.935L113.425,195.837L104.687,184.954L93.863,195.807L80.969,184.967" style="fill:none;stroke:black;stroke-width:6.02px;"/>
                <g id="Eyes1" serif:id="Eyes">
                    <path id="Right-eye1" serif:id="Right eye" d="M110.223,159.553C111.546,163.427 114.757,164.651 117.191,164.673C119.928,164.698 122.874,163.862 124.741,159.218" style="fill:none;stroke:black;stroke-width:7px;"/>
                    <path id="Left-eye1" serif:id="Left eye" d="M78.406,159.553C79.729,163.427 82.94,164.651 85.374,164.673C88.111,164.698 91.057,163.862 92.924,159.218" style="fill:none;stroke:black;stroke-width:7px;"/>
                </g>
            </g>
        </g>
        <path id="Arm" d="M192.517,212.327L138.382,212.327C130.153,212.327 123.473,205.646 123.473,197.418C123.473,189.332 130.037,182.768 138.122,182.768L192.517,182.768" style="fill:rgb(209,160,132);stroke:black;stroke-width:10px;stroke-linecap:butt;"/>
        <path id="Heart" d="M100.241,60.968L90.15,50.877C80.47,41.197 80.47,25.478 90.15,15.797C99.831,6.116 115.55,6.116 125.231,15.797L128,18.566L130.769,15.797C140.45,6.116 156.169,6.116 165.85,15.797C175.53,25.478 175.53,41.197 165.85,50.877L155.759,60.968C155.367,61.518 154.923,62.043 154.43,62.536L136.889,80.076C134.439,82.527 131.215,83.737 128,83.706C124.785,83.737 121.561,82.527 119.111,80.076L101.57,62.536C101.077,62.043 100.633,61.518 100.241,60.968Z" style="fill:rgb(239,124,148);stroke:black;stroke-width:15px;stroke-linejoin:miter;stroke-miterlimit:5;"/>
    </g>
</svg>
