<?xml version="1.0" encoding="UTF-8" standalone="no"?>
<!DOCTYPE svg PUBLIC "-//W3C//DTD SVG 1.1//EN" "http://www.w3.org/Graphics/SVG/1.1/DTD/svg11.dtd">
<svg width="100%" height="100%" viewBox="0 0 256 256" version="1.1" xmlns="http://www.w3.org/2000/svg" xmlns:xlink="http://www.w3.org/1999/xlink" xml:space="preserve" xmlns:serif="http://www.serif.com/" style="fill-rule:evenodd;clip-rule:evenodd;stroke-linecap:round;stroke-linejoin:round;stroke-miterlimit:1.5;">
    <rect id="neobread_mug" x="0" y="0" width="256" height="256" style="fill:none;"/>
    <path id="Crust" d="M192.734,26.885C222.946,26.885 247.473,51.413 247.473,81.624C247.473,94.467 243.041,106.282 235.623,115.623L235.623,200.464C235.623,216.277 222.785,229.115 206.972,229.115L48.771,229.115C32.958,229.115 20.12,216.277 20.12,200.464L20.12,115.297C12.857,106.008 8.527,94.318 8.527,81.624C8.527,51.413 33.054,26.885 63.266,26.885L192.734,26.885Z" style="fill:rgb(209,160,132);stroke:black;stroke-width:15px;"/>
    <rect id="Shadow" x="122.332" y="112.959" width="105.66" height="15.248" style="fill:rgb(186,133,109);"/>
    <path id="Slice" d="M42.009,112.691C33.24,105.704 27.616,94.934 27.616,82.861C27.616,61.82 44.698,44.738 65.738,44.738L135.611,44.738C156.652,44.738 173.734,61.82 173.734,82.861C173.734,94.528 168.481,104.979 160.213,111.974L160.213,196.732C160.213,204.964 153.53,211.647 145.299,211.647L56.924,211.647C48.692,211.647 42.009,204.964 42.009,196.732L42.009,112.691Z" style="fill:rgb(252,233,186);"/>
    <g id="Face">
        <path id="Mouth" d="M65.596,155.72L76.372,173.837L90.892,155.752L108.879,173.787L130.306,155.773" style="fill:none;stroke:black;stroke-width:10px;"/>
        <g id="Eyes">
            <path id="Right-eye" serif:id="Right eye" d="M143.057,111.742L143.057,119.688C143.057,128.036 136.28,134.813 127.933,134.813C119.586,134.813 112.809,128.036 112.809,119.688L112.809,111.742C112.809,103.395 119.586,96.618 127.933,96.618C136.28,96.618 143.057,103.395 143.057,111.742Z"/>
            <path id="Left-eye" serif:id="Left eye" d="M82.953,111.678L82.953,119.624C82.953,127.971 76.176,134.748 67.828,134.748C59.481,134.748 52.704,127.971 52.704,119.624L52.704,111.678C52.704,103.331 59.481,96.554 67.828,96.554C76.176,96.554 82.953,103.331 82.953,111.678Z"/>
        </g>
    </g>
    <g id="Mug">
        <path id="Outer-mug" serif:id="Outer mug" d="M125.961,185.4C135.093,185.4 142.506,195.505 142.506,207.95C142.506,220.396 135.093,230.5 125.961,230.5L125.961,233.123C125.961,239.816 111.007,245.249 92.588,245.249C74.169,245.249 59.215,239.816 59.215,233.123L59.215,177.507L125.961,177.507L125.961,185.4ZM125.961,222.166C131.718,222.166 136.392,215.796 136.392,207.95C136.392,200.104 131.718,193.734 125.961,193.734L125.961,222.166Z" style="fill:rgb(219,219,219);"/>
        <path d="M128.961,233.192C128.934,236.003 127.289,238.815 123.955,241.151C118.069,245.274 106.245,248.249 92.588,248.249C78.931,248.249 67.107,245.274 61.221,241.151C57.859,238.796 56.215,235.957 56.215,233.123L56.215,177.507C56.215,175.85 57.558,174.507 59.215,174.507L125.961,174.507C127.618,174.507 128.961,175.85 128.961,177.507L128.961,182.708C138.129,184.603 145.506,195.02 145.506,207.95C145.506,220.88 138.128,231.298 128.961,233.192ZM125.961,185.4L125.961,177.507L59.215,177.507L59.215,233.123C59.215,239.816 74.169,245.249 92.588,245.249C111.007,245.249 125.961,239.816 125.961,233.123L125.961,230.5C135.093,230.5 142.506,220.396 142.506,207.95C142.506,195.505 135.093,185.4 125.961,185.4ZM125.961,222.166L125.961,193.734C131.718,193.734 136.392,200.104 136.392,207.95C136.392,215.796 131.718,222.166 125.961,222.166ZM128.961,218.171C129.325,217.92 129.672,217.627 129.999,217.3C132.103,215.197 133.392,211.775 133.392,207.95C133.392,204.125 132.103,200.703 129.999,198.601C129.672,198.274 129.325,197.981 128.961,197.73L128.961,218.171Z"/>
        <ellipse id="Rim" cx="92.588" cy="177.507" rx="33.464" ry="12.159" style="fill:rgb(238,238,238);"/>
        <ellipse id="Inner-mug" serif:id="Inner mug" cx="92.588" cy="177.507" rx="30.295" ry="11.008" style="fill:rgb(153,153,153);"/>
        <path id="Coffee" d="M64.058,181.216C68.252,176.963 79.448,173.917 92.588,173.917C105.727,173.917 116.924,176.963 121.117,181.216C116.924,185.469 105.727,188.515 92.588,188.515C79.448,188.515 68.252,185.469 64.058,181.216Z" style="fill:rgb(129,58,6);"/>
        <path id="Mug-outline" serif:id="Mug outline" d="M136.045,177.936C145.366,182.754 152.506,194.008 152.506,207.95C152.506,222.443 144.791,234.031 134.933,238.505C133.754,241.499 131.514,244.402 127.972,246.884C121.317,251.546 108.028,255.249 92.588,255.249C77.148,255.249 63.859,251.546 57.204,246.884C51.55,242.923 49.215,237.889 49.215,233.123L49.215,179.13L49.215,179.125C49.154,178.589 49.124,178.049 49.124,177.507C49.124,172.735 51.464,167.697 57.124,163.731C63.793,159.059 77.113,155.348 92.588,155.348C108.063,155.348 121.382,159.059 128.052,163.731C133.712,167.697 136.052,172.735 136.052,177.507C136.052,177.65 136.049,177.793 136.045,177.936ZM59.215,178.407L59.215,233.123C59.215,239.816 74.169,245.249 92.588,245.249C111.007,245.249 125.961,239.816 125.961,233.123L125.961,230.5C135.093,230.5 142.506,220.396 142.506,207.95C142.506,195.505 135.093,185.4 125.961,185.4L125.961,178.407C126.021,178.11 126.052,177.81 126.052,177.507C126.052,170.796 111.057,165.348 92.588,165.348C74.119,165.348 59.124,170.796 59.124,177.507C59.124,177.81 59.155,178.11 59.215,178.407ZM125.961,222.166L125.961,193.734C131.718,193.734 136.392,200.104 136.392,207.95C136.392,215.796 131.718,222.166 125.961,222.166Z"/>
    </g>
    <path id="Right-hand" serif:id="Right hand" d="M192.019,203.487L167.969,217.373C157.939,223.164 145.094,219.722 139.304,209.692C133.614,199.837 136.995,187.216 146.851,181.525L171.218,167.457" style="fill:rgb(209,160,132);stroke:black;stroke-width:10px;stroke-linecap:butt;"/>
</svg>
