<?xml version="1.0" encoding="UTF-8" standalone="no"?>
<!DOCTYPE svg PUBLIC "-//W3C//DTD SVG 1.1//EN" "http://www.w3.org/Graphics/SVG/1.1/DTD/svg11.dtd">
<svg width="100%" height="100%" viewBox="0 0 256 256" version="1.1" xmlns="http://www.w3.org/2000/svg" xmlns:xlink="http://www.w3.org/1999/xlink" xml:space="preserve" xmlns:serif="http://www.serif.com/" style="fill-rule:evenodd;clip-rule:evenodd;stroke-linejoin:round;stroke-miterlimit:1.5;">
    <rect id="neobread_shrug" x="0" y="0" width="256" height="256" style="fill:none;"/>
    <path id="Left-hand" serif:id="Left hand" d="M45.56,205.98L7.254,113.294C2.941,102.545 9.252,93.425 20.001,89.112C30.562,84.874 42.577,90.008 46.816,100.569L84.171,190.486" style="fill:rgb(209,160,132);stroke:black;stroke-width:10px;"/>
    <path id="Crust" d="M195.96,33.735C224.125,33.735 246.991,56.601 246.991,84.765C246.991,96.738 242.859,107.754 235.944,116.462L235.944,195.555C235.944,210.297 223.975,222.265 209.234,222.265L61.75,222.265C47.008,222.265 35.04,210.297 35.04,195.555L35.04,116.158C28.269,107.498 24.232,96.599 24.232,84.765C24.232,56.601 47.097,33.735 75.262,33.735L195.96,33.735Z" style="fill:rgb(209,160,132);stroke:black;stroke-width:15px;stroke-linecap:round;"/>
    <rect id="Shadow" x="130.328" y="113.978" width="98.502" height="14.215" style="fill:rgb(186,133,109);"/>
    <path id="Slice" d="M55.446,113.728C47.271,107.214 42.027,97.174 42.027,85.919C42.027,66.303 57.952,50.378 77.567,50.378L142.707,50.378C162.322,50.378 178.247,66.303 178.247,85.919C178.247,96.796 173.35,106.538 165.642,113.059L165.642,192.076C165.642,199.75 159.412,205.98 151.738,205.98L69.35,205.98C61.676,205.98 55.446,199.75 55.446,192.076L55.446,113.728Z" style="fill:rgb(252,233,186);"/>
    <path id="Right-hand" serif:id="Right hand" d="M190.66,205.98L228.967,113.294C233.28,102.545 226.969,93.425 216.22,89.112C205.659,84.874 193.643,90.008 189.405,100.569L152.049,190.486" style="fill:rgb(209,160,132);stroke:black;stroke-width:10px;"/>
    <g id="Face">
        <path id="Mouth" d="M87.608,165.416L102.133,151.285L120.142,165.79" style="fill:none;stroke:black;stroke-width:9.32px;stroke-linecap:round;"/>
        <g id="Eyes">
            <path id="Right-eye" serif:id="Right eye" d="M149.649,112.844L149.649,120.252C149.649,128.033 143.331,134.351 135.549,134.351C127.767,134.351 121.449,128.033 121.449,120.252L121.449,112.844C121.449,105.062 127.767,98.744 135.549,98.744C143.331,98.744 149.649,105.062 149.649,112.844Z"/>
            <path id="Left-eye" serif:id="Left eye" d="M93.615,112.783L93.615,120.191C93.615,127.973 87.298,134.291 79.516,134.291C71.734,134.291 65.416,127.973 65.416,120.191L65.416,112.783C65.416,105.002 71.734,98.684 79.516,98.684C87.298,98.684 93.615,105.002 93.615,112.783Z"/>
        </g>
    </g>
</svg>
