<?xml version="1.0" encoding="UTF-8" standalone="no"?>
<!DOCTYPE svg PUBLIC "-//W3C//DTD SVG 1.1//EN" "http://www.w3.org/Graphics/SVG/1.1/DTD/svg11.dtd">
<svg width="100%" height="100%" viewBox="0 0 256 256" version="1.1" xmlns="http://www.w3.org/2000/svg" xmlns:xlink="http://www.w3.org/1999/xlink" xml:space="preserve" xmlns:serif="http://www.serif.com/" style="fill-rule:evenodd;clip-rule:evenodd;stroke-linecap:round;stroke-linejoin:round;stroke-miterlimit:1.5;">
    <g transform="matrix(1,0,0,1,-900,0)">
        <g id="neobread_woozy" transform="matrix(1,0,0,1,900,5.68434e-14)">
            <rect x="0" y="0" width="256" height="256" style="fill:none;"/>
            <g id="Crust" transform="matrix(3.74712,0,0,3.74712,-157.7,-109.634)">
                <path d="M93.521,36.433C101.583,36.433 108.129,42.979 108.129,51.041C108.129,54.469 106.946,57.622 104.967,60.115L104.967,82.756C104.967,86.976 101.541,90.402 97.321,90.402L55.101,90.402C50.881,90.402 47.455,86.976 47.455,82.756L47.455,60.028C45.517,57.549 44.361,54.429 44.361,51.041C44.361,42.979 50.907,36.433 58.969,36.433L93.521,36.433Z" style="fill:rgb(209,160,132);stroke:black;stroke-width:4px;"/>
            </g>
            <g id="Shadow" transform="matrix(4.03114,0,0,5.19154,-192.805,-201.948)">
                <rect x="78.176" y="60.658" width="26.211" height="2.937" style="fill:rgb(186,133,109);"/>
            </g>
            <g id="Slice" transform="matrix(1.01387,0,0,0.990808,-3.29993,-0.001601)">
                <path d="M44.69,113.738C36.04,106.686 30.493,95.816 30.493,83.631C30.493,62.395 47.341,45.155 68.094,45.155L137.011,45.155C157.764,45.155 174.612,62.395 174.612,83.631C174.612,95.407 169.431,105.954 161.277,113.014L161.277,198.559C161.277,206.867 154.685,213.612 146.566,213.612L59.4,213.612C51.281,213.612 44.69,206.867 44.69,198.559L44.69,113.738Z" style="fill:rgb(252,233,186);"/>
            </g>
            <g id="Face" transform="matrix(1.14205,0,0,1.14205,-14.0991,-17.5329)">
                <g id="Mouth" transform="matrix(0.902966,0,0,0.951309,8.62864,7.711)">
                    <path d="M61.916,151.122C63.321,157.931 66.648,167.125 73.6,167.195C81.271,167.272 86.162,154.467 93.833,154.495C102.719,154.528 107.301,172.141 118.236,171.717C130.418,171.245 133.432,161.018 136.977,151.155" style="fill:none;stroke:rgb(70,41,26);stroke-width:9.44px;"/>
                </g>
                <g id="Right-eye" serif:id="Right eye" transform="matrix(1.19978,0,0,1.69304,44.3811,-58.4514)">
                    <path d="M81.743,105.248C80.484,109.77 74.852,113.185 68.103,113.185C60.43,113.185 54.2,108.77 54.2,103.333L54.2,99.111C54.2,98.409 54.304,97.724 54.501,97.064L81.743,105.248Z"/>
                </g>
                <g id="Left-eye" serif:id="Left eye" transform="matrix(1.22161,0,0,1.72384,-11.5452,-61.2797)">
                    <path d="M80.607,94.801C81.503,96.103 82.006,97.566 82.006,99.111L82.006,103.333C82.006,108.77 75.776,113.185 68.103,113.185C60.43,113.185 54.2,108.77 54.2,103.333L54.2,99.815L80.607,94.801Z"/>
                </g>
                <g transform="matrix(1,0,0,1,-275.86,0.702238)">
                    <path d="M330.527,88.124C330.527,88.124 336.24,75.092 356.431,75.412" style="fill:none;stroke:black;stroke-width:8.76px;"/>
                </g>
                <g transform="matrix(-0.709363,-0.704843,0.704843,-0.709363,315.186,389.718)">
                    <path d="M330.527,88.124C330.527,88.124 336.24,75.092 356.431,75.412" style="fill:none;stroke:black;stroke-width:8.76px;"/>
                </g>
            </g>
        </g>
    </g>
</svg>
