<?xml version="1.0" encoding="UTF-8" standalone="no"?>
<!DOCTYPE svg PUBLIC "-//W3C//DTD SVG 1.1//EN" "http://www.w3.org/Graphics/SVG/1.1/DTD/svg11.dtd">
<svg width="100%" height="100%" viewBox="0 0 256 256" version="1.1" xmlns="http://www.w3.org/2000/svg" xmlns:xlink="http://www.w3.org/1999/xlink" xml:space="preserve" xmlns:serif="http://www.serif.com/" style="fill-rule:evenodd;clip-rule:evenodd;stroke-linecap:round;stroke-linejoin:round;stroke-miterlimit:5;">
    <rect id="neobread_snuggle_fox" x="0" y="0" width="256" height="256" style="fill:none;"/>
    <clipPath id="_clip1">
        <rect x="0" y="0" width="256" height="256"/>
    </clipPath>
    <g clip-path="url(#_clip1)">
        <g id="Fox">
            <path id="Outline" d="M12.589,143.903C11.033,136.736 9.569,122.837 9.028,114.608C8.466,106.071 9.012,99.684 9.545,96.939C10.214,93.493 11.466,91.38 12.169,90.339C11.934,90.686 11.513,91.424 11.513,91.424C11.513,91.424 14.467,86.658 17.397,84.716C19.454,83.353 22.444,81.78 27.717,81.74C34.346,81.69 36.124,83.03 41.347,86.384C42.61,87.195 44.753,89.187 47.113,91.563C47.137,91.558 47.162,91.553 47.186,91.549C47.186,91.549 56.709,89.862 60.073,89.862C62.071,89.862 68.322,90.804 75.459,93.682C76.522,92.982 77.686,92.41 78.933,91.991C84.777,90.03 91.194,91.848 95.144,96.507C96.777,95.201 98.08,94.211 98.955,93.512C101.742,91.286 108.892,85.907 112.944,83.763C116.477,81.893 119.552,81.361 121.357,81.293C128.217,81.032 132.839,83.398 137.487,89.593C138.758,91.286 141.314,97.179 142.317,104.261C142.747,106.782 143.031,109.985 142.997,113.856C142.937,120.813 142.057,131.342 140.328,138.211C139.838,140.157 139.161,142.36 138.447,144.503C139.896,149.928 141.879,159.453 141.658,170.347C141.261,189.897 139.493,200.388 129.152,209.737C118.569,219.305 110.874,219.852 100.757,220.976C89.612,222.213 54.976,220.632 54.976,220.632C54.849,220.626 54.722,220.618 54.595,220.609C54.595,220.609 32.088,218.141 22,204.535C13.221,192.694 8.683,185.355 8.173,171.077C7.832,161.535 9.588,152.069 12.589,143.903ZM59.77,120.069C58.38,119.555 55.345,118.612 50.979,118.251C47.95,114.696 45.102,111.378 43.812,109.944C40.431,106.188 35.369,100.372 33.242,99.005C31.114,97.639 30.532,96.72 27.831,96.74C25.13,96.76 25.144,97.929 24.596,98.74C24.048,99.551 23.446,105.275 23.995,113.623C24.545,121.971 25.981,136.885 27.57,142.03C27.875,143.019 28.214,143.86 28.563,144.574C25.061,151.89 22.828,161.169 23.163,170.541C23.549,181.317 27.424,186.664 34.05,195.601C40.675,204.538 55.702,205.65 55.702,205.65C55.702,205.65 88.536,207.24 99.101,206.067C106.17,205.282 111.698,205.295 119.093,198.61C126.487,191.925 126.377,184.023 126.661,170.043C126.944,156.062 122.886,144.812 122.886,144.812L120.904,148.819C121.317,147.79 124.404,140.023 125.782,134.55C127.259,128.679 127.947,119.673 127.998,113.727C128.023,110.833 127.83,108.456 127.5,106.611C126.985,102.806 126.163,99.494 125.489,98.595C124.4,97.145 123.533,96.221 121.926,96.282C119.764,96.364 111.228,102.907 108.317,105.232C106.088,107.013 100.791,110.843 94.442,117.263C94.481,117.22 94.513,117.184 94.539,117.156C90.47,115.141 83.706,106.212 83.706,106.212C83.706,106.212 83.701,114.842 83.778,117.592C76.35,107.524 62.707,104.862 60.073,104.862C57.44,104.862 49.999,106.283 49.999,106.283C48.869,107.517 56.397,118.004 59.77,120.069C60.336,120.279 60.629,120.417 60.629,120.417C60.391,120.393 60.1,120.271 59.77,120.069ZM120.836,148.93L120.848,148.932L120.843,148.943L120.836,148.93ZM86.644,126.007C86.646,126.013 86.647,126.019 86.649,126.025L86.628,126.025L86.644,126.007Z"/>
            <g id="Left-ear" serif:id="Left ear">
                <path id="Outer" d="M120.858,148.933C120.858,148.933 124.304,140.421 125.782,134.55C127.259,128.679 127.947,119.673 127.998,113.727C128.049,107.781 126.577,100.046 125.489,98.595C124.4,97.145 123.533,96.221 121.926,96.282C119.764,96.364 111.228,102.907 108.317,105.232C105.218,107.708 96.184,114.148 86.642,126.001C87.472,129.202 108.655,147.689 120.858,148.933Z" style="fill:rgb(42,42,42);"/>
                <path id="Inner" d="M120.858,148.933C120.858,148.933 124.304,140.421 125.782,134.55C127.259,128.679 127.947,119.673 127.998,113.727C128.049,107.781 127.182,104.017 126.093,102.567C125.005,101.116 124.223,101.149 122.617,101.075C121.011,101.002 114.983,105.341 112.95,108.462C110.918,111.584 107.287,119.607 104.824,121.781C102.36,123.956 97.823,126.45 94.433,126.222C95.263,129.423 108.655,147.689 120.858,148.933Z" style="fill:rgb(235,220,204);"/>
            </g>
            <path id="Right-ear" serif:id="Right ear" d="M61.26,130.386C61.26,130.386 47.192,113.699 43.812,109.944C40.431,106.188 35.369,100.372 33.242,99.005C31.114,97.639 30.532,96.72 27.831,96.74C25.13,96.76 25.144,97.929 24.596,98.74C24.048,99.551 23.446,105.275 23.995,113.623C24.545,121.971 25.981,136.885 27.57,142.03C29.158,147.174 31.665,148.321 31.665,148.321L61.26,130.386Z" style="fill:rgb(42,42,42);"/>
            <path id="Body" d="M99.101,206.067C88.536,207.24 55.702,205.65 55.702,205.65C55.702,205.65 40.675,204.538 34.05,195.601C27.424,186.664 23.549,181.317 23.163,170.541C22.778,159.765 25.787,149.113 30.218,141.425C34.649,133.738 43.113,125.978 48.741,126.232C45.495,125.095 36.862,122.804 32.667,123.21C33.783,122.465 39.892,118.012 47.917,118.107C55.942,118.202 60.629,120.417 60.629,120.417C57.953,120.144 48.758,107.638 49.999,106.283C49.999,106.283 57.44,104.862 60.073,104.862C62.707,104.862 76.35,107.524 83.778,117.592C83.701,114.842 83.706,106.212 83.706,106.212C83.706,106.212 90.47,115.141 94.539,117.156C93.741,118.027 86.628,126.025 86.628,126.025L103.666,126.348L103.691,137.555L115.128,137.597L120.843,148.943L122.886,144.812C122.886,144.812 126.944,156.062 126.661,170.043C126.377,184.023 126.487,191.925 119.093,198.61C111.698,205.295 106.17,205.282 99.101,206.067Z" style="fill:rgb(247,150,91);"/>
            <g id="Face">
                <path id="Mouth" d="M86.78,177.526L75.345,189.234L63.693,177.579L55.173,189.235L49.169,177.628" style="fill:none;stroke:black;stroke-width:8px;"/>
                <path id="Nose" d="M57.861,164.748C57.861,167.139 59.802,169.08 62.192,169.08L65.364,169.08C67.754,169.08 69.695,167.139 69.695,164.748C69.695,162.358 67.754,160.417 65.364,160.417L62.192,160.417C59.802,160.417 57.861,162.358 57.861,164.748Z" style="fill:rgb(50,18,11);"/>
                <g id="Eyes">
                    <path id="Right-eye" serif:id="Right eye" d="M58.266,145.589C56.644,150.334 52.711,151.834 49.729,151.861C46.375,151.891 42.766,150.867 40.479,145.177" style="fill:none;stroke:black;stroke-width:10px;stroke-miterlimit:1.5;"/>
                    <path id="Left-eye" serif:id="Left eye" d="M92.994,145.589C91.373,150.334 87.44,151.834 84.458,151.861C81.104,151.891 77.495,150.867 75.207,145.177" style="fill:none;stroke:black;stroke-width:10px;stroke-miterlimit:1.5;"/>
                </g>
            </g>
        </g>
        <g id="Right-bread" serif:id="Right bread">
            <path id="Crust" d="M214.152,121.532C230.207,121.532 243.242,134.566 243.242,150.621C243.242,157.446 240.886,163.725 236.944,168.689L236.944,213.775C236.944,222.178 230.122,229 221.719,229L137.648,229C129.245,229 122.423,222.178 122.423,213.775L122.423,168.516C118.563,163.579 116.262,157.367 116.262,150.621C116.262,134.566 129.296,121.532 145.351,121.532L214.152,121.532Z" style="fill:rgb(209,160,132);stroke:black;stroke-width:15px;stroke-miterlimit:1.5;"/>
            <rect id="Shadow" x="176.74" y="167.273" width="52.732" height="8.103" style="fill:rgb(186,133,109);"/>
            <path id="Slice" d="M135.745,167.577C131.338,164.065 128.511,158.652 128.511,152.584C128.511,142.009 137.097,133.424 147.672,133.424L182.79,133.424C193.365,133.424 201.95,142.009 201.95,152.584C201.95,158.449 199.31,163.701 195.155,167.217L195.155,209.816C195.155,213.954 191.796,217.312 187.659,217.312L143.241,217.312C139.104,217.312 135.745,213.954 135.745,209.816L135.745,167.577Z" style="fill:rgb(252,233,186);"/>
            <g id="Face1" serif:id="Face">
                <path id="Mouth1" serif:id="Mouth" d="M146.589,189.997L152.316,199.625L160.032,190.014L169.591,199.598L180.977,190.025" style="fill:none;stroke:black;stroke-width:5.31px;stroke-miterlimit:1.5;"/>
                <g id="Eyes1" serif:id="Eyes">
                    <path id="Right-eye1" serif:id="Right eye" d="M171.75,171.589C171.75,171.589 176.777,162.919 187.753,166.96" style="fill:none;stroke:black;stroke-width:7px;stroke-miterlimit:1.5;"/>
                    <path id="Left-eye1" serif:id="Left eye" d="M156.813,171.324C156.813,171.324 151.786,162.654 140.809,166.696" style="fill:none;stroke:black;stroke-width:7px;stroke-miterlimit:1.5;"/>
                </g>
            </g>
        </g>
        <path id="Heart" d="M100.241,60.968L90.15,50.877C80.47,41.197 80.47,25.478 90.15,15.797C99.831,6.116 115.55,6.116 125.231,15.797L128,18.566L130.769,15.797C140.45,6.116 156.169,6.116 165.85,15.797C175.53,25.478 175.53,41.197 165.85,50.877L155.759,60.968C155.367,61.518 154.923,62.043 154.43,62.536L136.889,80.076C134.439,82.527 131.215,83.737 128,83.706C124.785,83.737 121.561,82.527 119.111,80.076L101.57,62.536C101.077,62.043 100.633,61.518 100.241,60.968Z" style="fill:rgb(239,124,148);stroke:black;stroke-width:15px;stroke-linejoin:miter;"/>
    </g>
</svg>
