<?xml version="1.0" encoding="UTF-8" standalone="no"?>
<!DOCTYPE svg PUBLIC "-//W3C//DTD SVG 1.1//EN" "http://www.w3.org/Graphics/SVG/1.1/DTD/svg11.dtd">
<svg width="100%" height="100%" viewBox="0 0 256 256" version="1.1" xmlns="http://www.w3.org/2000/svg" xmlns:xlink="http://www.w3.org/1999/xlink" xml:space="preserve" xmlns:serif="http://www.serif.com/" style="fill-rule:evenodd;clip-rule:evenodd;stroke-linecap:round;stroke-linejoin:round;stroke-miterlimit:1.5;">
    <rect id="neobread_hug_mouse_heart" x="0" y="0" width="256" height="256" style="fill:none;"/>
    <clipPath id="_clip1">
        <rect x="0" y="0" width="256" height="256"/>
    </clipPath>
    <g clip-path="url(#_clip1)">
        <g id="Right-bread" serif:id="Right bread">
            <path id="Crust" d="M213.578,107.289C231.759,107.289 246.519,122.049 246.519,140.229C246.519,147.958 243.851,155.068 239.388,160.69L239.388,211.745C239.388,221.261 231.662,228.987 222.146,228.987L126.944,228.987C117.428,228.987 109.702,221.261 109.702,211.745L109.702,160.494C105.332,154.904 102.726,147.868 102.726,140.229C102.726,122.049 117.486,107.289 135.666,107.289L213.578,107.289Z" style="fill:rgb(209,160,132);stroke:black;stroke-width:15px;"/>
            <rect id="Shadow" x="171.212" y="159.086" width="60.449" height="9.176" style="fill:rgb(186,133,109);"/>
            <path id="Slice" d="M124.789,159.431C119.798,155.454 116.597,149.324 116.597,142.453C116.597,130.478 126.319,120.756 138.294,120.756L178.062,120.756C190.038,120.756 199.76,130.478 199.76,142.453C199.76,149.094 196.77,155.041 192.065,159.023L192.065,207.263C192.065,211.948 188.261,215.751 183.576,215.751L133.278,215.751C128.593,215.751 124.789,211.948 124.789,207.263L124.789,159.431Z" style="fill:rgb(252,233,186);"/>
            <g id="Face">
                <g id="Eyes">
                    <path id="Right-eye" serif:id="Right eye" d="M182.791,158.299L182.791,162.628C182.791,167.175 179.099,170.867 174.551,170.867C170.003,170.867 166.311,167.175 166.311,162.628L166.311,158.299C166.311,153.751 170.003,150.059 174.551,150.059C179.099,150.059 182.791,153.751 182.791,158.299Z"/>
                    <path id="Left-eye" serif:id="Left eye" d="M150.045,158.263L150.045,162.592C150.045,167.14 146.353,170.832 141.806,170.832C137.258,170.832 133.566,167.14 133.566,162.592L133.566,158.263C133.566,153.716 137.258,150.024 141.806,150.024C146.353,150.024 150.045,153.716 150.045,158.263Z"/>
                </g>
            </g>
        </g>
        <g id="Mouse">
            <path id="Tail-outline" serif:id="Tail outline" d="M37.52,250.518L99.573,250.518C102.208,250.518 104.346,248.385 104.346,245.745C104.346,243.105 102.208,240.972 99.573,240.972L37.52,240.972C25.386,240.972 18.427,238.745 18.427,229.324C18.427,221.988 26.269,213.811 37.52,213.811L70.933,213.811C73.573,213.811 75.706,211.677 75.706,209.038C75.706,206.398 73.573,204.264 70.933,204.264L37.52,204.264C20.389,204.264 8.749,217.225 8.88,229.324C9.026,242.801 20.121,250.518 37.52,250.518" style="fill:rgb(234,89,110);fill-rule:nonzero;stroke:black;stroke-width:10px;stroke-linecap:butt;stroke-miterlimit:2;"/>
            <path id="Tail" d="M37.52,250.518L99.573,250.518C102.208,250.518 104.346,248.385 104.346,245.745C104.346,243.105 102.208,240.972 99.573,240.972L37.52,240.972C25.386,240.972 18.427,238.745 18.427,229.324C18.427,221.988 26.269,213.811 37.52,213.811L70.933,213.811C73.573,213.811 75.706,211.677 75.706,209.038C75.706,206.398 73.573,204.264 70.933,204.264L37.52,204.264C20.389,204.264 8.749,217.225 8.88,229.324C9.026,242.801 20.121,250.518 37.52,250.518" style="fill:rgb(245,169,184);fill-rule:nonzero;"/>
            <path id="Body" d="M100.135,163.814C93.891,161.15 86.428,158.862 77.525,157.082C54.484,152.475 23.2,160.967 23.2,199.025C23.2,221.814 39.007,227.777 61.387,228.116L61.387,228.131L63.496,228.132C66.671,228.132 70.013,228.141 73.454,228.132L126.184,228.131L126.19,228.123C126.595,228.128 127.026,228.13 127.483,228.13C141.082,228.13 171.827,228.13 171.827,219.175C171.827,212.139 153.743,191.284 136.732,182.668C140.328,178.517 142.533,172.92 142.533,166.761C142.533,153.954 133.001,143.577 121.244,143.577C110.412,143.577 101.464,152.4 100.135,163.814Z" style="fill:rgb(204,214,221);stroke:black;stroke-width:15px;stroke-linecap:butt;stroke-miterlimit:2;"/>
            <g id="Ear">
                <path id="path44" d="M110.971,166.947C110.971,173.62 115.621,179.034 121.356,179.034C127.094,179.034 131.741,173.62 131.741,166.947C131.741,160.274 127.094,154.863 121.356,154.863C115.621,154.863 110.971,160.274 110.971,166.947" style="fill:rgb(245,169,184);fill-rule:nonzero;stroke:black;stroke-width:3.5px;stroke-linecap:butt;stroke-miterlimit:2;"/>
            </g>
            <path id="Eye" d="M124.148,201.578C124.148,201.578 135.817,195.29 142.885,205.445" style="fill:none;stroke:black;stroke-width:8px;"/>
        </g>
        <path id="Arm" d="M204.268,208.862L171.033,222.455C163.317,225.313 154.732,221.369 151.874,213.653C149.066,206.071 152.941,197.635 160.523,194.827L194.002,181.144" style="fill:rgb(209,160,132);stroke:black;stroke-width:10px;stroke-linecap:butt;"/>
        <path id="Heart" d="M100.241,60.968L90.15,50.877C80.47,41.197 80.47,25.478 90.15,15.797C99.831,6.116 115.55,6.116 125.231,15.797L128,18.566L130.769,15.797C140.45,6.116 156.169,6.116 165.85,15.797C175.53,25.478 175.53,41.197 165.85,50.877L155.759,60.968C155.367,61.518 154.923,62.043 154.43,62.536L136.889,80.076C134.439,82.527 131.215,83.737 128,83.706C124.785,83.737 121.561,82.527 119.111,80.076L101.57,62.536C101.077,62.043 100.633,61.518 100.241,60.968Z" style="fill:rgb(239,124,148);stroke:black;stroke-width:15px;stroke-linejoin:miter;stroke-miterlimit:5;"/>
    </g>
</svg>
