<?xml version="1.0" encoding="UTF-8" standalone="no"?>
<!DOCTYPE svg PUBLIC "-//W3C//DTD SVG 1.1//EN" "http://www.w3.org/Graphics/SVG/1.1/DTD/svg11.dtd">
<svg width="100%" height="100%" viewBox="0 0 256 256" version="1.1" xmlns="http://www.w3.org/2000/svg" xmlns:xlink="http://www.w3.org/1999/xlink" xml:space="preserve" xmlns:serif="http://www.serif.com/" style="fill-rule:evenodd;clip-rule:evenodd;stroke-linecap:round;stroke-linejoin:round;stroke-miterlimit:1.5;">
    <rect id="neobread_hug_wolf" x="0" y="0" width="256" height="256" style="fill:none;"/>
    <g id="Right-bread" serif:id="Right bread">
        <path id="Crust" d="M213.578,107.289C231.759,107.289 246.519,122.049 246.519,140.229C246.519,147.958 243.851,155.068 239.388,160.69L239.388,211.745C239.388,221.261 231.662,228.987 222.146,228.987L126.944,228.987C117.428,228.987 109.702,221.261 109.702,211.745L109.702,160.494C105.332,154.904 102.726,147.868 102.726,140.229C102.726,122.049 117.486,107.289 135.666,107.289L213.578,107.289Z" style="fill:rgb(209,160,132);stroke:black;stroke-width:15px;"/>
        <rect id="Shadow" x="171.212" y="159.086" width="60.449" height="9.176" style="fill:rgb(186,133,109);"/>
        <path id="Slice" d="M124.789,159.431C119.798,155.454 116.597,149.324 116.597,142.453C116.597,130.478 126.319,120.756 138.294,120.756L178.062,120.756C190.038,120.756 199.76,130.478 199.76,142.453C199.76,149.094 196.77,155.041 192.065,159.023L192.065,207.263C192.065,211.948 188.261,215.751 183.576,215.751L133.278,215.751C128.593,215.751 124.789,211.948 124.789,207.263L124.789,159.431Z" style="fill:rgb(252,233,186);"/>
        <g id="Face">
            <path id="Mouth" d="M137.069,184.819L143.553,195.722L152.291,184.838L163.116,195.691L176.01,184.851" style="fill:none;stroke:black;stroke-width:6.02px;"/>
            <g id="Eyes">
                <path id="Right-eye" serif:id="Right eye" d="M182.791,158.299L182.791,162.628C182.791,167.175 179.099,170.867 174.551,170.867C170.003,170.867 166.311,167.175 166.311,162.628L166.311,158.299C166.311,153.751 170.003,150.059 174.551,150.059C179.099,150.059 182.791,153.751 182.791,158.299Z"/>
                <path id="Left-eye" serif:id="Left eye" d="M150.045,158.263L150.045,162.592C150.045,167.14 146.353,170.832 141.806,170.832C137.258,170.832 133.566,167.14 133.566,162.592L133.566,158.263C133.566,153.716 137.258,150.024 141.806,150.024C146.353,150.024 150.045,153.716 150.045,158.263Z"/>
            </g>
        </g>
    </g>
    <g id="Wolf">
        <path id="Right-ear" serif:id="Right ear" d="M72.241,106.804C72.241,106.804 98.003,74.339 105.458,78.391C111.131,81.474 110.131,124.539 109.329,130.107" style="stroke:black;stroke-width:10px;"/>
        <path id="Body" d="M72.241,106.804C109.012,108.856 107.31,134.403 120.114,146.833C133.953,160.267 150.248,162.953 155.185,170.123C159.054,175.743 155.35,184.421 149.734,189.854C134.172,204.91 135.427,202.226 127.745,202.808C120.064,203.39 100.123,201.216 87.073,208.713C72.507,217.081 72.084,228.987 72.084,228.987L12.45,228.617L11.952,126.495C11.952,126.495 13.614,120.675 21.356,119.848L23.872,119.297C21.475,100.86 34.438,63.684 45.069,62.99C58.751,62.098 65.635,89.727 72.241,106.804Z" style="fill:rgb(158,158,158);stroke:black;stroke-width:15px;"/>
        <g id="Left-ear" serif:id="Left ear">
            <path id="Outer" d="M73.764,123.251C73.764,123.251 57.233,132.882 53.313,137.483C49.393,142.083 46.181,144.49 43.257,146.617C40.333,148.744 36.68,149.752 33.524,149.651C32.183,147.749 25.825,136.388 26.245,117.695C26.664,99.003 31.31,90.463 33.296,85.324C35.282,80.184 38.35,65.737 47.963,65.401C57.577,65.066 68.739,104.188 73.764,123.251Z" style="fill:rgb(33,33,33);"/>
            <path id="Inner" d="M49.995,141.005C49.995,141.005 45.51,129.53 42.442,124.081C40.269,120.221 34.052,108.627 34.99,101.88C35.928,95.132 40.66,73.165 47.443,73.398C54.226,73.631 58.843,92.392 59.622,96.249C61.729,106.69 60.933,131.3 60.933,131.3L49.995,141.005Z" style="fill:rgb(207,207,207);"/>
        </g>
        <path id="Snout" d="M153.845,174.962C153.845,174.962 143.446,166.113 133.778,163.036C123.508,159.767 100.886,160.028 87.649,166.563C59.431,180.493 80.976,200.369 95.183,197.634C97.121,197.261 111.954,196.099 127.263,195.865C139.782,195.674 153.845,174.962 153.845,174.962Z" style="fill:rgb(207,207,207);"/>
        <ellipse id="Nose" cx="144.277" cy="175.942" rx="10.908" ry="8.936" style="fill:rgb(33,33,33);"/>
        <path id="Eye" d="M75.547,146.214C75.547,146.214 92.536,141.619 98.598,156.888" style="fill:none;stroke:black;stroke-width:8px;"/>
        <path id="Mouth1" serif:id="Mouth" d="M87.649,180.677L93.628,186.53L108.512,186.487L132.805,195.204" style="fill:none;stroke:black;stroke-width:8px;"/>
    </g>
    <path id="Arm" d="M192.517,212.327L138.382,212.327C130.153,212.327 123.473,205.646 123.473,197.418C123.473,189.332 130.037,182.768 138.122,182.768L192.517,182.768" style="fill:rgb(209,160,132);stroke:black;stroke-width:10px;stroke-linecap:butt;"/>
</svg>
