<?xml version="1.0" encoding="UTF-8" standalone="no"?>
<!DOCTYPE svg PUBLIC "-//W3C//DTD SVG 1.1//EN" "http://www.w3.org/Graphics/SVG/1.1/DTD/svg11.dtd">
<svg width="100%" height="100%" viewBox="0 0 256 256" version="1.1" xmlns="http://www.w3.org/2000/svg" xmlns:xlink="http://www.w3.org/1999/xlink" xml:space="preserve" xmlns:serif="http://www.serif.com/" style="fill-rule:evenodd;clip-rule:evenodd;stroke-linecap:round;stroke-linejoin:round;stroke-miterlimit:1.5;">
    <rect id="neobread_nom_potato" x="0" y="0" width="256" height="256" style="fill:none;"/>
    <path id="Crust" d="M192.734,26.885C222.946,26.885 247.473,51.413 247.473,81.624C247.473,94.467 243.041,106.282 235.623,115.623L235.623,200.464C235.623,216.277 222.785,229.115 206.972,229.115L48.771,229.115C32.958,229.115 20.12,216.277 20.12,200.464L20.12,115.297C12.857,106.008 8.527,94.318 8.527,81.624C8.527,51.413 33.054,26.885 63.266,26.885L192.734,26.885Z" style="fill:rgb(209,160,132);stroke:black;stroke-width:15px;"/>
    <rect id="Shadow" x="122.332" y="112.959" width="105.66" height="15.248" style="fill:rgb(186,133,109);"/>
    <path id="Slice" d="M42.009,112.691C33.24,105.704 27.616,94.934 27.616,82.861C27.616,61.82 44.698,44.738 65.738,44.738L135.611,44.738C156.652,44.738 173.734,61.82 173.734,82.861C173.734,94.528 168.481,104.979 160.213,111.974L160.213,196.732C160.213,204.964 153.53,211.647 145.299,211.647L56.924,211.647C48.692,211.647 42.009,204.964 42.009,196.732L42.009,112.691Z" style="fill:rgb(252,233,186);"/>
    <g id="Eyes">
        <g id="Right-eye" serif:id="Right eye">
            <circle id="Eye-white" serif:id="Eye white" cx="130.968" cy="115.715" r="23.779" style="fill:white;"/>
            <circle id="Pupil" cx="127.906" cy="112.691" r="20.392"/>
            <path id="Eye-reflection-top" serif:id="Eye reflection top" d="M116.892,101.838C120.92,97.81 126.719,97.069 129.835,100.185C132.95,103.3 132.21,109.1 128.182,113.127C124.154,117.155 118.355,117.896 115.239,114.78C112.124,111.665 112.864,105.865 116.892,101.838Z" style="fill:white;"/>
            <path id="Eye-reflection-bottom" serif:id="Eye reflection bottom" d="M137.831,117.603C137.831,117.603 136.632,121.739 132.389,122.644" style="fill:none;stroke:rgb(151,151,151);stroke-width:8px;"/>
        </g>
        <g id="Left-eye" serif:id="Left eye">
            <circle id="Eye-white1" serif:id="Eye white" cx="70.382" cy="115.715" r="23.779" style="fill:white;"/>
            <circle id="Pupil1" serif:id="Pupil" cx="67.32" cy="112.691" r="20.392"/>
            <path id="Eye-reflection-top1" serif:id="Eye reflection top" d="M56.306,101.838C60.333,97.81 66.133,97.069 69.248,100.185C72.364,103.3 71.623,109.1 67.595,113.127C63.568,117.155 57.768,117.896 54.653,114.78C51.537,111.665 52.278,105.865 56.306,101.838Z" style="fill:white;"/>
            <path id="Eye-reflection-bottom1" serif:id="Eye reflection bottom" d="M77.244,117.603C77.244,117.603 76.045,121.739 71.803,122.644" style="fill:none;stroke:rgb(151,151,151);stroke-width:8px;"/>
        </g>
    </g>
    <g id="Potato">
        <path id="Body" d="M93.104,236.582C93.104,236.582 81.024,243.286 75.899,244.227C70.855,245.154 69.429,245.583 64.594,244.812C59.759,244.04 52.764,240.823 49.503,236.483C46.242,232.143 43.042,226.647 43.042,220.373C43.042,214.1 44.843,206.108 49.786,202.071C54.729,198.035 60.048,198.712 63.433,197.052C65.588,195.994 71.303,193.779 74.333,186.846C75.965,183.111 80.209,176.619 88.99,176.018C97.772,175.418 102.768,177.179 106.673,180.545C110.499,183.843 116.723,192.82 116.841,200.07C116.958,207.32 116.039,213.051 113.777,217.042C111.515,221.033 109.359,226.667 93.104,236.582Z" style="fill:rgb(184,136,90);"/>
        <path d="M97.956,245.326C97.956,245.326 83.709,252.96 77.705,254.063C71.155,255.266 69.296,255.688 63.018,254.687C56.083,253.58 46.187,248.717 41.509,242.491C37.059,236.569 33.042,228.934 33.042,220.373C33.042,211.35 36.352,200.132 43.461,194.326C47.313,191.18 51.266,189.769 54.962,188.923C56.489,188.573 57.937,188.609 59.028,188.074C60.193,187.502 63.532,186.588 65.17,182.841C67.73,176.982 74.53,166.983 88.309,166.042C100.74,165.192 107.674,168.206 113.202,172.971C118.45,177.494 126.678,189.964 126.839,199.908C126.992,209.364 125.427,216.769 122.477,221.973C119.816,226.668 117.433,233.456 98.311,245.12C98.194,245.191 98.076,245.26 97.956,245.326ZM93.104,236.582C109.359,226.667 111.515,221.033 113.777,217.042C116.039,213.051 116.958,207.32 116.841,200.07C116.723,192.82 110.499,183.843 106.673,180.545C102.768,177.179 97.772,175.418 88.99,176.018C80.209,176.619 75.965,183.111 74.333,186.846C71.303,193.779 65.588,195.994 63.433,197.052C60.048,198.712 54.729,198.035 49.786,202.071C44.843,206.108 43.042,214.1 43.042,220.373C43.042,226.647 46.242,232.143 49.503,236.483C52.764,240.823 59.759,244.04 64.594,244.812C69.429,245.583 70.855,245.154 75.899,244.227C81.024,243.286 93.104,236.582 93.104,236.582Z"/>
        <g id="Eyes1" serif:id="Eyes">
            <path d="M50.656,211.887C51.721,210.042 53.403,209.016 54.408,209.596C55.414,210.177 55.366,212.147 54.3,213.992C53.235,215.837 51.554,216.863 50.548,216.283C49.542,215.702 49.591,213.732 50.656,211.887Z" style="fill:rgb(135,91,82);"/>
            <path d="M67.985,233.115C69.217,233.827 69.903,234.95 69.515,235.622C69.127,236.294 67.812,236.261 66.579,235.55C65.347,234.838 64.661,233.715 65.049,233.043C65.437,232.372 66.752,232.404 67.985,233.115Z" style="fill:rgb(135,91,82);"/>
            <path d="M89.281,232.777C88.201,234.646 86.498,235.686 85.479,235.098C84.46,234.51 84.509,232.515 85.588,230.645C86.668,228.776 88.371,227.736 89.39,228.325C90.409,228.913 90.36,230.908 89.281,232.777Z" style="fill:rgb(135,91,82);"/>
            <path d="M107.985,201.617C108.018,198.473 109.435,195.935 111.149,195.953C112.863,195.97 114.228,198.537 114.195,201.681C114.163,204.825 112.745,207.363 111.031,207.346C109.318,207.328 107.953,204.761 107.985,201.617Z" style="fill:rgb(135,91,82);"/>
            <path d="M102.851,220.42C102.532,221.608 101.895,223.986 100.687,224.936C99.479,225.886 97.7,225.41 96.239,223.744C95.127,222.555 94.366,220.057 93.954,218.036C95.322,216.491 97.23,214.709 98.787,214.235C100.885,213.523 102.664,214 103.235,215.427C103.806,216.854 103.169,219.231 102.851,220.42Z" style="fill:rgb(135,91,82);"/>
            <path d="M65.189,202.249C65.53,201.402 66.213,199.71 67.188,199.119C68.162,198.528 69.429,199.039 70.354,200.396C71.066,201.372 71.401,203.279 71.523,204.804C70.377,205.817 68.813,206.958 67.624,207.167C66.016,207.502 64.749,206.991 64.457,205.889C64.165,204.788 64.847,203.095 65.189,202.249Z" style="fill:rgb(135,91,82);"/>
            <path d="M96.146,188.469C100.68,189.826 103.827,192.711 103.17,194.907C102.512,197.104 98.298,197.786 93.764,196.429C89.23,195.072 86.082,192.188 86.74,189.991C87.397,187.794 91.612,187.112 96.146,188.469Z" style="fill:rgb(135,91,82);"/>
        </g>
    </g>
    <path id="Mouth" d="M65.596,155.72L76.372,173.837L90.892,155.752L108.879,173.787L130.306,155.773" style="fill:none;stroke:black;stroke-width:10px;"/>
</svg>
