<?xml version="1.0" encoding="UTF-8" standalone="no"?>
<!DOCTYPE svg PUBLIC "-//W3C//DTD SVG 1.1//EN" "http://www.w3.org/Graphics/SVG/1.1/DTD/svg11.dtd">
<svg width="100%" height="100%" viewBox="0 0 256 256" version="1.1" xmlns="http://www.w3.org/2000/svg" xmlns:xlink="http://www.w3.org/1999/xlink" xml:space="preserve" xmlns:serif="http://www.serif.com/" style="fill-rule:evenodd;clip-rule:evenodd;stroke-linecap:round;stroke-linejoin:round;stroke-miterlimit:1.5;">
    <rect id="neobread_filament" x="0" y="0" width="256" height="256" style="fill:none;"/>
    <path id="Crust" d="M192.734,26.885C222.946,26.885 247.473,51.413 247.473,81.624C247.473,94.467 243.041,106.282 235.623,115.623L235.623,200.464C235.623,216.277 222.785,229.115 206.972,229.115L48.771,229.115C32.958,229.115 20.12,216.277 20.12,200.464L20.12,115.297C12.857,106.008 8.527,94.318 8.527,81.624C8.527,51.413 33.054,26.885 63.266,26.885L192.734,26.885Z" style="fill:rgb(209,160,132);stroke:black;stroke-width:15px;"/>
    <rect id="Shadow" x="122.332" y="112.959" width="105.66" height="15.248" style="fill:rgb(186,133,109);"/>
    <path id="Slice" d="M42.009,112.691C33.24,105.704 27.616,94.934 27.616,82.861C27.616,61.82 44.698,44.738 65.738,44.738L135.611,44.738C156.652,44.738 173.734,61.82 173.734,82.861C173.734,94.528 168.481,104.979 160.213,111.974L160.213,196.732C160.213,204.964 153.53,211.647 145.299,211.647L56.924,211.647C48.692,211.647 42.009,204.964 42.009,196.732L42.009,112.691Z" style="fill:rgb(252,233,186);"/>
    <g id="Eyes">
        <g id="Right-eye" serif:id="Right eye">
            <circle id="Eye-white" serif:id="Eye white" cx="130.968" cy="115.715" r="23.779" style="fill:white;"/>
            <circle id="Pupil" cx="127.906" cy="112.691" r="20.392"/>
            <path id="Eye-reflection-top" serif:id="Eye reflection top" d="M116.892,101.838C120.92,97.81 126.719,97.069 129.835,100.185C132.95,103.3 132.21,109.1 128.182,113.127C124.154,117.155 118.355,117.896 115.239,114.78C112.124,111.665 112.864,105.865 116.892,101.838Z" style="fill:white;"/>
            <path id="Eye-reflection-bottom" serif:id="Eye reflection bottom" d="M137.831,117.603C137.831,117.603 136.632,121.739 132.389,122.644" style="fill:none;stroke:rgb(151,151,151);stroke-width:8px;"/>
        </g>
        <g id="Left-eye" serif:id="Left eye">
            <circle id="Eye-white1" serif:id="Eye white" cx="70.382" cy="115.715" r="23.779" style="fill:white;"/>
            <circle id="Pupil1" serif:id="Pupil" cx="67.32" cy="112.691" r="20.392"/>
            <path id="Eye-reflection-top1" serif:id="Eye reflection top" d="M56.306,101.838C60.333,97.81 66.133,97.069 69.248,100.185C72.364,103.3 71.623,109.1 67.595,113.127C63.568,117.155 57.768,117.896 54.653,114.78C51.537,111.665 52.278,105.865 56.306,101.838Z" style="fill:white;"/>
            <path id="Eye-reflection-bottom1" serif:id="Eye reflection bottom" d="M77.244,117.603C77.244,117.603 76.045,121.739 71.803,122.644" style="fill:none;stroke:rgb(151,151,151);stroke-width:8px;"/>
        </g>
    </g>
    <path id="Right-hand" serif:id="Right hand" d="M147.779,225.367L128.142,205.73C119.953,197.541 119.953,184.243 128.142,176.054C136.189,168.007 149.255,168.007 157.302,176.054L177.198,195.949" style="fill:rgb(209,160,132);stroke:black;stroke-width:10px;stroke-linecap:butt;"/>
    <path id="Left-hand" serif:id="Left hand" d="M47.21,226.367L66.847,206.73C75.037,198.541 75.037,185.243 66.847,177.054C58.8,169.007 45.734,169.007 37.687,177.054L17.792,196.949" style="fill:rgb(209,160,132);stroke:black;stroke-width:10px;stroke-linecap:butt;"/>
    <g id="Spool">
        <path id="Filament" d="M95.962,118.76C124.034,118.76 146.824,141.55 146.824,169.622C146.824,197.693 124.034,220.483 95.962,220.483C67.891,220.483 45.1,197.693 45.1,169.622C45.1,141.55 67.891,118.76 95.962,118.76ZM95.962,144.191C109.998,144.191 121.393,155.586 121.393,169.622C121.393,183.657 109.998,195.053 95.962,195.053C81.927,195.053 70.531,183.657 70.531,169.622C70.531,155.586 81.927,144.191 95.962,144.191Z" style="fill:rgb(154,88,207);"/>
        <path id="Filament-end" serif:id="Filament end" d="M88.612,116.68C88.612,116.68 172.934,106.235 175.749,203.822" style="fill:none;stroke:rgb(154,88,207);stroke-width:10px;stroke-linecap:butt;"/>
        <circle id="Spool-outline" serif:id="Spool outline" cx="95.962" cy="169.622" r="56.663" style="fill:none;stroke:black;stroke-width:10px;stroke-linejoin:miter;stroke-miterlimit:5;"/>
        <path id="Spool-front" serif:id="Spool front" d="M95.962,112.959C127.235,112.959 152.625,138.349 152.625,169.622C152.625,200.895 127.235,226.284 95.962,226.284C64.689,226.284 39.3,200.895 39.3,169.622C39.3,138.349 64.689,112.959 95.962,112.959ZM95.962,150.833C85.593,150.833 77.174,159.252 77.174,169.622C77.174,179.991 85.593,188.41 95.962,188.41C106.332,188.41 114.75,179.991 114.75,169.622C114.75,159.252 106.332,150.833 95.962,150.833ZM49.25,163.543L68.975,163.543C70.223,157.986 73.145,153.06 77.183,149.322L67.32,132.238C57.617,139.685 50.892,150.822 49.25,163.543ZM77.901,126.113L87.766,143.199C90.357,142.396 93.109,141.963 95.962,141.963C98.815,141.963 101.568,142.396 104.158,143.199L114.023,126.113C108.46,123.798 102.359,122.52 95.962,122.52C89.565,122.52 83.464,123.798 77.901,126.113ZM124.605,132.238L114.741,149.322C118.779,153.06 121.701,157.986 122.95,163.543L142.674,163.543C141.032,150.822 134.307,139.685 124.605,132.238ZM142.674,175.701L122.95,175.701C121.701,181.257 118.779,186.183 114.741,189.921L124.605,207.006C134.307,199.558 141.032,188.421 142.674,175.701ZM114.023,213.131L104.158,196.044C101.568,196.848 98.815,197.28 95.962,197.28C93.109,197.28 90.357,196.848 87.766,196.044L77.901,213.131C83.464,215.445 89.565,216.723 95.962,216.723C102.359,216.723 108.46,215.445 114.023,213.131ZM67.32,207.006L77.183,189.921C73.145,186.183 70.223,181.257 68.975,175.701L49.25,175.701C50.892,188.421 57.617,199.558 67.32,207.006Z" style="fill:rgb(43,43,43);"/>
    </g>
</svg>
