<?xml version="1.0" encoding="UTF-8" standalone="no"?>
<!DOCTYPE svg PUBLIC "-//W3C//DTD SVG 1.1//EN" "http://www.w3.org/Graphics/SVG/1.1/DTD/svg11.dtd">
<svg width="100%" height="100%" viewBox="0 0 256 256" version="1.1" xmlns="http://www.w3.org/2000/svg" xmlns:xlink="http://www.w3.org/1999/xlink" xml:space="preserve" xmlns:serif="http://www.serif.com/" style="fill-rule:evenodd;clip-rule:evenodd;stroke-linecap:round;stroke-linejoin:round;stroke-miterlimit:1.5;">
    <rect id="neobread_grimace" x="0" y="0" width="256" height="256" style="fill:none;"/>
    <path id="Crust" d="M192.734,26.885C222.946,26.885 247.473,51.413 247.473,81.624C247.473,94.467 243.041,106.282 235.623,115.623L235.623,200.464C235.623,216.277 222.785,229.115 206.972,229.115L48.771,229.115C32.958,229.115 20.12,216.277 20.12,200.464L20.12,115.297C12.857,106.008 8.527,94.318 8.527,81.624C8.527,51.413 33.054,26.885 63.266,26.885L192.734,26.885Z" style="fill:rgb(209,160,132);stroke:black;stroke-width:15px;"/>
    <rect id="Shadow" x="122.332" y="112.959" width="105.66" height="15.248" style="fill:rgb(186,133,109);"/>
    <path id="Slice" d="M42.009,112.691C33.24,105.704 27.616,94.934 27.616,82.861C27.616,61.82 44.698,44.738 65.738,44.738L135.611,44.738C156.652,44.738 173.734,61.82 173.734,82.861C173.734,94.528 168.481,104.979 160.213,111.974L160.213,196.732C160.213,204.964 153.53,211.647 145.299,211.647L56.924,211.647C48.692,211.647 42.009,204.964 42.009,196.732L42.009,112.691Z" style="fill:rgb(252,233,186);"/>
    <g id="Face">
        <g id="Mouth">
            <path id="Mouth1" serif:id="Mouth" d="M135.188,163.128C135.188,170.476 129.223,176.441 121.875,176.441L72.856,176.441C65.509,176.441 59.543,170.476 59.543,163.128C59.543,155.781 65.509,149.816 72.856,149.816L121.875,149.816C129.223,149.816 135.188,155.781 135.188,163.128Z" style="fill:rgb(235,235,235);"/>
            <path d="M138.188,163.128C138.188,172.131 130.878,179.441 121.875,179.441L72.856,179.441C63.853,179.441 56.543,172.131 56.543,163.128C56.543,154.125 63.853,146.816 72.856,146.816L121.875,146.816C130.878,146.816 138.188,154.125 138.188,163.128ZM135.188,163.128C135.188,155.781 129.223,149.816 121.875,149.816L72.856,149.816C65.509,149.816 59.543,155.781 59.543,163.128C59.543,170.476 65.509,176.441 72.856,176.441L121.875,176.441C129.223,176.441 135.188,170.476 135.188,163.128Z"/>
            <g id="Mouth-lines" serif:id="Mouth lines">
                <path d="M59.543,163.128L135.188,163.128" style="fill:none;stroke:black;stroke-width:2px;stroke-linecap:butt;"/>
                <path d="M97.537,149.816L97.537,176.441" style="fill:none;stroke:black;stroke-width:2px;stroke-linecap:butt;"/>
                <path d="M84.326,149.816L84.326,176.441" style="fill:none;stroke:black;stroke-width:2px;stroke-linecap:butt;"/>
                <path d="M123.961,149.816L123.961,176.441" style="fill:none;stroke:black;stroke-width:2px;stroke-linecap:butt;"/>
                <path d="M71.114,149.816L71.114,176.441" style="fill:none;stroke:black;stroke-width:2px;stroke-linecap:butt;"/>
                <path d="M110.749,149.816L110.749,176.441" style="fill:none;stroke:black;stroke-width:2px;stroke-linecap:butt;"/>
            </g>
        </g>
        <g id="Eyes">
            <path id="Right-eye" serif:id="Right eye" d="M143.057,111.742L143.057,119.688C143.057,128.036 136.28,134.813 127.933,134.813C119.586,134.813 112.809,128.036 112.809,119.688L112.809,111.742C112.809,103.395 119.586,96.618 127.933,96.618C136.28,96.618 143.057,103.395 143.057,111.742Z"/>
            <path id="Left-eye" serif:id="Left eye" d="M82.953,111.678L82.953,119.624C82.953,127.971 76.176,134.748 67.828,134.748C59.481,134.748 52.704,127.971 52.704,119.624L52.704,111.678C52.704,103.331 59.481,96.554 67.828,96.554C76.176,96.554 82.953,103.331 82.953,111.678Z"/>
        </g>
    </g>
</svg>
