<?xml version="1.0" encoding="UTF-8" standalone="no"?>
<!DOCTYPE svg PUBLIC "-//W3C//DTD SVG 1.1//EN" "http://www.w3.org/Graphics/SVG/1.1/DTD/svg11.dtd">
<svg width="100%" height="100%" viewBox="0 0 256 256" version="1.1" xmlns="http://www.w3.org/2000/svg" xmlns:xlink="http://www.w3.org/1999/xlink" xml:space="preserve" xmlns:serif="http://www.serif.com/" style="fill-rule:evenodd;clip-rule:evenodd;stroke-linecap:round;stroke-linejoin:round;stroke-miterlimit:1.5;">
    <rect id="neobread_hug_potato_heart" x="0" y="0" width="256" height="256" style="fill:none;"/>
    <clipPath id="_clip1">
        <rect x="0" y="0" width="256" height="256"/>
    </clipPath>
    <g clip-path="url(#_clip1)">
        <g id="Right-bread" serif:id="Right bread">
            <path id="Crust" d="M213.578,107.289C231.759,107.289 246.519,122.049 246.519,140.229C246.519,147.958 243.851,155.068 239.388,160.69L239.388,211.745C239.388,221.261 231.662,228.987 222.146,228.987L126.944,228.987C117.428,228.987 109.702,221.261 109.702,211.745L109.702,160.494C105.332,154.904 102.726,147.868 102.726,140.229C102.726,122.049 117.486,107.289 135.666,107.289L213.578,107.289Z" style="fill:rgb(209,160,132);stroke:black;stroke-width:15px;"/>
            <rect id="Shadow" x="171.212" y="159.086" width="60.449" height="9.176" style="fill:rgb(186,133,109);"/>
            <path id="Slice" d="M124.789,159.431C119.798,155.454 116.597,149.324 116.597,142.453C116.597,130.478 126.319,120.756 138.294,120.756L178.062,120.756C190.038,120.756 199.76,130.478 199.76,142.453C199.76,149.094 196.77,155.041 192.065,159.023L192.065,207.263C192.065,211.948 188.261,215.751 183.576,215.751L133.278,215.751C128.593,215.751 124.789,211.948 124.789,207.263L124.789,159.431Z" style="fill:rgb(252,233,186);"/>
            <g id="Face">
                <path id="Mouth" d="M137.069,184.819L143.553,195.722L152.291,184.838L163.116,195.691L176.01,184.851" style="fill:none;stroke:black;stroke-width:6.02px;"/>
                <g id="Eyes">
                    <path id="Right-eye" serif:id="Right eye" d="M182.791,158.299L182.791,162.628C182.791,167.175 179.099,170.867 174.551,170.867C170.003,170.867 166.311,167.175 166.311,162.628L166.311,158.299C166.311,153.751 170.003,150.059 174.551,150.059C179.099,150.059 182.791,153.751 182.791,158.299Z"/>
                    <path id="Left-eye" serif:id="Left eye" d="M150.045,158.263L150.045,162.592C150.045,167.14 146.353,170.832 141.806,170.832C137.258,170.832 133.566,167.14 133.566,162.592L133.566,158.263C133.566,153.716 137.258,150.024 141.806,150.024C146.353,150.024 150.045,153.716 150.045,158.263Z"/>
                </g>
            </g>
        </g>
        <g id="Potato">
            <path id="Body" d="M39.852,174.33C39.852,174.33 34.277,152.02 34.972,143.375C35.656,134.866 35.58,132.388 38.903,124.948C42.226,117.507 50.411,107.647 58.794,104.273C67.176,100.899 77.391,98.122 87.478,100.825C97.565,103.527 109.638,109.867 113.998,119.552C118.359,129.238 114.978,137.498 116.19,143.655C116.962,147.577 118.061,157.719 127.903,165.577C133.204,169.81 141.814,179.431 138.996,193.808C136.178,208.184 131.195,215.459 124.1,220.287C117.15,225.017 100.036,231.158 88.329,228.223C76.622,225.288 67.803,221.342 62.362,215.986C56.92,210.63 48.79,204.736 39.852,174.33Z" style="fill:rgb(184,136,90);"/>
            <path d="M25.299,177.966C25.299,177.966 19.218,152.154 20.02,142.174C20.888,131.375 20.989,128.274 25.207,118.831C29.831,108.477 41.528,95.052 53.193,90.357C64.328,85.876 77.961,82.745 91.36,86.336C105.431,90.106 121.593,99.884 127.676,113.395C130.954,120.677 131.488,127.394 131.265,133.478C131.164,136.226 130.496,138.667 130.908,140.759C131.36,143.056 131.498,149.253 137.262,153.855C145.282,160.258 157.979,174.943 153.716,196.693C149.842,216.455 142.291,226.051 132.54,232.688C123.262,239.002 100.308,246.69 84.682,242.773C69.766,239.034 58.772,233.501 51.839,226.676C45.533,220.469 35.819,213.798 25.46,178.56C25.403,178.363 25.349,178.165 25.299,177.966ZM39.852,174.33C48.79,204.736 56.92,210.63 62.362,215.986C67.803,221.342 76.622,225.288 88.329,228.223C100.036,231.158 117.15,225.017 124.1,220.287C131.195,215.459 136.178,208.184 138.996,193.808C141.814,179.431 133.204,169.81 127.903,165.577C118.061,157.719 116.962,147.577 116.19,143.655C114.978,137.498 118.359,129.238 113.998,119.552C109.638,109.867 97.565,103.527 87.478,100.825C77.391,98.122 67.176,100.899 58.794,104.273C50.411,107.647 42.226,117.507 38.903,124.948C35.58,132.388 35.656,134.866 34.972,143.375C34.277,152.02 39.852,174.33 39.852,174.33Z"/>
            <g id="Eyes1" serif:id="Eyes">
                <path d="M97.96,116.181C100.497,118.717 101.433,121.899 100.051,123.281C98.668,124.663 95.487,123.727 92.951,121.191C90.415,118.655 89.479,115.473 90.861,114.091C92.243,112.709 95.424,113.645 97.96,116.181Z" style="fill:rgb(135,91,82);"/>
                <path d="M55.893,135.109C54.199,136.803 52.075,137.429 51.151,136.505C50.228,135.582 50.853,133.457 52.547,131.763C54.241,130.069 56.366,129.444 57.29,130.367C58.213,131.29 57.587,133.415 55.893,135.109Z" style="fill:rgb(135,91,82);"/>
                <path d="M47.165,169.884C44.596,167.315 43.647,164.092 45.047,162.692C46.448,161.291 49.671,162.24 52.24,164.809C54.809,167.379 55.758,170.601 54.358,172.002C52.957,173.402 49.734,172.453 47.165,169.884Z" style="fill:rgb(135,91,82);"/>
                <path d="M89.682,213.874C94.78,215.297 98.29,218.708 97.514,221.487C96.739,224.265 91.97,225.366 86.872,223.944C81.774,222.521 78.265,219.11 79.041,216.331C79.816,213.553 84.585,212.451 89.682,213.874Z" style="fill:rgb(135,91,82);"/>
                <path d="M61.346,197.334C59.552,196.298 55.964,194.226 54.945,191.848C53.926,189.469 55.477,186.784 58.821,185.134C61.24,183.845 65.632,183.695 69.098,183.906C71.014,186.803 73.081,190.681 73.174,193.42C73.417,197.142 71.867,199.827 69.297,200.134C66.728,200.441 63.14,198.369 61.346,197.334Z" style="fill:rgb(135,91,82);"/>
                <path d="M107.301,144.011C108.529,144.935 110.983,146.783 111.519,148.625C112.055,150.467 110.673,152.305 108.062,153.218C106.166,153.949 102.92,153.664 100.388,153.197C99.238,150.893 98.066,147.852 98.244,145.828C98.399,143.067 99.782,141.23 101.701,141.235C103.619,141.24 106.074,143.088 107.301,144.011Z" style="fill:rgb(135,91,82);"/>
                <path d="M116.22,200.351C112.038,207.133 105.976,210.993 102.691,208.967C99.405,206.942 100.133,199.791 104.314,193.01C108.496,186.229 114.558,182.368 117.843,184.394C121.128,186.42 120.401,193.57 116.22,200.351Z" style="fill:rgb(135,91,82);"/>
            </g>
            <g id="Face1" serif:id="Face">
                <path id="Mouth1" serif:id="Mouth" d="M98.006,162.817L92.226,172.564L84.224,162.956L74.302,172.756L62.535,162.946" style="fill:none;stroke:black;stroke-width:6.5px;"/>
                <g id="Eyes2" serif:id="Eyes">
                    <path id="Right-eye1" serif:id="Right eye" d="M88.644,138.821C89.973,142.709 93.195,143.937 95.638,143.959C98.386,143.984 101.342,143.145 103.216,138.484" style="fill:none;stroke:black;stroke-width:7px;"/>
                    <path id="Left-eye1" serif:id="Left eye" d="M56.71,138.821C58.038,142.709 61.261,143.937 63.704,143.959C66.452,143.984 69.408,143.145 71.282,138.484" style="fill:none;stroke:black;stroke-width:7px;"/>
                </g>
            </g>
        </g>
        <path id="Arm" d="M192.517,212.327L138.382,212.327C130.153,212.327 123.473,205.646 123.473,197.418C123.473,189.332 130.037,182.768 138.122,182.768L192.517,182.768" style="fill:rgb(209,160,132);stroke:black;stroke-width:10px;stroke-linecap:butt;"/>
        <path id="Heart" d="M100.241,60.968L90.15,50.877C80.47,41.197 80.47,25.478 90.15,15.797C99.831,6.116 115.55,6.116 125.231,15.797L128,18.566L130.769,15.797C140.45,6.116 156.169,6.116 165.85,15.797C175.53,25.478 175.53,41.197 165.85,50.877L155.759,60.968C155.367,61.518 154.923,62.043 154.43,62.536L136.889,80.076C134.439,82.527 131.215,83.737 128,83.706C124.785,83.737 121.561,82.527 119.111,80.076L101.57,62.536C101.077,62.043 100.633,61.518 100.241,60.968Z" style="fill:rgb(239,124,148);stroke:black;stroke-width:15px;stroke-linejoin:miter;stroke-miterlimit:5;"/>
    </g>
</svg>
