<?xml version="1.0" encoding="UTF-8" standalone="no"?>
<!DOCTYPE svg PUBLIC "-//W3C//DTD SVG 1.1//EN" "http://www.w3.org/Graphics/SVG/1.1/DTD/svg11.dtd">
<svg width="100%" height="100%" viewBox="0 0 256 256" version="1.1" xmlns="http://www.w3.org/2000/svg" xmlns:xlink="http://www.w3.org/1999/xlink" xml:space="preserve" xmlns:serif="http://www.serif.com/" style="fill-rule:evenodd;clip-rule:evenodd;stroke-linecap:round;stroke-linejoin:round;stroke-miterlimit:1.5;">
    <rect id="neobread_fingerguns" x="0" y="0" width="256" height="256" style="fill:none;"/>
    <path id="Crust" d="M192.734,26.885C222.946,26.885 247.473,51.413 247.473,81.624C247.473,94.467 243.041,106.282 235.623,115.623L235.623,200.464C235.623,216.277 222.785,229.115 206.972,229.115L48.771,229.115C32.958,229.115 20.12,216.277 20.12,200.464L20.12,115.297C12.857,106.008 8.527,94.318 8.527,81.624C8.527,51.413 33.054,26.885 63.266,26.885L192.734,26.885Z" style="fill:rgb(209,160,132);stroke:black;stroke-width:15px;"/>
    <rect id="Shadow" x="122.332" y="112.959" width="105.66" height="15.248" style="fill:rgb(186,133,109);"/>
    <path id="Slice" d="M42.009,112.691C33.24,105.704 27.616,94.934 27.616,82.861C27.616,61.82 44.698,44.738 65.738,44.738L135.611,44.738C156.652,44.738 173.734,61.82 173.734,82.861C173.734,94.528 168.481,104.979 160.213,111.974L160.213,196.732C160.213,204.964 153.53,211.647 145.299,211.647L56.924,211.647C48.692,211.647 42.009,204.964 42.009,196.732L42.009,112.691Z" style="fill:rgb(252,233,186);"/>
    <g id="Face">
        <path id="Mouth" d="M65.596,155.72L76.372,173.837L90.892,155.752L108.879,173.787L130.306,155.773" style="fill:none;stroke:black;stroke-width:10px;"/>
        <g id="Eyes">
            <path id="Right-eye" serif:id="Right eye" d="M114.656,120.47C114.656,120.47 123.038,106.011 141.344,112.751" style="fill:none;stroke:black;stroke-width:12px;"/>
            <path id="Left-eye" serif:id="Left eye" d="M82.953,111.678L82.953,119.624C82.953,127.971 76.176,134.748 67.828,134.748C59.481,134.748 52.704,127.971 52.704,119.624L52.704,111.678C52.704,103.331 59.481,96.554 67.828,96.554C76.176,96.554 82.953,103.331 82.953,111.678Z"/>
        </g>
    </g>
    <path id="Right-hand" serif:id="Right hand" d="M129.129,218.133L129.129,235.873C129.129,242.81 134.761,248.443 141.699,248.443L169.435,248.443C176.372,248.443 182.005,242.81 182.005,235.873L182.005,210.732C182.005,204.999 178.159,200.157 172.908,198.648L172.908,187.053C172.908,182.384 169.118,178.595 164.45,178.595C159.782,178.595 155.992,182.384 155.992,187.053L155.992,198.161L109.472,198.161C103.961,198.161 99.486,202.636 99.486,208.147C99.486,213.659 103.961,218.133 109.472,218.133L129.129,218.133Z" style="fill:rgb(186,133,109);stroke:black;stroke-width:10px;"/>
    <path id="Left-hand" serif:id="Left hand" d="M34.726,218.133L34.726,235.873C34.726,242.81 40.359,248.443 47.296,248.443L75.032,248.443C81.97,248.443 87.602,242.81 87.602,235.873L87.602,210.732C87.602,204.999 83.756,200.157 78.506,198.648L78.506,187.053C78.506,182.384 74.716,178.595 70.048,178.595C65.379,178.595 61.59,182.384 61.59,187.053L61.59,198.161L15.069,198.161C9.558,198.161 5.083,202.636 5.083,208.147C5.083,213.659 9.558,218.133 15.069,218.133L34.726,218.133Z" style="fill:rgb(186,133,109);stroke:black;stroke-width:10px;"/>
</svg>
