<?xml version="1.0" encoding="UTF-8" standalone="no"?>
<!DOCTYPE svg PUBLIC "-//W3C//DTD SVG 1.1//EN" "http://www.w3.org/Graphics/SVG/1.1/DTD/svg11.dtd">
<svg width="100%" height="100%" viewBox="0 0 256 256" version="1.1" xmlns="http://www.w3.org/2000/svg" xmlns:xlink="http://www.w3.org/1999/xlink" xml:space="preserve" xmlns:serif="http://www.serif.com/" style="fill-rule:evenodd;clip-rule:evenodd;stroke-linecap:round;stroke-linejoin:round;stroke-miterlimit:1.5;">
    <rect id="neobread_fox_ears" x="0" y="0" width="256" height="256" style="fill:none;"/>
    <path id="Crust" d="M192.734,26.885C222.946,26.885 247.473,51.413 247.473,81.624C247.473,94.467 243.041,106.282 235.623,115.623L235.623,200.464C235.623,216.277 222.785,229.115 206.972,229.115L48.771,229.115C32.958,229.115 20.12,216.277 20.12,200.464L20.12,115.297C12.857,106.008 8.527,94.318 8.527,81.624C8.527,51.413 33.054,26.885 63.266,26.885L192.734,26.885Z" style="fill:rgb(209,160,132);stroke:black;stroke-width:15px;"/>
    <rect id="Shadow" x="122.332" y="112.959" width="105.66" height="15.248" style="fill:rgb(186,133,109);"/>
    <path id="Slice" d="M42.009,112.691C33.24,105.704 27.616,94.934 27.616,82.861C27.616,61.82 44.698,44.738 65.738,44.738L135.611,44.738C156.652,44.738 173.734,61.82 173.734,82.861C173.734,94.528 168.481,104.979 160.213,111.974L160.213,196.732C160.213,204.964 153.53,211.647 145.299,211.647L56.924,211.647C48.692,211.647 42.009,204.964 42.009,196.732L42.009,112.691Z" style="fill:rgb(252,233,186);"/>
    <g id="Face">
        <path id="Mouth" d="M65.596,155.72L76.372,173.837L90.892,155.752L108.879,173.787L130.306,155.773" style="fill:none;stroke:black;stroke-width:10px;"/>
        <g id="Eyes">
            <path id="Right-eye" serif:id="Right eye" d="M143.057,111.742L143.057,119.688C143.057,128.036 136.28,134.813 127.933,134.813C119.586,134.813 112.809,128.036 112.809,119.688L112.809,111.742C112.809,103.395 119.586,96.618 127.933,96.618C136.28,96.618 143.057,103.395 143.057,111.742Z"/>
            <path id="Left-eye" serif:id="Left eye" d="M82.953,111.678L82.953,119.624C82.953,127.971 76.176,134.748 67.828,134.748C59.481,134.748 52.704,127.971 52.704,119.624L52.704,111.678C52.704,103.331 59.481,96.554 67.828,96.554C76.176,96.554 82.953,103.331 82.953,111.678Z"/>
        </g>
    </g>
    <g id="Right-ear" serif:id="Right ear">
        <path id="Inner" d="M130.428,36.216C130.428,36.216 150.312,19.368 158.862,14.229C167.621,8.964 186.215,-0.921 191.21,0.967C201.794,4.969 187.776,64.029 173.398,78.067C166.672,63.007 158.118,51.522 130.428,36.216Z" style="fill:rgb(242,221,193);"/>
        <path id="Outer" d="M128,35.204C128,35.204 148.84,17.553 157.495,12.593C166.15,7.633 182.552,-2.422 190.621,0.534C195.636,2.371 194.819,6.971 194.819,6.971C193.727,5.893 193.267,5.646 190.338,5.045C187.408,4.444 173.926,11.736 167.142,20.798C160.359,29.86 158.61,32.523 154.531,35.329C150.453,38.136 150.429,40.318 128,35.204Z" style="fill:rgb(73,73,73);"/>
        <path id="Fluff" d="M139.892,45.266C139.892,45.266 151.112,30.753 157.411,37.088C160.614,40.31 154.914,52.26 154.914,52.26C154.914,52.26 172.259,49.588 175.954,53.65C179.649,57.713 173.44,78.067 173.44,78.067C170.813,71.579 166.568,65.237 161.731,59.876C154.646,52.022 146.29,46.275 139.892,45.266Z" style="fill:rgb(247,150,91);"/>
    </g>
    <path id="Left-ear" serif:id="Left ear" d="M16.845,68.712C16.845,68.712 -3.052,7.29 11.671,2.13C26.616,-3.108 55.25,37.272 55.25,37.272C36.176,33.142 26.37,50.445 16.845,68.712Z" style="fill:rgb(73,73,73);"/>
    <path id="Fox-hair" serif:id="Fox hair" d="M139.621,45.266L78.892,45.266C78.892,45.266 45.474,44.505 34.203,43.804C27.017,43.358 12.841,40.169 12.841,40.169C12.841,40.169 22.053,26.844 46.027,34.182C43.873,32.766 40.644,31.012 38.172,27.199C35.699,23.385 33.023,17.183 33.023,17.183C41.036,16.431 63.551,6.139 72.351,30.502C69.365,21.811 70.342,14.88 76.83,14.613C76.83,14.613 90.223,32.103 97.322,34.276C95.169,32.86 91.939,31.107 89.467,27.293C86.995,23.479 84.318,17.277 84.318,17.277C92.331,16.525 124.279,6.139 133.08,30.502C130.094,21.811 131.07,14.88 137.559,14.613C137.559,14.613 146.814,31.86 152.539,33.916C150.95,36.073 139.621,45.266 139.621,45.266Z" style="fill:rgb(247,150,91);"/>
</svg>
