<?xml version="1.0" encoding="UTF-8" standalone="no"?>
<!DOCTYPE svg PUBLIC "-//W3C//DTD SVG 1.1//EN" "http://www.w3.org/Graphics/SVG/1.1/DTD/svg11.dtd">
<svg width="100%" height="100%" viewBox="0 0 256 256" version="1.1" xmlns="http://www.w3.org/2000/svg" xmlns:xlink="http://www.w3.org/1999/xlink" xml:space="preserve" xmlns:serif="http://www.serif.com/" style="fill-rule:evenodd;clip-rule:evenodd;stroke-linecap:round;stroke-linejoin:round;stroke-miterlimit:10;">
    <rect id="neobread_box" x="0" y="0" width="256" height="256" style="fill:none;"/>
    <path id="Box-outline" serif:id="Box outline" d="M36.534,163.532L11.471,163.532L36.534,105.415L220.726,105.415L244.529,163.532L219.668,163.532L219.668,229.561L36.534,229.561L36.534,163.532Z" style="fill:none;stroke:black;stroke-width:15px;"/>
    <g id="Bread">
        <path id="Crust" d="M165.062,28.617C183.243,28.618 198.003,43.378 198.003,61.558C198.003,69.287 195.335,76.397 190.872,82.018L190.872,133.074C190.872,142.59 183.146,150.316 173.63,150.316L78.428,150.316C68.912,150.316 61.186,142.59 61.186,133.074L61.186,81.822C56.816,76.232 54.21,69.197 54.21,61.558C54.21,43.378 68.97,28.618 87.151,28.617L165.062,28.617Z" style="fill:rgb(209,160,132);stroke:black;stroke-width:15px;stroke-miterlimit:1.5;"/>
        <rect id="Shadow" x="122.696" y="80.415" width="60.449" height="9.176" style="fill:rgb(186,133,109);"/>
        <path id="Slice" d="M76.273,80.76C71.282,76.783 68.081,70.653 68.081,63.782C68.081,51.807 77.803,42.084 89.779,42.084L129.547,42.084C141.522,42.084 151.244,51.807 151.244,63.782C151.244,70.422 148.254,76.37 143.549,80.352L143.549,128.592C143.549,133.277 139.745,137.08 135.06,137.08L84.762,137.08C80.077,137.08 76.273,133.277 76.273,128.592L76.273,80.76Z" style="fill:rgb(252,233,186);"/>
        <g id="Face">
            <g id="Eyes">
                <path id="Right-eye" serif:id="Right eye" d="M134.275,79.627L134.275,83.957C134.275,88.504 130.583,92.196 126.035,92.196C121.488,92.196 117.795,88.504 117.795,83.957L117.795,79.627C117.795,75.08 121.488,71.388 126.035,71.388C130.583,71.388 134.275,75.08 134.275,79.627Z"/>
                <path id="Left-eye" serif:id="Left eye" d="M101.53,79.592L101.53,83.921C101.53,88.469 97.838,92.161 93.29,92.161C88.742,92.161 85.05,88.469 85.05,83.921L85.05,79.592C85.05,75.045 88.742,71.353 93.29,71.353C97.838,71.353 101.53,75.045 101.53,79.592Z"/>
            </g>
        </g>
    </g>
    <g id="Box">
        <path id="Left-flap" serif:id="Left flap" d="M112.26,105.415L87.803,163.532L12.077,163.532L36.534,105.415L112.26,105.415Z" style="fill:rgb(154,117,79);"/>
        <rect id="Right-face" serif:id="Right face" x="144.524" y="105.415" width="75.144" height="124.146" style="fill:rgb(140,105,71);"/>
        <rect id="Label" x="177.66" y="205.029" width="33.374" height="16.599" style="fill:rgb(231,220,201);"/>
        <g id="Lines">
            <rect x="152.856" y="130.989" width="46.863" height="8.474" style="fill:rgb(55,41,28);"/>
            <rect x="152.856" y="147.518" width="46.863" height="8.474" style="fill:rgb(55,41,28);"/>
        </g>
        <rect id="Left-face" serif:id="Left face" x="36.534" y="105.415" width="107.99" height="124.146" style="fill:rgb(234,203,153);"/>
        <g id="This-way-up-mark" serif:id="This way up mark">
            <rect id="Line" x="44.72" y="213.294" width="49.88" height="8.334" style="fill:rgb(140,105,71);"/>
            <path id="Right-arrow" serif:id="Right arrow" d="M78.099,180.003L71.775,180.003L82.166,163.532L92.558,180.003L86.234,180.003L86.234,205.029L78.099,205.029L78.099,180.003Z" style="fill:rgb(140,105,71);"/>
            <path id="Left-arrow" serif:id="Left arrow" d="M52.818,180.003L46.494,180.003L56.885,163.532L67.276,180.003L60.952,180.003L60.952,205.029L52.818,205.029L52.818,180.003Z" style="fill:rgb(140,105,71);"/>
        </g>
        <path id="Right-flap" serif:id="Right flap" d="M220.712,105.415L244.529,163.532L168.197,163.532L144.381,105.415L220.712,105.415Z" style="fill:rgb(234,203,153);"/>
    </g>
    <g id="Hands">
        <g id="Right-hand" serif:id="Right hand">
            <path id="Outline" d="M136.168,117.028L136.168,108.701L117.165,108.701L117.165,117.028C117.165,121.624 121.265,125.355 126.314,125.355L127.019,125.355C132.069,125.355 136.168,121.624 136.168,117.028Z" style="fill:rgb(209,160,132);"/>
            <path d="M146.168,117.028C146.168,126.875 137.838,135.355 127.019,135.355L126.314,135.355C115.495,135.355 107.165,126.875 107.165,117.028L107.165,108.701C107.165,103.179 111.642,98.701 117.165,98.701L136.168,98.701C141.691,98.701 146.168,103.179 146.168,108.701L146.168,117.028ZM136.168,117.028L136.168,108.701L117.165,108.701L117.165,117.028C117.165,121.624 121.265,125.355 126.314,125.355L127.019,125.355C132.069,125.355 136.168,121.624 136.168,117.028Z"/>
            <path id="Fill" d="M136.168,117.499L136.168,98.712L117.165,98.712L117.165,117.499C117.165,122.743 121.422,127.001 126.667,127.001C131.911,127.001 136.168,122.743 136.168,117.499Z" style="fill:rgb(209,160,132);"/>
        </g>
        <g id="Left-hand" serif:id="Left hand">
            <path id="Outline1" serif:id="Outline" d="M95.133,117.028L95.133,108.701L76.129,108.701L76.129,117.028C76.129,121.624 80.229,125.355 85.279,125.355L85.983,125.355C91.033,125.355 95.133,121.624 95.133,117.028Z" style="fill:rgb(209,160,132);"/>
            <path d="M105.133,117.028C105.133,126.875 96.803,135.355 85.983,135.355L85.279,135.355C74.459,135.355 66.129,126.875 66.129,117.028L66.129,108.701C66.129,103.179 70.606,98.701 76.129,98.701L95.133,98.701C100.656,98.701 105.133,103.179 105.133,108.701L105.133,117.028ZM95.133,117.028L95.133,108.701L76.129,108.701L76.129,117.028C76.129,121.624 80.229,125.355 85.279,125.355L85.983,125.355C91.033,125.355 95.133,121.624 95.133,117.028Z"/>
            <path id="Fill1" serif:id="Fill" d="M95.133,117.499L95.133,98.712L76.129,98.712L76.129,117.499C76.129,122.743 80.387,127.001 85.631,127.001C90.875,127.001 95.133,122.743 95.133,117.499Z" style="fill:rgb(209,160,132);"/>
        </g>
    </g>
</svg>
