<?xml version="1.0" encoding="UTF-8" standalone="no"?>
<!DOCTYPE svg PUBLIC "-//W3C//DTD SVG 1.1//EN" "http://www.w3.org/Graphics/SVG/1.1/DTD/svg11.dtd">
<svg width="100%" height="100%" viewBox="0 0 256 256" version="1.1" xmlns="http://www.w3.org/2000/svg" xmlns:xlink="http://www.w3.org/1999/xlink" xml:space="preserve" xmlns:serif="http://www.serif.com/" style="fill-rule:evenodd;clip-rule:evenodd;stroke-linecap:round;stroke-linejoin:round;stroke-miterlimit:1.5;">
    <rect id="neobread_hug_cat_heart" x="0" y="0" width="256" height="256" style="fill:none;"/>
    <clipPath id="_clip1">
        <rect x="0" y="0" width="256" height="256"/>
    </clipPath>
    <g clip-path="url(#_clip1)">
        <g id="Right-bread" serif:id="Right bread">
            <path id="Crust" d="M213.578,107.289C231.759,107.289 246.519,122.049 246.519,140.229C246.519,147.958 243.851,155.068 239.388,160.69L239.388,211.745C239.388,221.261 231.662,228.987 222.146,228.987L126.944,228.987C117.428,228.987 109.702,221.261 109.702,211.745L109.702,160.494C105.332,154.904 102.726,147.868 102.726,140.229C102.726,122.049 117.486,107.289 135.666,107.289L213.578,107.289Z" style="fill:rgb(209,160,132);stroke:black;stroke-width:15px;"/>
            <rect id="Shadow" x="171.212" y="159.086" width="60.449" height="9.176" style="fill:rgb(186,133,109);"/>
            <path id="Slice" d="M124.789,159.431C119.798,155.454 116.597,149.324 116.597,142.453C116.597,130.478 126.319,120.756 138.294,120.756L178.062,120.756C190.038,120.756 199.76,130.478 199.76,142.453C199.76,149.094 196.77,155.041 192.065,159.023L192.065,207.263C192.065,211.948 188.261,215.751 183.576,215.751L133.278,215.751C128.593,215.751 124.789,211.948 124.789,207.263L124.789,159.431Z" style="fill:rgb(252,233,186);"/>
            <g id="Face">
                <path id="Mouth" d="M137.069,184.819L143.553,195.722L152.291,184.838L163.116,195.691L176.01,184.851" style="fill:none;stroke:black;stroke-width:6.02px;"/>
                <g id="Eyes">
                    <path id="Right-eye" serif:id="Right eye" d="M182.791,158.299L182.791,162.628C182.791,167.175 179.099,170.867 174.551,170.867C170.003,170.867 166.311,167.175 166.311,162.628L166.311,158.299C166.311,153.751 170.003,150.059 174.551,150.059C179.099,150.059 182.791,153.751 182.791,158.299Z"/>
                    <path id="Left-eye" serif:id="Left eye" d="M150.045,158.263L150.045,162.592C150.045,167.14 146.353,170.832 141.806,170.832C137.258,170.832 133.566,167.14 133.566,162.592L133.566,158.263C133.566,153.716 137.258,150.024 141.806,150.024C146.353,150.024 150.045,153.716 150.045,158.263Z"/>
                </g>
            </g>
        </g>
        <g id="Cat">
            <path d="M55.03,123.646C55.03,123.646 65.832,118.741 77.148,118.986C88.464,119.231 98.911,122.888 98.911,122.888C101.856,121.849 124.695,112.279 124.695,112.279C124.695,112.279 133.501,110.285 133.649,119.14C133.797,127.996 133.602,154.917 133.602,154.917C133.602,154.917 141.777,170.014 140.995,184.881C140.212,199.749 131.145,212.266 126.657,216.414C122.168,220.561 108.955,226.396 101.25,226.29C93.545,226.185 48.289,226.578 48.289,226.578C48.289,226.578 34.672,226.215 26.017,215.113C17.363,204.011 19.045,199.075 19.045,195.707C19.045,192.339 18.984,172.877 18.984,172.877C18.984,172.877 20.045,162.781 21.534,159.592C23.023,156.404 24.726,152.777 24.726,152.777L19.772,121.806C19.772,121.806 17.946,116.606 21.081,113.885C24.215,111.164 29.344,112.845 29.344,112.845L55.03,123.646Z" style="fill:rgb(255,201,92);"/>
            <path d="M55.435,107.544C60.889,105.806 69.073,103.808 77.473,103.99C85.516,104.164 93.198,105.762 98.179,107.055C105.459,104.088 118.898,98.444 118.898,98.444C119.701,98.108 120.533,97.842 121.382,97.649C121.382,97.649 134.021,95.485 141.857,102.761C145.302,105.96 148.512,110.799 148.647,118.89C148.764,125.889 148.67,144.058 148.623,151.632C151.503,158.156 156.693,172 155.974,185.67C154.936,205.386 142.789,221.93 136.837,227.43C130.517,233.27 111.893,241.438 101.044,241.289C93.388,241.184 48.42,241.578 48.42,241.578C48.243,241.579 48.066,241.577 47.889,241.573C47.889,241.573 27.266,241.112 14.187,224.335C1.44,207.983 4.045,200.668 4.045,195.707C4.045,192.346 3.984,172.924 3.984,172.924C3.983,172.385 4.01,171.846 4.066,171.31C4.066,171.31 5.909,157.6 7.943,153.245C8.354,152.364 8.782,151.45 9.185,150.589C9.185,150.589 5.073,124.882 5.076,124.892C4.617,123.031 4.071,119.999 4.305,116.764C4.671,111.721 6.7,106.505 11.248,102.557C15.217,99.112 20.077,97.58 24.623,97.361C29.684,97.118 34.015,98.591 34.015,98.591C34.402,98.718 34.783,98.86 35.158,99.018L55.435,107.544ZM55.03,123.646L29.344,112.845C29.344,112.845 24.215,111.164 21.081,113.885C17.946,116.606 19.772,121.806 19.772,121.806L24.726,152.777C24.726,152.777 23.023,156.404 21.534,159.592C20.045,162.781 18.984,172.877 18.984,172.877C18.984,172.877 19.045,192.339 19.045,195.707C19.045,199.075 17.363,204.011 26.017,215.113C34.672,226.215 48.289,226.578 48.289,226.578C48.289,226.578 93.545,226.185 101.25,226.29C108.955,226.396 122.168,220.561 126.657,216.414C131.145,212.266 140.212,199.749 140.995,184.881C141.777,170.014 133.602,154.917 133.602,154.917C133.602,154.917 133.797,127.996 133.649,119.14C133.501,110.285 124.695,112.279 124.695,112.279C124.695,112.279 101.856,121.849 98.911,122.888C98.911,122.888 88.464,119.231 77.148,118.986C65.832,118.741 55.03,123.646 55.03,123.646Z"/>
            <g id="Face1" serif:id="Face">
                <g id="Whiskers">
                    <path d="M46.291,188.137C45.222,190.207 42.674,191.019 40.605,189.95L27.059,182.952C24.989,181.883 24.177,179.335 25.246,177.266C26.315,175.196 28.863,174.384 30.932,175.453L44.479,182.451C46.548,183.52 47.36,186.068 46.291,188.137Z" style="fill:rgb(142,94,49);"/>
                    <path d="M119.742,189.952C120.811,192.021 123.359,192.833 125.428,191.765L136.747,185.917C138.816,184.848 139.629,182.3 138.56,180.231C137.491,178.162 134.943,177.349 132.873,178.418L121.554,184.266C119.485,185.335 118.673,187.883 119.742,189.952Z" style="fill:rgb(142,94,49);"/>
                    <path d="M46.345,197.339C47.475,199.376 46.739,201.946 44.702,203.076L31.37,210.474C29.333,211.604 26.762,210.868 25.632,208.831C24.502,206.795 25.238,204.224 27.275,203.094L40.608,195.696C42.644,194.566 45.215,195.302 46.345,197.339Z" style="fill:rgb(142,94,49);"/>
                    <path d="M119.688,199.154C118.558,201.19 119.294,203.761 121.33,204.891L127.659,208.403C129.696,209.533 132.267,208.797 133.397,206.76C134.527,204.723 133.79,202.153 131.754,201.023L125.425,197.511C123.389,196.381 120.818,197.117 119.688,199.154Z" style="fill:rgb(142,94,49);"/>
                </g>
                <path id="Mouth1" serif:id="Mouth" d="M65.241,185.396L79.833,200.335L93.119,186.225L103.52,199.452L110.275,185.885" style="fill:none;stroke:black;stroke-width:8px;stroke-miterlimit:5;"/>
                <g id="Eyes1" serif:id="Eyes">
                    <path id="Right-eye1" serif:id="Right eye" d="M99.796,155.752C101.865,161.808 106.884,163.722 110.689,163.756C114.968,163.794 119.573,162.487 122.492,155.228" style="fill:none;stroke:black;stroke-width:10px;"/>
                    <path id="Left-eye1" serif:id="Left eye" d="M54.342,155.752C56.411,161.808 61.43,163.722 65.235,163.756C69.515,163.794 74.12,162.487 77.039,155.228" style="fill:none;stroke:black;stroke-width:10px;"/>
                </g>
            </g>
        </g>
        <path id="Arm" d="M192.517,212.327L138.382,212.327C130.153,212.327 123.473,205.646 123.473,197.418C123.473,189.332 130.037,182.768 138.122,182.768L192.517,182.768" style="fill:rgb(209,160,132);stroke:black;stroke-width:10px;stroke-linecap:butt;"/>
        <path id="Heart" d="M100.241,60.968L90.15,50.877C80.47,41.197 80.47,25.478 90.15,15.797C99.831,6.116 115.55,6.116 125.231,15.797L128,18.566L130.769,15.797C140.45,6.116 156.169,6.116 165.85,15.797C175.53,25.478 175.53,41.197 165.85,50.877L155.759,60.968C155.367,61.518 154.923,62.043 154.43,62.536L136.889,80.076C134.439,82.527 131.215,83.737 128,83.706C124.785,83.737 121.561,82.527 119.111,80.076L101.57,62.536C101.077,62.043 100.633,61.518 100.241,60.968Z" style="fill:rgb(239,124,148);stroke:black;stroke-width:15px;stroke-linejoin:miter;stroke-miterlimit:5;"/>
    </g>
</svg>
