<?xml version="1.0" encoding="UTF-8" standalone="no"?>
<!DOCTYPE svg PUBLIC "-//W3C//DTD SVG 1.1//EN" "http://www.w3.org/Graphics/SVG/1.1/DTD/svg11.dtd">
<svg width="100%" height="100%" viewBox="0 0 256 256" version="1.1" xmlns="http://www.w3.org/2000/svg" xmlns:xlink="http://www.w3.org/1999/xlink" xml:space="preserve" xmlns:serif="http://www.serif.com/" style="fill-rule:evenodd;clip-rule:evenodd;stroke-linecap:round;stroke-linejoin:round;stroke-miterlimit:1.5;">
    <rect id="neobread_hat_tip" x="0" y="0" width="256" height="256" style="fill:none;"/>
    <path id="Crust" d="M184.575,63.21C210.979,63.21 232.415,84.646 232.415,111.05C232.415,122.274 228.541,132.6 222.059,140.764L222.059,214.911C222.059,228.731 210.839,239.951 197.019,239.951L58.757,239.951C44.937,239.951 33.717,228.731 33.717,214.911L33.717,140.479C27.37,132.361 23.585,122.144 23.585,111.05C23.585,84.646 45.021,63.21 71.425,63.21L184.575,63.21Z" style="fill:rgb(209,160,132);stroke:black;stroke-width:15px;"/>
    <rect id="Shadow" x="123.047" y="138.435" width="92.343" height="13.326" style="fill:rgb(186,133,109);"/>
    <path id="Slice" d="M52.848,138.201C45.184,132.094 40.268,122.682 40.268,112.131C40.268,93.742 55.197,78.813 73.586,78.813L134.652,78.813C153.04,78.813 167.97,93.742 167.97,112.131C167.97,122.328 163.379,131.461 156.153,137.574L156.153,211.65C156.153,218.844 150.312,224.684 143.118,224.684L65.882,224.684C58.688,224.684 52.848,218.844 52.848,211.65L52.848,138.201Z" style="fill:rgb(252,233,186);"/>
    <g id="Face">
        <path id="Mouth" d="M73.461,175.807L82.879,191.64L95.569,175.835L111.289,191.596L130.015,175.853" style="fill:none;stroke:black;stroke-width:8.74px;"/>
        <g id="Eyes">
            <path id="Right-eye" serif:id="Right eye" d="M116.156,146.045C116.156,146.045 123.596,133.212 139.844,139.194" style="fill:none;stroke:black;stroke-width:12px;"/>
            <path id="Left-eye" serif:id="Left eye" d="M88.63,137.316L88.63,144.26C88.63,151.555 82.708,157.478 75.412,157.478C68.117,157.478 62.195,151.555 62.195,144.26L62.195,137.316C62.195,130.02 68.117,124.098 75.412,124.098C82.708,124.098 88.63,130.02 88.63,137.316Z"/>
        </g>
    </g>
    <g id="Hat">
        <path id="Outline" d="M100.04,41.398C102.791,38.46 107.017,34.422 111.71,31.623C119.58,26.931 125.935,21.173 132.767,25.667C137.596,28.844 137.964,30.215 139.009,35.046C140.054,39.877 138.101,43.113 141.528,45.178C144.955,47.244 148.115,46.335 150.183,44.982C152.251,43.629 155.802,44.055 158.937,46.04C162.072,48.026 162.872,52.141 163.518,55.685C164.067,58.694 160.908,70.61 155.698,80.909C169.16,87.613 182.297,92.43 193.881,95.347C196.313,95.886 198.216,97.78 198.764,100.21C199.312,102.64 198.407,105.168 196.441,106.698C175.394,122.852 137.584,119.516 105.216,96.87C72.936,74.286 56.541,39.824 63.959,14.256C64.672,11.853 66.721,10.085 69.203,9.732C71.685,9.378 74.146,10.503 75.502,12.612C81.819,21.829 90.116,31.733 100.04,41.398Z" style="fill:none;stroke:black;stroke-width:15px;"/>
        <path id="Brim" d="M75.502,12.612C74.146,10.503 71.685,9.378 69.203,9.732C66.721,10.085 64.672,11.853 63.959,14.256C56.541,39.824 72.936,74.286 105.216,96.87C137.584,119.516 175.394,122.852 196.441,106.698C198.407,105.168 199.312,102.64 198.764,100.21C198.216,97.78 196.313,95.886 193.881,95.347C174.25,90.404 150.161,80.004 127.591,64.213C105.081,48.465 87.007,29.399 75.502,12.612Z" style="fill:rgb(98,70,12);"/>
        <path id="Brim-highlight" serif:id="Brim highlight" d="M102.211,48.879C101.865,48.326 101.241,48.01 100.591,48.058C99.94,48.106 99.37,48.51 99.109,49.108C95.095,59.088 101.692,73.544 115.152,82.962C128.636,92.396 144.379,93.536 152.174,86.162C152.624,85.714 152.792,85.056 152.611,84.447C152.431,83.839 151.931,83.379 151.31,83.249C143.367,81.358 133.23,77.077 123.736,70.435C114.257,63.803 106.733,55.737 102.211,48.879Z" style="fill:rgb(126,95,27);"/>
        <path id="Top" d="M96.762,45.159C96.762,45.159 103.523,36.504 111.71,31.623C119.58,26.931 125.935,21.173 132.767,25.667C137.596,28.844 137.964,30.215 139.009,35.046C140.054,39.877 138.101,43.113 141.528,45.178C144.955,47.244 148.115,46.335 150.183,44.982C152.251,43.629 155.802,44.055 158.937,46.04C162.072,48.026 162.872,52.141 163.518,55.685C164.164,59.229 159.667,75.13 152.734,86.191C150.674,85.249 120.138,76.844 96.762,45.159Z" style="fill:rgb(98,70,12);"/>
        <path id="Top-highlight" serif:id="Top highlight" d="M103.969,46.067C103.969,46.067 108.927,39.782 114.992,36.286C120.822,32.925 125.508,28.764 130.662,32.141C134.307,34.528 133.324,37.393 134.158,40.954C134.991,44.515 136.021,48.563 138.604,50.118C141.188,51.673 145.39,52.08 146.921,51.109C148.451,50.137 152.383,48.635 154.747,50.128C157.112,51.621 157.754,54.653 158.276,57.264C158.798,59.875 155.611,71.507 150.551,79.558C149.001,78.843 121.786,69.601 103.969,46.067Z" style="fill:rgb(126,95,27);"/>
    </g>
    <path id="Right-hand" serif:id="Right hand" d="M154.269,211.669L168.54,112.4C170.306,100.954 180.384,96.323 191.83,98.089C203.077,99.824 210.8,110.364 209.064,121.611L195.386,218.014" style="fill:rgb(209,160,132);stroke:black;stroke-width:10px;stroke-linecap:butt;"/>
</svg>
