<?xml version="1.0" encoding="UTF-8" standalone="no"?>
<!DOCTYPE svg PUBLIC "-//W3C//DTD SVG 1.1//EN" "http://www.w3.org/Graphics/SVG/1.1/DTD/svg11.dtd">
<svg width="100%" height="100%" viewBox="0 0 256 256" version="1.1" xmlns="http://www.w3.org/2000/svg" xmlns:xlink="http://www.w3.org/1999/xlink" xml:space="preserve" xmlns:serif="http://www.serif.com/" style="fill-rule:evenodd;clip-rule:evenodd;stroke-linecap:round;stroke-linejoin:round;stroke-miterlimit:1.5;">
    <rect id="neobread_cross_stitch" x="0" y="0" width="256" height="256" style="fill:none;"/>
    <path id="Crust" d="M192.734,26.885C222.946,26.885 247.473,51.413 247.473,81.624C247.473,94.467 243.041,106.282 235.623,115.623L235.623,200.464C235.623,216.277 222.785,229.115 206.972,229.115L48.771,229.115C32.958,229.115 20.12,216.277 20.12,200.464L20.12,115.297C12.857,106.008 8.527,94.318 8.527,81.624C8.527,51.413 33.054,26.885 63.266,26.885L192.734,26.885Z" style="fill:rgb(209,160,132);stroke:black;stroke-width:15px;"/>
    <rect id="Shadow" x="122.332" y="112.959" width="105.66" height="15.248" style="fill:rgb(186,133,109);"/>
    <path id="Slice" d="M42.009,112.691C33.24,105.704 27.616,94.934 27.616,82.861C27.616,61.82 44.698,44.738 65.738,44.738L135.611,44.738C156.652,44.738 173.734,61.82 173.734,82.861C173.734,94.528 168.481,104.979 160.213,111.974L160.213,196.732C160.213,204.964 153.53,211.647 145.299,211.647L56.924,211.647C48.692,211.647 42.009,204.964 42.009,196.732L42.009,112.691Z" style="fill:rgb(252,233,186);"/>
    <g id="Eyes">
        <g id="Right-eye" serif:id="Right eye">
            <circle id="Eye-white" serif:id="Eye white" cx="130.968" cy="115.715" r="23.779" style="fill:white;"/>
            <circle id="Pupil" cx="127.906" cy="112.691" r="20.392"/>
            <path id="Eye-reflection-top" serif:id="Eye reflection top" d="M116.892,101.838C120.92,97.81 126.719,97.069 129.835,100.185C132.95,103.3 132.21,109.1 128.182,113.127C124.154,117.155 118.355,117.896 115.239,114.78C112.124,111.665 112.864,105.865 116.892,101.838Z" style="fill:white;"/>
            <path id="Eye-reflection-bottom" serif:id="Eye reflection bottom" d="M137.831,117.603C137.831,117.603 136.632,121.739 132.389,122.644" style="fill:none;stroke:rgb(151,151,151);stroke-width:8px;"/>
        </g>
        <g id="Left-eye" serif:id="Left eye">
            <circle id="Eye-white1" serif:id="Eye white" cx="70.382" cy="115.715" r="23.779" style="fill:white;"/>
            <circle id="Pupil1" serif:id="Pupil" cx="67.32" cy="112.691" r="20.392"/>
            <path id="Eye-reflection-top1" serif:id="Eye reflection top" d="M56.306,101.838C60.333,97.81 66.133,97.069 69.248,100.185C72.364,103.3 71.623,109.1 67.595,113.127C63.568,117.155 57.768,117.896 54.653,114.78C51.537,111.665 52.278,105.865 56.306,101.838Z" style="fill:white;"/>
            <path id="Eye-reflection-bottom1" serif:id="Eye reflection bottom" d="M77.244,117.603C77.244,117.603 76.045,121.739 71.803,122.644" style="fill:none;stroke:rgb(151,151,151);stroke-width:8px;"/>
        </g>
    </g>
    <g id="Bobbin">
        <path id="Outline" d="M66.228,143.79L66.228,143.529L60.452,143.529C54.414,143.529 49.511,138.626 49.511,132.588C49.511,126.549 54.414,121.647 60.452,121.647L131.472,121.647C137.511,121.647 142.413,126.549 142.413,132.588C142.413,138.626 137.511,143.529 131.472,143.529L127.261,143.529L127.261,143.679C127.765,143.956 128.106,144.492 128.106,145.108L128.106,194.022C128.106,194.638 127.765,195.174 127.261,195.451L127.261,195.714L131.472,195.714C137.511,195.714 142.413,200.617 142.413,206.656C142.413,212.694 137.511,217.597 131.472,217.597L60.452,217.597C54.414,217.597 49.511,212.694 49.511,206.656C49.511,200.617 54.414,195.714 60.452,195.714L66.228,195.714L66.228,195.34C65.822,195.043 65.558,194.563 65.558,194.022L65.558,145.108C65.558,144.567 65.822,144.087 66.228,143.79ZM95.962,124.595C91.593,124.595 88.046,128.142 88.046,132.511C88.046,136.881 91.593,140.428 95.962,140.428C100.331,140.428 103.879,136.881 103.879,132.511C103.879,128.142 100.331,124.595 95.962,124.595Z" style="fill:none;stroke:black;stroke-width:15px;stroke-linejoin:miter;stroke-miterlimit:5;"/>
        <path id="Bobbin1" serif:id="Bobbin" d="M66.228,143.529L60.452,143.529C54.414,143.529 49.511,138.626 49.511,132.588C49.511,126.549 54.414,121.647 60.452,121.647L131.472,121.647C137.511,121.647 142.413,126.549 142.413,132.588C142.413,138.626 137.511,143.529 131.472,143.529L127.261,143.529L127.261,195.714L131.472,195.714C137.511,195.714 142.413,200.617 142.413,206.656C142.413,212.694 137.511,217.597 131.472,217.597L60.452,217.597C54.414,217.597 49.511,212.694 49.511,206.656C49.511,200.617 54.414,195.714 60.452,195.714L66.228,195.714L66.228,143.529ZM95.962,124.595C91.593,124.595 88.046,128.142 88.046,132.511C88.046,136.881 91.593,140.428 95.962,140.428C100.331,140.428 103.879,136.881 103.879,132.511C103.879,128.142 100.331,124.595 95.962,124.595Z" style="fill:white;"/>
        <path id="Thread" d="M128.106,145.108L128.106,194.022C128.106,194.922 127.376,195.653 126.476,195.653L67.189,195.653C66.289,195.653 65.558,194.922 65.558,194.022L65.558,145.108C65.558,144.208 66.289,143.477 67.189,143.477L126.476,143.477C127.376,143.477 128.106,144.208 128.106,145.108Z" style="fill:rgb(131,54,13);"/>
        <g transform="matrix(12.3817,0,0,12.3817,138.61,137.308)">
        </g>
        <text x="110.286px" y="137.308px" style="font-family:'Noteworthy-Bold', 'Noteworthy';font-weight:700;font-size:12.382px;">868</text>
    </g>
    <path id="Right-hand" serif:id="Right hand" d="M147.779,225.367L128.142,205.73C119.953,197.541 119.953,184.243 128.142,176.054C136.189,168.007 149.255,168.007 157.302,176.054L177.198,195.949" style="fill:rgb(209,160,132);stroke:black;stroke-width:10px;stroke-linecap:butt;"/>
    <path id="Left-hand" serif:id="Left hand" d="M47.21,226.367L66.847,206.73C75.037,198.541 75.037,185.243 66.847,177.054C58.8,169.007 45.734,169.007 37.687,177.054L17.792,196.949" style="fill:rgb(209,160,132);stroke:black;stroke-width:10px;stroke-linecap:butt;"/>
</svg>
