<?xml version="1.0" encoding="UTF-8" standalone="no"?>
<!DOCTYPE svg PUBLIC "-//W3C//DTD SVG 1.1//EN" "http://www.w3.org/Graphics/SVG/1.1/DTD/svg11.dtd">
<svg width="100%" height="100%" viewBox="0 0 256 256" version="1.1" xmlns="http://www.w3.org/2000/svg" xmlns:xlink="http://www.w3.org/1999/xlink" xml:space="preserve" xmlns:serif="http://www.serif.com/" style="fill-rule:evenodd;clip-rule:evenodd;stroke-linecap:round;stroke-linejoin:round;stroke-miterlimit:1.5;">
    <rect id="neobread_boop" x="0" y="0" width="256" height="256" style="fill:none;"/>
    <path id="Crust" d="M192.734,26.885C222.946,26.885 247.473,51.413 247.473,81.624C247.473,94.467 243.041,106.282 235.623,115.623L235.623,200.464C235.623,216.277 222.785,229.115 206.972,229.115L48.771,229.115C32.958,229.115 20.12,216.277 20.12,200.464L20.12,115.297C12.857,106.008 8.527,94.318 8.527,81.624C8.527,51.413 33.054,26.885 63.266,26.885L192.734,26.885Z" style="fill:rgb(209,160,132);stroke:black;stroke-width:15px;"/>
    <rect id="Shadow" x="122.332" y="112.959" width="105.66" height="15.248" style="fill:rgb(186,133,109);"/>
    <path id="Slice" d="M42.009,112.691C33.24,105.704 27.616,94.934 27.616,82.861C27.616,61.82 44.698,44.738 65.738,44.738L135.611,44.738C156.652,44.738 173.734,61.82 173.734,82.861C173.734,94.528 168.481,104.979 160.213,111.974L160.213,196.732C160.213,204.964 153.53,211.647 145.299,211.647L56.924,211.647C48.692,211.647 42.009,204.964 42.009,196.732L42.009,112.691Z" style="fill:rgb(252,233,186);"/>
    <g id="Face">
        <path id="Mouth" d="M65.596,155.72L76.372,173.837L90.892,155.752L108.879,173.787L130.306,155.773" style="fill:none;stroke:black;stroke-width:10px;"/>
        <g id="Eyes">
            <path id="Right-eye" serif:id="Right eye" d="M143.057,111.742L143.057,119.688C143.057,128.036 136.28,134.813 127.933,134.813C119.586,134.813 112.809,128.036 112.809,119.688L112.809,111.742C112.809,103.395 119.586,96.618 127.933,96.618C136.28,96.618 143.057,103.395 143.057,111.742Z"/>
            <path id="Left-eye" serif:id="Left eye" d="M82.953,111.678L82.953,119.624C82.953,127.971 76.176,134.748 67.828,134.748C59.481,134.748 52.704,127.971 52.704,119.624L52.704,111.678C52.704,103.331 59.481,96.554 67.828,96.554C76.176,96.554 82.953,103.331 82.953,111.678Z"/>
        </g>
    </g>
    <g id="Hand">
        <path id="Main" d="M53.428,147.647L60.75,151.664C63.518,153.183 64.663,156.91 63.304,159.981C61.946,163.052 58.596,164.312 55.827,162.793L27.547,147.275C26.52,146.711 25.716,145.843 25.181,144.818L21.001,138.919L11.357,128.523L27.422,110.119L37.19,120.648L37.165,120.677L64.255,121.392C64.837,121.348 65.434,121.389 66.033,121.525L87.01,126.285C90.589,127.097 92.777,131.596 92.191,134.065C91.26,137.995 88.556,140.364 84.977,139.552L64.807,134.975L63.988,134.987C64.031,135.292 64.056,135.604 64.06,135.921L64.134,140.765C64.19,144.473 61.526,147.524 58.189,147.575L53.428,147.647Z" style="fill:white;"/>
        <path d="M41.688,110.793C49.226,110.992 64.129,111.385 64.121,111.386C65.476,111.336 66.859,111.458 68.246,111.773L89.223,116.533C93.671,117.542 97.447,120.592 99.737,124.408C102.157,128.441 102.691,133.126 101.922,136.371C99.548,146.393 91.891,151.375 82.764,149.304L72.995,147.087C72.68,147.904 72.305,148.688 71.876,149.431C74.162,153.788 74.584,159.202 72.45,164.026C68.587,172.76 58.89,175.881 51.017,171.56L22.737,156.042C20.209,154.655 18.154,152.614 16.72,150.173L13.222,145.237L4.026,135.324C0.546,131.573 0.459,125.801 3.823,121.946L19.889,103.542C21.753,101.407 24.436,100.163 27.271,100.12C30.106,100.077 32.825,101.239 34.753,103.318L41.688,110.793ZM53.428,147.647L58.189,147.575C61.526,147.524 64.19,144.473 64.134,140.765L64.06,135.921C64.056,135.604 64.031,135.292 63.988,134.987L64.807,134.975L84.977,139.552C88.556,140.364 91.26,137.995 92.191,134.065C92.777,131.596 90.589,127.097 87.01,126.285L66.033,121.525C65.434,121.389 64.837,121.348 64.255,121.392L37.165,120.677L37.19,120.648L27.422,110.119L11.357,128.523L21.001,138.919L25.181,144.818C25.716,145.843 26.52,146.711 27.547,147.275L55.827,162.793C58.596,164.312 61.946,163.052 63.304,159.981C64.663,156.91 63.518,153.183 60.75,151.664L53.428,147.647Z"/>
        <path id="Shading" d="M53.428,147.647L46.392,143.785C45.777,142.903 45.404,141.802 45.385,140.604C45.341,137.66 47.456,135.237 50.105,135.197C50.26,135.195 50.413,135.2 50.564,135.214L50.574,135.19L63.988,134.987C64.031,135.292 64.056,135.604 64.06,135.921L64.134,140.765C64.19,144.473 61.526,147.524 58.189,147.575L53.428,147.647Z" style="fill:rgb(185,185,185);"/>
    </g>
</svg>
