<?xml version="1.0" encoding="UTF-8" standalone="no"?>
<!DOCTYPE svg PUBLIC "-//W3C//DTD SVG 1.1//EN" "http://www.w3.org/Graphics/SVG/1.1/DTD/svg11.dtd">
<svg width="100%" height="100%" viewBox="0 0 256 256" version="1.1" xmlns="http://www.w3.org/2000/svg" xmlns:xlink="http://www.w3.org/1999/xlink" xml:space="preserve" xmlns:serif="http://www.serif.com/" style="fill-rule:evenodd;clip-rule:evenodd;stroke-linecap:round;stroke-linejoin:round;stroke-miterlimit:1.5;">
    <rect id="neobread_hmph" x="0" y="0" width="256" height="256" style="fill:none;"/>
    <path id="Crust" d="M192.734,26.885C222.946,26.885 247.473,51.413 247.473,81.624C247.473,94.467 243.041,106.282 235.623,115.623L235.623,200.464C235.623,216.277 222.785,229.115 206.972,229.115L48.771,229.115C32.958,229.115 20.12,216.277 20.12,200.464L20.12,115.297C12.857,106.008 8.527,94.318 8.527,81.624C8.527,51.413 33.054,26.885 63.266,26.885L192.734,26.885Z" style="fill:rgb(209,160,132);stroke:black;stroke-width:15px;"/>
    <rect id="Shadow" x="122.332" y="112.959" width="105.66" height="15.248" style="fill:rgb(186,133,109);"/>
    <path id="Slice" d="M42.009,112.691C33.24,105.704 27.616,94.934 27.616,82.861C27.616,61.82 44.698,44.738 65.738,44.738L135.611,44.738C156.652,44.738 173.734,61.82 173.734,82.861C173.734,94.528 168.481,104.979 160.213,111.974L160.213,196.732C160.213,204.964 153.53,211.647 145.299,211.647L56.924,211.647C48.692,211.647 42.009,204.964 42.009,196.732L42.009,112.691Z" style="fill:rgb(252,233,186);"/>
    <g id="Face">
        <path id="Mouth" d="M78.141,170.189L93.721,155.03L113.039,170.59" style="fill:none;stroke:black;stroke-width:10px;"/>
        <g id="Eyes">
            <path id="Right-eye" serif:id="Right eye" d="M110.439,111.888C110.028,120.729 115.647,129.777 125.301,129.964C134.367,130.14 143.021,123.051 143.057,111.134" style="fill:none;stroke:black;stroke-width:12px;"/>
            <path id="Left-eye" serif:id="Left eye" d="M84.641,111.859C85.052,120.699 79.433,129.748 69.779,129.935C60.714,130.11 52.059,123.022 52.023,111.105" style="fill:none;stroke:black;stroke-width:12px;"/>
        </g>
        <g id="Eyebrows">
            <path id="Right-eyebrow" serif:id="Right eyebrow" d="M137.583,79.637L111.678,89.529" style="fill:none;stroke:black;stroke-width:10px;"/>
            <path id="Left-eyebrow" serif:id="Left eyebrow" d="M56.082,79.637L81.987,89.529" style="fill:none;stroke:black;stroke-width:10px;"/>
        </g>
    </g>
    <path id="Right-puff" serif:id="Right puff" d="M114.934,197.437L105.824,160.329C105.742,159.963 105.699,159.582 105.699,159.191C105.699,156.316 108.067,153.538 110.907,153.982C113.918,154.454 116.115,157.837 116.115,157.837L138.177,192.896C141.259,189.401 145.77,187.195 150.791,187.195C160.071,187.195 167.606,194.729 167.606,204.009C167.606,204.335 167.596,204.659 167.578,204.981C174.068,207.298 178.718,213.503 178.718,220.785C178.718,230.044 171.201,237.561 161.942,237.561C155.157,237.561 149.308,233.525 146.666,227.725C142.682,233.828 135.792,237.865 127.966,237.865C115.65,237.865 105.65,227.866 105.65,215.55C105.65,208.096 109.312,201.491 114.934,197.437Z" style="fill:white;"/>
    <path d="M177.08,198.703C184.106,203.53 188.718,211.623 188.718,220.785C188.718,235.563 176.72,247.561 161.942,247.561C155.994,247.561 150.495,245.618 146.05,242.332C140.888,245.825 134.663,247.865 127.966,247.865C110.13,247.865 95.65,233.385 95.65,215.55C95.65,207.314 98.735,199.794 103.814,194.084L96.112,162.714C96.095,162.646 96.079,162.577 96.064,162.509C95.826,161.441 95.699,160.331 95.699,159.191C95.699,150.391 103.761,142.742 112.454,144.103C119.25,145.167 124.502,152.391 124.502,152.391C124.528,152.431 124.554,152.471 124.579,152.511C124.579,152.511 141.22,178.955 141.22,178.955C144.193,177.818 147.42,177.195 150.791,177.195C163.774,177.195 174.614,186.441 177.08,198.703ZM114.934,197.437C109.312,201.491 105.65,208.096 105.65,215.55C105.65,227.866 115.65,237.865 127.966,237.865C135.792,237.865 142.682,233.828 146.666,227.725C149.308,233.525 155.157,237.561 161.942,237.561C171.201,237.561 178.718,230.044 178.718,220.785C178.718,213.503 174.068,207.298 167.578,204.981C167.596,204.659 167.606,204.335 167.606,204.009C167.606,194.729 160.071,187.195 150.791,187.195C145.77,187.195 141.259,189.401 138.177,192.896L116.115,157.837C116.115,157.837 113.918,154.454 110.907,153.982C108.067,153.538 105.699,156.316 105.699,159.191C105.699,159.582 105.742,159.963 105.824,160.329L114.934,197.437Z"/>
    <path id="Left-puff" serif:id="Left puff" d="M75.558,197.437L84.794,160.36L84.794,159.191C84.794,156.316 82.46,154.032 79.585,153.982C76.348,153.927 74.377,157.837 74.377,157.837L52.315,192.896C49.233,189.401 44.723,187.195 39.701,187.195C30.421,187.195 22.887,194.729 22.887,204.009C22.887,204.335 22.896,204.659 22.915,204.981C16.425,207.298 11.775,213.503 11.775,220.785C11.775,230.044 19.292,237.561 28.551,237.561C35.335,237.561 41.184,233.525 43.826,227.725C47.81,233.828 54.701,237.865 62.527,237.865C74.843,237.865 84.842,227.866 84.842,215.55C84.842,208.096 81.18,201.491 75.558,197.437Z" style="fill:white;"/>
    <path d="M13.413,198.703C15.878,186.441 26.718,177.195 39.701,177.195C43.072,177.195 46.299,177.818 49.273,178.955C49.273,178.955 65.812,152.673 65.807,152.681C66.411,151.642 67.761,149.555 69.75,147.806C72.338,145.53 75.789,143.916 79.757,143.984C88.102,144.127 94.794,150.845 94.794,159.191L94.794,160.36C94.794,161.174 94.694,161.986 94.497,162.777L86.694,194.103C91.764,199.809 94.842,207.323 94.842,215.55C94.842,233.385 80.362,247.865 62.527,247.865C55.83,247.865 49.605,245.825 44.443,242.332C39.997,245.618 34.499,247.561 28.551,247.561C13.773,247.561 1.775,235.563 1.775,220.785C1.775,211.623 6.386,203.53 13.413,198.703ZM75.558,197.437L84.794,160.36L84.794,159.191C84.794,156.316 82.46,154.032 79.585,153.982C76.348,153.927 74.377,157.837 74.377,157.837L52.315,192.896C49.233,189.401 44.723,187.195 39.701,187.195C30.421,187.195 22.887,194.729 22.887,204.009C22.887,204.335 22.896,204.659 22.915,204.981C16.425,207.298 11.775,213.503 11.775,220.785C11.775,230.044 19.292,237.561 28.551,237.561C35.335,237.561 41.184,233.525 43.826,227.725C47.81,233.828 54.701,237.865 62.527,237.865C74.843,237.865 84.842,227.866 84.842,215.55C84.842,208.096 81.18,201.491 75.558,197.437Z"/>
</svg>
