<?xml version="1.0" encoding="UTF-8" standalone="no"?>
<!DOCTYPE svg PUBLIC "-//W3C//DTD SVG 1.1//EN" "http://www.w3.org/Graphics/SVG/1.1/DTD/svg11.dtd">
<svg width="100%" height="100%" viewBox="0 0 256 256" version="1.1" xmlns="http://www.w3.org/2000/svg" xmlns:xlink="http://www.w3.org/1999/xlink" xml:space="preserve" xmlns:serif="http://www.serif.com/" style="fill-rule:evenodd;clip-rule:evenodd;stroke-linecap:round;stroke-linejoin:round;stroke-miterlimit:1.5;">
    <g transform="matrix(1,0,0,1,-1200,0)">
        <g id="neobread_think" transform="matrix(1,0,0,1,1200,5.68434e-14)">
            <rect x="0" y="0" width="256" height="256" style="fill:none;"/>
            <g id="Hand-outline" serif:id="Hand outline" transform="matrix(1.33057,0,0,0.969655,-1725.88,52.4854)">
                <path d="M1357.23,160.235L1357.23,183.291C1357.23,192.308 1351.9,199.629 1345.33,199.629L1319.05,199.629C1312.48,199.629 1307.15,192.308 1307.15,183.291L1307.15,150.614C1307.15,143.163 1310.79,136.87 1315.76,134.909L1315.76,119.838C1315.76,113.771 1319.35,108.845 1323.78,108.845C1328.2,108.845 1331.79,113.771 1331.79,119.838L1331.79,134.276L1375.85,134.276C1381.07,134.276 1385.31,140.092 1385.31,147.255C1385.31,154.419 1381.07,160.235 1375.85,160.235L1357.23,160.235Z" style="fill:none;stroke:black;stroke-width:12.88px;"/>
            </g>
            <g id="Crust" transform="matrix(3.74712,0,0,3.74712,-157.7,-109.634)">
                <path d="M93.521,36.433C101.583,36.433 108.129,42.979 108.129,51.041C108.129,54.469 106.946,57.622 104.967,60.115L104.967,82.756C104.967,86.976 101.541,90.402 97.321,90.402L55.101,90.402C50.881,90.402 47.455,86.976 47.455,82.756L47.455,60.028C45.517,57.549 44.361,54.429 44.361,51.041C44.361,42.979 50.907,36.433 58.969,36.433L93.521,36.433Z" style="fill:rgb(209,160,132);stroke:black;stroke-width:4px;"/>
            </g>
            <g id="Shadow" transform="matrix(4.03114,0,0,5.19154,-192.805,-201.948)">
                <rect x="78.176" y="60.658" width="26.211" height="2.937" style="fill:rgb(186,133,109);"/>
            </g>
            <g id="Slice" transform="matrix(1.01387,0,0,0.990808,-3.29993,-0.001601)">
                <path d="M44.69,113.738C36.04,106.686 30.493,95.816 30.493,83.631C30.493,62.395 47.341,45.155 68.094,45.155L137.011,45.155C157.764,45.155 174.612,62.395 174.612,83.631C174.612,95.407 169.431,105.954 161.277,113.014L161.277,198.559C161.277,206.867 154.685,213.612 146.566,213.612L59.4,213.612C51.281,213.612 44.69,206.867 44.69,198.559L44.69,113.738Z" style="fill:rgb(252,233,186);"/>
            </g>
            <g id="Face">
                <g id="Mouth" transform="matrix(1,0,0,1,-1261.48,52.3517)">
                    <path d="M1338.13,119.667L1353.97,104.015L1373.73,119.645" style="fill:none;stroke:rgb(70,41,26);stroke-width:10px;"/>
                </g>
                <g id="Eyes">
                    <g id="Right-eye" serif:id="Right eye" transform="matrix(1.27954,0,0,1.80558,40.8594,-69.8053)">
                        <path d="M82.006,99.111L82.006,103.333C82.006,108.77 75.776,113.185 68.103,113.185C60.43,113.185 54.2,108.77 54.2,103.333L54.2,99.111C54.2,93.673 60.43,89.258 68.103,89.258C75.776,89.258 82.006,93.673 82.006,99.111Z"/>
                    </g>
                    <g id="Left-eye" serif:id="Left eye" transform="matrix(1.32405,0,0,1.8684,-22.4338,-76.1637)">
                        <path d="M82.006,99.111L82.006,103.333C82.006,108.77 75.776,113.185 68.103,113.185C60.43,113.185 54.2,108.77 54.2,103.333L54.2,99.111C54.2,93.673 60.43,89.258 68.103,89.258C75.776,89.258 82.006,93.673 82.006,99.111Z"/>
                    </g>
                </g>
            </g>
            <g id="Hand" transform="matrix(1.33057,0,0,0.969655,-1725.88,52.4854)">
                <path d="M1357.23,160.235L1357.23,183.291C1357.23,192.308 1351.9,199.629 1345.33,199.629L1319.05,199.629C1312.48,199.629 1307.15,192.308 1307.15,183.291L1307.15,150.614C1307.15,143.163 1310.79,136.87 1315.76,134.909L1315.76,119.838C1315.76,113.771 1319.35,108.845 1323.78,108.845C1328.2,108.845 1331.79,113.771 1331.79,119.838L1331.79,134.276L1375.85,134.276C1381.07,134.276 1385.31,140.092 1385.31,147.255C1385.31,154.419 1381.07,160.235 1375.85,160.235L1357.23,160.235Z" style="fill:rgb(186,133,109);stroke:black;stroke-width:8.59px;"/>
            </g>
        </g>
    </g>
</svg>
