<?xml version="1.0" encoding="UTF-8" standalone="no"?>
<!DOCTYPE svg PUBLIC "-//W3C//DTD SVG 1.1//EN" "http://www.w3.org/Graphics/SVG/1.1/DTD/svg11.dtd">
<svg width="100%" height="100%" viewBox="0 0 256 256" version="1.1" xmlns="http://www.w3.org/2000/svg" xmlns:xlink="http://www.w3.org/1999/xlink" xml:space="preserve" xmlns:serif="http://www.serif.com/" style="fill-rule:evenodd;clip-rule:evenodd;stroke-linecap:round;stroke-linejoin:round;stroke-miterlimit:1.5;">
    <rect id="neobread_smug" x="0" y="0" width="256" height="256" style="fill:none;"/>
    <path id="Crust" d="M192.734,26.885C222.946,26.885 247.473,51.413 247.473,81.624C247.473,94.467 243.041,106.282 235.623,115.623L235.623,200.464C235.623,216.277 222.785,229.115 206.972,229.115L48.771,229.115C32.958,229.115 20.12,216.277 20.12,200.464L20.12,115.297C12.857,106.008 8.527,94.318 8.527,81.624C8.527,51.413 33.054,26.885 63.266,26.885L192.734,26.885Z" style="fill:rgb(209,160,132);stroke:black;stroke-width:15px;"/>
    <rect id="Shadow" x="122.332" y="112.959" width="105.66" height="15.248" style="fill:rgb(186,133,109);"/>
    <path id="Slice" d="M42.009,112.691C33.24,105.704 27.616,94.934 27.616,82.861C27.616,61.82 44.698,44.738 65.738,44.738L135.611,44.738C156.652,44.738 173.734,61.82 173.734,82.861C173.734,94.528 168.481,104.979 160.213,111.974L160.213,196.732C160.213,204.964 153.53,211.647 145.299,211.647L56.924,211.647C48.692,211.647 42.009,204.964 42.009,196.732L42.009,112.691Z" style="fill:rgb(252,233,186);"/>
    <g id="Face">
        <path id="Mouth" d="M65.917,156.078L76.693,174.195L91.213,156.11L109.2,174.144L130.627,156.131" style="fill:none;stroke:black;stroke-width:10px;"/>
        <g id="Eyes">
            <path id="Right-eye" serif:id="Right eye" d="M108.662,116.041L143.507,116.041L143.507,119.744C143.507,129.562 135.536,137.533 125.718,137.533C115.9,137.533 107.929,129.562 107.929,119.744L107.929,116.308L108.662,116.041Z"/>
            <path id="Left-eye" serif:id="Left eye" d="M83.865,116.041L83.865,119.876C83.865,130.036 75.616,138.284 65.457,138.284C55.297,138.284 47.048,130.036 47.048,119.876L47.048,117.086L49.906,116.041L83.865,116.041Z"/>
        </g>
        <path id="Right-eyebrow" serif:id="Right eyebrow" d="M115.918,95.376C115.918,95.376 120.073,82.72 140.082,88.386" style="fill:none;stroke:black;stroke-width:10px;"/>
        <path id="Left-eyebrow" serif:id="Left eyebrow" d="M53.381,95.376C53.381,95.376 57.536,82.72 77.545,88.386" style="fill:none;stroke:black;stroke-width:10px;"/>
    </g>
</svg>
