<?xml version="1.0" encoding="UTF-8" standalone="no"?>
<!DOCTYPE svg PUBLIC "-//W3C//DTD SVG 1.1//EN" "http://www.w3.org/Graphics/SVG/1.1/DTD/svg11.dtd">
<svg width="100%" height="100%" viewBox="0 0 256 256" version="1.1" xmlns="http://www.w3.org/2000/svg" xmlns:xlink="http://www.w3.org/1999/xlink" xml:space="preserve" xmlns:serif="http://www.serif.com/" style="fill-rule:evenodd;clip-rule:evenodd;stroke-linecap:round;stroke-linejoin:round;stroke-miterlimit:1.5;">
    <rect id="neobread_laugh_sweat" x="0" y="0" width="256" height="256" style="fill:none;"/>
    <path id="Crust" d="M192.734,26.885C222.946,26.885 247.473,51.413 247.473,81.624C247.473,94.467 243.041,106.282 235.623,115.623L235.623,200.464C235.623,216.277 222.785,229.115 206.972,229.115L48.771,229.115C32.958,229.115 20.12,216.277 20.12,200.464L20.12,115.297C12.857,106.008 8.527,94.318 8.527,81.624C8.527,51.413 33.054,26.885 63.266,26.885L192.734,26.885Z" style="fill:rgb(209,160,132);stroke:black;stroke-width:15px;"/>
    <rect id="Shadow" x="122.332" y="112.959" width="105.66" height="15.248" style="fill:rgb(186,133,109);"/>
    <path id="Slice" d="M42.009,112.691C33.24,105.704 27.616,94.934 27.616,82.861C27.616,61.82 44.698,44.738 65.738,44.738L135.611,44.738C156.652,44.738 173.734,61.82 173.734,82.861C173.734,94.528 168.481,104.979 160.213,111.974L160.213,196.732C160.213,204.964 153.53,211.647 145.299,211.647L56.924,211.647C48.692,211.647 42.009,204.964 42.009,196.732L42.009,112.691Z" style="fill:rgb(252,233,186);"/>
    <g id="Face">
        <g id="Mouth">
            <path id="Mouth-backgorund" serif:id="Mouth backgorund" d="M123.9,160.688C123.9,171.755 114.915,180.74 103.848,180.74L87.896,180.74C76.689,180.74 67.59,171.642 67.59,160.434C67.59,154.023 72.795,148.817 79.207,148.817L112.028,148.817C118.58,148.817 123.9,154.136 123.9,160.688Z" style="fill:rgb(160,25,25);"/>
            <path id="Mouth-backgorund1" serif:id="Mouth backgorund" d="M93.162,180.74C92.529,179.557 92.186,178.294 92.186,176.982C92.186,170.317 101.023,164.907 111.908,164.907C115.976,164.907 119.757,165.662 122.899,166.957C120.264,174.958 112.726,180.74 103.848,180.74L93.162,180.74Z" style="fill:rgb(216,72,72);"/>
        </g>
        <g id="Eyes">
            <path id="Right-eye" serif:id="Right eye" d="M110.439,122.536C110.028,113.695 115.647,104.647 125.301,104.459C134.367,104.284 143.021,111.372 143.057,123.289" style="fill:none;stroke:black;stroke-width:12px;"/>
            <path id="Left-eye" serif:id="Left eye" d="M84.641,122.565C85.052,113.724 79.433,104.676 69.779,104.489C60.714,104.313 52.059,111.402 52.023,123.319" style="fill:none;stroke:black;stroke-width:12px;"/>
        </g>
    </g>
    <path id="Sweat" d="M181.313,94.037C181.313,94.037 202.632,126.931 202.632,141.029C202.632,152.795 193.08,162.348 181.313,162.348C169.547,162.348 159.995,152.795 159.995,141.029C159.995,126.931 181.313,94.037 181.313,94.037Z" style="fill:rgb(91,206,250);"/>
    <path d="M189.705,88.598C189.705,88.598 200.639,105.495 207.207,120.695C210.532,128.39 212.632,135.794 212.632,141.029C212.632,158.314 198.599,172.348 181.313,172.348C164.028,172.348 149.995,158.314 149.995,141.029C149.995,135.794 152.095,128.39 155.42,120.695C161.987,105.495 172.922,88.598 172.922,88.598C174.765,85.754 177.924,84.037 181.313,84.037C184.703,84.037 187.862,85.754 189.705,88.598ZM181.313,94.037C181.313,94.037 159.995,126.931 159.995,141.029C159.995,152.795 169.547,162.348 181.313,162.348C193.08,162.348 202.632,152.795 202.632,141.029C202.632,126.931 181.313,94.037 181.313,94.037Z"/>
</svg>
