<?xml version="1.0" encoding="UTF-8" standalone="no"?>
<!DOCTYPE svg PUBLIC "-//W3C//DTD SVG 1.1//EN" "http://www.w3.org/Graphics/SVG/1.1/DTD/svg11.dtd">
<svg width="100%" height="100%" viewBox="0 0 256 256" version="1.1" xmlns="http://www.w3.org/2000/svg" xmlns:xlink="http://www.w3.org/1999/xlink" xml:space="preserve" xmlns:serif="http://www.serif.com/" style="fill-rule:evenodd;clip-rule:evenodd;stroke-linecap:round;stroke-linejoin:round;stroke-miterlimit:1.5;">
    <rect id="neobread_hug_bun" x="0" y="0" width="256" height="256" style="fill:none;"/>
    <g id="Right-bread" serif:id="Right bread">
        <path id="Crust" d="M213.578,107.289C231.759,107.289 246.519,122.049 246.519,140.229C246.519,147.958 243.851,155.068 239.388,160.69L239.388,211.745C239.388,221.261 231.662,228.987 222.146,228.987L126.944,228.987C117.428,228.987 109.702,221.261 109.702,211.745L109.702,160.494C105.332,154.904 102.726,147.868 102.726,140.229C102.726,122.049 117.486,107.289 135.666,107.289L213.578,107.289Z" style="fill:rgb(209,160,132);stroke:black;stroke-width:15px;"/>
        <rect id="Shadow" x="171.212" y="159.086" width="60.449" height="9.176" style="fill:rgb(186,133,109);"/>
        <path id="Slice" d="M124.789,159.431C119.798,155.454 116.597,149.324 116.597,142.453C116.597,130.478 126.319,120.756 138.294,120.756L178.062,120.756C190.038,120.756 199.76,130.478 199.76,142.453C199.76,149.094 196.77,155.041 192.065,159.023L192.065,207.263C192.065,211.948 188.261,215.751 183.576,215.751L133.278,215.751C128.593,215.751 124.789,211.948 124.789,207.263L124.789,159.431Z" style="fill:rgb(252,233,186);"/>
        <g id="Face">
            <path id="Mouth" d="M137.069,184.819L143.553,195.722L152.291,184.838L163.116,195.691L176.01,184.851" style="fill:none;stroke:black;stroke-width:6.02px;"/>
            <g id="Eyes">
                <path id="Right-eye" serif:id="Right eye" d="M182.791,158.299L182.791,162.628C182.791,167.175 179.099,170.867 174.551,170.867C170.003,170.867 166.311,167.175 166.311,162.628L166.311,158.299C166.311,153.751 170.003,150.059 174.551,150.059C179.099,150.059 182.791,153.751 182.791,158.299Z"/>
                <path id="Left-eye" serif:id="Left eye" d="M150.045,158.263L150.045,162.592C150.045,167.14 146.353,170.832 141.806,170.832C137.258,170.832 133.566,167.14 133.566,162.592L133.566,158.263C133.566,153.716 137.258,150.024 141.806,150.024C146.353,150.024 150.045,153.716 150.045,158.263Z"/>
            </g>
        </g>
    </g>
    <g id="Bun">
        <path id="Body" d="M119.587,151.438C119.587,151.438 130.15,158.773 134.144,166.211C138.139,173.648 140.434,181.429 140.022,190.429C139.61,199.428 136.091,213.883 131.595,217.372C127.1,220.861 121.771,223.008 114.43,223.008C107.089,223.008 35.326,222.983 35.326,222.983C35.326,222.983 26.895,223.275 22.322,218.089C17.749,212.903 15.785,207.577 15.785,198.819C15.785,190.06 17.096,176.422 27.66,163.209C34.406,154.773 50.841,143.773 63.925,143.726C72.77,143.694 79.882,143.828 79.882,143.828C79.882,143.828 66.732,138.056 56.313,130.888C45.893,123.72 37.804,116.539 37.804,116.539C37.804,116.539 34.001,111.552 40.549,111.302C47.096,111.051 59.261,113.09 66.599,117.369C73.937,121.648 90.6,136.516 95.433,144.428C96.653,144.257 102.492,144.086 105.194,145.169C104.466,144.342 94.975,135.131 90.975,129.426C86.975,123.721 72.734,110.141 84.657,111.059C95.9,111.924 100.613,118.486 103.867,121.349C106.975,124.084 115.192,132.767 119.587,151.438Z" style="fill:rgb(248,231,225);"/>
        <path d="M38.312,136.313C32.018,131.466 27.846,127.756 27.846,127.756C27.123,127.114 26.463,126.404 25.877,125.635C25.877,125.635 22.482,120.889 21.853,116.007C21.301,111.722 22.229,107.448 24.933,103.726C27.127,100.707 31.061,96.653 39.976,96.313C47.23,96.035 59.715,97.991 69.228,101.984C69.507,101.676 69.797,101.374 70.1,101.08C72.713,98.543 77.351,95.452 85.808,96.103C101.941,97.345 109.107,105.979 113.776,110.088C117.419,113.294 127.003,122.73 132.835,142.839C137.369,146.659 144.026,152.907 147.359,159.114C152.633,168.933 155.55,179.232 155.006,191.114C154.647,198.977 152.335,210.166 149.086,217.673C146.745,223.083 143.623,227.025 140.792,229.222C133.879,234.588 125.722,238.008 114.43,238.008C107.088,238.008 35.321,237.983 35.321,237.983L35.847,237.973C35.847,237.973 19.86,237.977 11.072,228.01C4.116,220.123 0.785,212.14 0.785,198.819C0.785,187.744 2.587,170.548 15.945,153.842C20.635,147.976 28.962,141.305 38.312,136.313ZM119.587,151.438C115.192,132.767 106.975,124.084 103.867,121.349C100.613,118.486 95.9,111.924 84.657,111.059C72.734,110.141 86.975,123.721 90.975,129.426C94.975,135.131 104.466,144.342 105.194,145.169C102.492,144.086 96.653,144.257 95.433,144.428C90.6,136.516 73.937,121.648 66.599,117.369C59.261,113.09 47.096,111.051 40.549,111.302C34.001,111.552 37.804,116.539 37.804,116.539C37.804,116.539 45.893,123.72 56.313,130.888C66.732,138.056 79.882,143.828 79.882,143.828C79.882,143.828 72.77,143.694 63.925,143.726C50.841,143.773 34.406,154.773 27.66,163.209C17.096,176.422 15.785,190.06 15.785,198.819C15.785,207.577 17.749,212.903 22.322,218.089C26.895,223.275 35.326,222.983 35.326,222.983C35.326,222.983 107.089,223.008 114.43,223.008C121.771,223.008 127.1,220.861 131.595,217.372C136.091,213.883 139.61,199.428 140.022,190.429C140.434,181.429 138.139,173.648 134.144,166.211C130.15,158.773 119.587,151.438 119.587,151.438Z"/>
        <g id="Eyes1" serif:id="Eyes">
            <path id="Right-eye1" serif:id="Right eye" d="M67.581,179.15C69.804,185.658 75.198,187.714 79.287,187.751C83.886,187.792 88.834,186.388 91.971,178.586" style="fill:none;stroke:black;stroke-width:10px;"/>
            <path id="Left-eye1" serif:id="Left eye" d="M109.721,179.117C111.815,185.247 116.896,187.185 120.748,187.219C125.08,187.258 129.742,185.935 132.697,178.586" style="fill:none;stroke:black;stroke-width:10px;"/>
        </g>
    </g>
    <path id="Arm" d="M196.917,215.015L143.172,221.512C135.003,222.499 127.569,216.669 126.582,208.5C125.611,200.473 131.34,193.168 139.367,192.198L193.369,185.67" style="fill:rgb(209,160,132);stroke:black;stroke-width:10px;stroke-linecap:butt;"/>
</svg>
