<?xml version="1.0" encoding="UTF-8" standalone="no"?>
<!DOCTYPE svg PUBLIC "-//W3C//DTD SVG 1.1//EN" "http://www.w3.org/Graphics/SVG/1.1/DTD/svg11.dtd">
<svg width="100%" height="100%" viewBox="0 0 256 256" version="1.1" xmlns="http://www.w3.org/2000/svg" xmlns:xlink="http://www.w3.org/1999/xlink" xml:space="preserve" xmlns:serif="http://www.serif.com/" style="fill-rule:evenodd;clip-rule:evenodd;stroke-linecap:round;stroke-linejoin:round;stroke-miterlimit:1.5;">
    <rect id="neobread_think" x="0" y="0" width="256" height="256" style="fill:none;"/>
    <path id="Hand-outline" serif:id="Hand outline" d="M80.005,207.858L80.005,230.214C80.005,238.958 72.906,246.057 64.162,246.057L29.207,246.057C20.463,246.057 13.365,238.958 13.365,230.214L13.365,198.529C13.365,191.304 18.212,185.202 24.829,183.301L24.829,168.687C24.829,162.804 29.606,158.027 35.489,158.027C41.372,158.027 46.149,162.804 46.149,168.687L46.149,182.687L104.778,182.687C111.724,182.687 117.363,188.326 117.363,195.272C117.363,202.218 111.724,207.858 104.778,207.858L80.005,207.858Z" style="fill:none;stroke:black;stroke-width:15px;"/>
    <path id="Crust" d="M192.734,26.885C222.946,26.885 247.473,51.413 247.473,81.624C247.473,94.467 243.041,106.282 235.623,115.623L235.623,200.464C235.623,216.277 222.785,229.115 206.972,229.115L48.771,229.115C32.958,229.115 20.12,216.277 20.12,200.464L20.12,115.297C12.857,106.008 8.527,94.318 8.527,81.624C8.527,51.413 33.054,26.885 63.266,26.885L192.734,26.885Z" style="fill:rgb(209,160,132);stroke:black;stroke-width:15px;"/>
    <rect id="Shadow" x="122.332" y="112.959" width="105.66" height="15.248" style="fill:rgb(186,133,109);"/>
    <path id="Slice" d="M42.009,112.691C33.24,105.704 27.616,94.934 27.616,82.861C27.616,61.82 44.698,44.738 65.738,44.738L135.611,44.738C156.652,44.738 173.734,61.82 173.734,82.861C173.734,94.528 168.481,104.979 160.213,111.974L160.213,196.732C160.213,204.964 153.53,211.647 145.299,211.647L56.924,211.647C48.692,211.647 42.009,204.964 42.009,196.732L42.009,112.691Z" style="fill:rgb(252,233,186);"/>
    <g id="Face">
        <path id="Mouth" d="M78.313,168.393L94.229,152.908L113.963,168.803" style="fill:none;stroke:black;stroke-width:10px;"/>
        <g id="Eyes">
            <path id="Right-eye" serif:id="Right eye" d="M143.646,111.927L143.646,119.873C143.646,128.22 136.869,134.997 128.522,134.997C120.174,134.997 113.397,128.22 113.397,119.873L113.397,111.927C113.397,103.58 120.174,96.803 128.522,96.803C136.869,96.803 143.646,103.58 143.646,111.927Z"/>
            <path id="Left-eye" serif:id="Left eye" d="M83.541,111.862L83.541,119.808C83.541,128.155 76.764,134.932 68.417,134.932C60.07,134.932 53.293,128.155 53.293,119.808L53.293,111.862C53.293,103.515 60.07,96.738 68.417,96.738C76.764,96.738 83.541,103.515 83.541,111.862Z"/>
        </g>
    </g>
    <path id="Hand" d="M80.005,207.858L80.005,230.214C80.005,238.958 72.906,246.057 64.162,246.057L29.207,246.057C20.463,246.057 13.365,238.958 13.365,230.214L13.365,198.529C13.365,191.304 18.212,185.202 24.829,183.301L24.829,168.687C24.829,162.804 29.606,158.027 35.489,158.027C41.372,158.027 46.149,162.804 46.149,168.687L46.149,182.687L104.778,182.687C111.724,182.687 117.363,188.326 117.363,195.272C117.363,202.218 111.724,207.858 104.778,207.858L80.005,207.858Z" style="fill:rgb(186,133,109);stroke:black;stroke-width:10px;"/>
</svg>
