<?xml version="1.0" encoding="UTF-8" standalone="no"?>
<!DOCTYPE svg PUBLIC "-//W3C//DTD SVG 1.1//EN" "http://www.w3.org/Graphics/SVG/1.1/DTD/svg11.dtd">
<svg width="100%" height="100%" viewBox="0 0 256 256" version="1.1" xmlns="http://www.w3.org/2000/svg" xmlns:xlink="http://www.w3.org/1999/xlink" xml:space="preserve" xmlns:serif="http://www.serif.com/" style="fill-rule:evenodd;clip-rule:evenodd;stroke-linecap:round;stroke-linejoin:round;stroke-miterlimit:1.5;">
    <rect id="neobread_upside_down" x="0" y="0" width="256" height="256" style="fill:none;"/>
    <path id="Crust" d="M192.734,229.115C222.946,229.115 247.473,204.587 247.473,174.376C247.473,161.533 243.041,149.718 235.623,140.377L235.623,55.536C235.623,39.723 222.785,26.885 206.972,26.885L48.771,26.885C32.958,26.885 20.12,39.723 20.12,55.536L20.12,140.703C12.857,149.992 8.527,161.682 8.527,174.376C8.527,204.587 33.054,229.115 63.266,229.115L192.734,229.115Z" style="fill:rgb(209,160,132);stroke:black;stroke-width:15px;"/>
    <rect id="Shadow" x="122.332" y="127.793" width="105.66" height="15.248" style="fill:rgb(186,133,109);"/>
    <path id="Slice" d="M42.009,143.309C33.24,150.296 27.616,161.066 27.616,173.139C27.616,194.18 44.698,211.262 65.738,211.262L135.611,211.262C156.652,211.262 173.734,194.18 173.734,173.139C173.734,161.472 168.481,151.021 160.213,144.026L160.213,59.268C160.213,51.036 153.53,44.353 145.299,44.353L56.924,44.353C48.692,44.353 42.009,51.036 42.009,59.268L42.009,143.309Z" style="fill:rgb(252,233,186);"/>
    <g id="Face">
        <path id="Mouth" d="M65.596,100.28L76.372,82.163L90.892,100.248L108.879,82.213L130.306,100.227" style="fill:none;stroke:black;stroke-width:10px;"/>
        <g id="Eyes">
            <path id="Right-eye" serif:id="Right eye" d="M143.057,144.258L143.057,136.312C143.057,127.964 136.28,121.187 127.933,121.187C119.586,121.187 112.809,127.964 112.809,136.312L112.809,144.258C112.809,152.605 119.586,159.382 127.933,159.382C136.28,159.382 143.057,152.605 143.057,144.258Z"/>
            <path id="Left-eye" serif:id="Left eye" d="M82.953,144.322L82.953,136.376C82.953,128.029 76.176,121.252 67.828,121.252C59.481,121.252 52.704,128.029 52.704,136.376L52.704,144.322C52.704,152.669 59.481,159.446 67.828,159.446C76.176,159.446 82.953,152.669 82.953,144.322Z"/>
        </g>
    </g>
</svg>
