<?xml version="1.0" encoding="UTF-8" standalone="no"?>
<!DOCTYPE svg PUBLIC "-//W3C//DTD SVG 1.1//EN" "http://www.w3.org/Graphics/SVG/1.1/DTD/svg11.dtd">
<svg width="100%" height="100%" viewBox="0 0 256 256" version="1.1" xmlns="http://www.w3.org/2000/svg" xmlns:xlink="http://www.w3.org/1999/xlink" xml:space="preserve" xmlns:serif="http://www.serif.com/" style="fill-rule:evenodd;clip-rule:evenodd;stroke-linecap:round;stroke-linejoin:round;stroke-miterlimit:1.5;">
    <rect id="neobread_kisser" x="0" y="0" width="256" height="256" style="fill:none;"/>
    <path id="Crust" d="M192.734,26.885C222.946,26.885 247.473,51.413 247.473,81.624C247.473,94.467 243.041,106.282 235.623,115.623L235.623,200.464C235.623,216.277 222.785,229.115 206.972,229.115L48.771,229.115C32.958,229.115 20.12,216.277 20.12,200.464L20.12,115.297C12.857,106.008 8.527,94.318 8.527,81.624C8.527,51.413 33.054,26.885 63.266,26.885L192.734,26.885Z" style="fill:rgb(209,160,132);stroke:black;stroke-width:15px;"/>
    <rect id="Shadow" x="122.332" y="112.959" width="105.66" height="15.248" style="fill:rgb(186,133,109);"/>
    <path id="Slice" d="M42.009,112.691C33.24,105.704 27.616,94.934 27.616,82.861C27.616,61.82 44.698,44.738 65.738,44.738L135.611,44.738C156.652,44.738 173.734,61.82 173.734,82.861C173.734,94.528 168.481,104.979 160.213,111.974L160.213,196.732C160.213,204.964 153.53,211.647 145.299,211.647L56.924,211.647C48.692,211.647 42.009,204.964 42.009,196.732L42.009,112.691Z" style="fill:rgb(252,233,186);"/>
    <g id="Face">
        <path id="Mouth" d="M62.223,161.384C63.998,167.605 65.13,176.551 74.563,176.398C83.56,176.252 87.447,171.219 90.047,162.319C92.809,170.194 101.358,177.325 111.969,177.146C125.951,176.911 131.258,169.034 133.947,161.393" style="fill:none;stroke:black;stroke-width:10px;"/>
        <g id="Eyes">
            <g id="Right-eye" serif:id="Right eye">
                <path id="White" d="M145.305,100.417L101.71,100.417L101.71,112.322C101.71,124.352 111.477,134.12 123.508,134.12C135.538,134.12 145.305,124.352 145.305,112.322L145.305,100.417Z" style="fill:white;"/>
                <path id="Pupil" d="M130.976,100.417L107.231,100.417L107.231,113.972C107.231,120.524 112.551,125.844 119.103,125.844C125.656,125.844 130.976,120.524 130.976,113.972L130.976,100.417Z"/>
            </g>
            <g id="Left-eye" serif:id="Left eye">
                <path id="White1" serif:id="White" d="M46.253,100.789L89.848,100.789L89.848,112.694C89.848,124.725 80.081,134.492 68.05,134.492C56.02,134.492 46.253,124.725 46.253,112.694L46.253,100.789Z" style="fill:white;"/>
                <path id="Pupil1" serif:id="Pupil" d="M60.582,100.789L84.327,100.789L84.327,114.344C84.327,120.897 79.007,126.217 72.455,126.217C65.902,126.217 60.582,120.897 60.582,114.344L60.582,100.789Z"/>
            </g>
        </g>
        <path id="Blush-right" serif:id="Blush right" d="M130.443,145.749L142.369,138.169L142.369,151.93L154.352,146.453" style="fill:none;stroke:rgb(250,41,41);stroke-width:10px;"/>
        <path id="Blush-left" serif:id="Blush left" d="M42.722,146.114L54.648,138.533L54.648,152.294L66.632,146.817" style="fill:none;stroke:rgb(250,41,41);stroke-width:10px;"/>
    </g>
</svg>
