<?xml version="1.0" encoding="UTF-8" standalone="no"?>
<!DOCTYPE svg PUBLIC "-//W3C//DTD SVG 1.1//EN" "http://www.w3.org/Graphics/SVG/1.1/DTD/svg11.dtd">
<svg width="100%" height="100%" viewBox="0 0 256 256" version="1.1" xmlns="http://www.w3.org/2000/svg" xmlns:xlink="http://www.w3.org/1999/xlink" xml:space="preserve" xmlns:serif="http://www.serif.com/" style="fill-rule:evenodd;clip-rule:evenodd;stroke-linecap:round;stroke-linejoin:round;stroke-miterlimit:1.5;">
    <rect id="neobread_3c" x="0" y="0" width="256" height="256" style="fill:none;"/>
    <path id="Crust" d="M192.734,26.885C222.946,26.885 247.473,51.413 247.473,81.624C247.473,94.467 243.041,106.282 235.623,115.623L235.623,200.464C235.623,216.277 222.785,229.115 206.972,229.115L48.771,229.115C32.958,229.115 20.12,216.277 20.12,200.464L20.12,115.297C12.857,106.008 8.527,94.318 8.527,81.624C8.527,51.413 33.054,26.885 63.266,26.885L192.734,26.885Z" style="fill:rgb(209,160,132);stroke:black;stroke-width:15px;"/>
    <rect id="Shadow" x="122.332" y="112.959" width="105.66" height="15.248" style="fill:rgb(186,133,109);"/>
    <path id="Slice" d="M42.009,112.691C33.24,105.704 27.616,94.934 27.616,82.861C27.616,61.82 44.698,44.738 65.738,44.738L135.611,44.738C156.652,44.738 173.734,61.82 173.734,82.861C173.734,94.528 168.481,104.979 160.213,111.974L160.213,196.732C160.213,204.964 153.53,211.647 145.299,211.647L56.924,211.647C48.692,211.647 42.009,204.964 42.009,196.732L42.009,112.691Z" style="fill:rgb(252,233,186);"/>
    <g id="Face">
        <path id="Mouth" d="M65.596,145.72L76.372,163.837L90.892,145.752L108.879,163.787L130.306,145.773" style="fill:none;stroke:black;stroke-width:10px;"/>
        <g id="Eyes">
            <path id="Right-eye" serif:id="Right eye" d="M113.089,122.597C112.905,121.656 112.809,120.683 112.809,119.688L112.809,111.742C112.809,103.395 119.586,96.618 127.933,96.618C136.28,96.618 143.057,103.395 143.057,111.742L143.057,119.688C143.057,120.683 142.961,121.656 142.777,122.597L113.089,122.597Z"/>
            <path id="Left-eye" serif:id="Left eye" d="M52.997,122.597C52.805,121.636 52.704,120.641 52.704,119.624L52.704,111.678C52.704,103.331 59.481,96.554 67.828,96.554C76.176,96.554 82.953,103.331 82.953,111.678L82.953,119.624C82.953,120.641 82.852,121.636 82.66,122.597L52.997,122.597Z"/>
        </g>
    </g>
    <path id="Left-hand" serif:id="Left hand" d="M47.21,226.367L66.847,206.73C75.037,198.541 75.037,185.243 66.847,177.054C58.8,169.007 45.734,169.007 37.687,177.054L17.792,196.949" style="fill:rgb(209,160,132);stroke:black;stroke-width:10px;stroke-linecap:butt;"/>
</svg>
