<?xml version="1.0" encoding="UTF-8" standalone="no"?>
<!DOCTYPE svg PUBLIC "-//W3C//DTD SVG 1.1//EN" "http://www.w3.org/Graphics/SVG/1.1/DTD/svg11.dtd">
<svg width="100%" height="100%" viewBox="0 0 256 256" version="1.1" xmlns="http://www.w3.org/2000/svg" xmlns:xlink="http://www.w3.org/1999/xlink" xml:space="preserve" xmlns:serif="http://www.serif.com/" style="fill-rule:evenodd;clip-rule:evenodd;stroke-linecap:round;stroke-linejoin:round;stroke-miterlimit:1.5;">
    <rect id="neobread_laptop" x="0" y="0" width="256" height="256" style="fill:none;"/>
    <g id="Bread">
        <path id="Crust" d="M201.102,34.771C226.196,34.771 246.568,55.144 246.568,80.237C246.568,90.904 242.886,100.718 236.726,108.476L236.726,178.945C236.726,192.079 226.062,202.742 212.928,202.742L81.528,202.742C68.393,202.742 57.73,192.079 57.73,178.945L57.73,108.206C51.698,100.49 48.101,90.78 48.101,80.237C48.101,55.144 68.473,34.771 93.567,34.771L201.102,34.771Z" style="fill:rgb(209,160,132);stroke:black;stroke-width:15px;"/>
        <rect id="Shadow" x="142.627" y="106.264" width="86.55" height="12.665" style="fill:rgb(186,133,109);"/>
        <path id="Slice" d="M75.911,106.041C68.627,100.237 63.956,91.292 63.956,81.264C63.956,63.788 78.144,49.6 95.62,49.6L153.656,49.6C171.132,49.6 185.321,63.788 185.321,81.264C185.321,90.955 180.958,99.635 174.091,105.445L174.091,175.845C174.091,182.682 168.54,188.233 161.703,188.233L88.299,188.233C81.462,188.233 75.911,182.682 75.911,175.845L75.911,106.041Z" style="fill:rgb(252,233,186);"/>
        <g id="Eyes">
            <path id="Right-eye" serif:id="Right eye" d="M159.841,105.253L159.841,111.853C159.841,118.786 154.212,124.415 147.279,124.415C140.346,124.415 134.717,118.786 134.717,111.853L134.717,105.253C134.717,98.32 140.346,92.691 147.279,92.691C154.212,92.691 159.841,98.32 159.841,105.253Z"/>
            <path id="Left-eye" serif:id="Left eye" d="M109.918,105.199L109.918,111.799C109.918,118.732 104.289,124.361 97.356,124.361C90.423,124.361 84.794,118.732 84.794,111.799L84.794,105.199C84.794,98.266 90.423,92.637 97.356,92.637C104.289,92.637 109.918,98.266 109.918,105.199Z"/>
        </g>
    </g>
    <g id="Laptop">
        <path d="M154.798,151.911L10.438,151.911L33.092,242.911L177.452,242.911L154.798,151.911Z" style="fill:rgb(185,185,185);"/>
        <path d="M175.714,204.937L182.447,231.067L215.126,208.713C215.126,208.713 212.822,205.182 205.922,205.035C202.196,204.956 175.714,204.937 175.714,204.937Z" style="fill:rgb(185,185,185);"/>
        <path d="M10.488,152.114C10.488,152.114 12.123,144.41 19.931,144.384C27.74,144.359 155.395,144.577 155.395,144.577C155.395,144.577 161.037,145.264 162.608,152.114C164.179,158.964 182.559,230.73 182.559,230.73L215.126,208.712C215.126,208.712 218.308,215.154 213.454,218.333C208.599,221.512 177.162,242.911 177.162,242.911L154.88,152.114L10.488,152.114Z" style="fill:rgb(144,144,144);"/>
        <path d="M87.655,184.602L102.887,192.216L106.978,207.444L95.835,215.057L80.603,207.444L76.512,192.216L87.655,184.602Z" style="fill:none;stroke:black;stroke-width:11px;stroke-linecap:butt;stroke-miterlimit:2;"/>
        <path d="M87.655,184.602L102.887,192.216L106.978,207.444L95.835,215.057L80.603,207.444L76.512,192.216L87.655,184.602Z" style="fill:none;stroke:white;stroke-width:5px;"/>
        <path id="Laptop-outline" serif:id="Laptop outline" d="M177.721,252.647C177.548,252.818 177.452,252.911 177.452,252.911L33.092,252.911C28.5,252.911 24.498,249.784 23.388,245.327L0.734,154.327C1.843,158.783 5.845,161.911 10.438,161.911C7.369,161.88 4.481,160.441 2.609,158.005C0.716,155.541 0.076,152.339 0.875,149.337C1.527,146.89 5.721,134.43 19.899,134.384C27.711,134.359 155.413,134.577 155.413,134.577C155.811,134.578 156.208,134.602 156.603,134.65C156.603,134.65 169.056,135.492 172.355,149.879C173.184,153.496 178.724,175.296 183.742,194.972C191.83,195.007 203.474,195.053 205.848,195.035C218.078,194.945 223.127,202.714 223.127,202.714C223.534,203.257 223.885,203.841 224.174,204.456C224.174,204.456 226.352,209.108 226.074,214.157C225.824,218.685 223.987,223.388 218.932,226.699C214.35,229.7 185.979,249.007 183.036,251.01L177.721,252.647ZM10.538,151.911L10.438,151.911L33.092,242.911L177.452,242.911L177.41,242.743C180.365,240.732 208.852,221.347 213.454,218.333C218.192,215.23 215.126,208.713 215.126,208.713C215.126,208.713 212.333,204.988 205.922,205.035C202.409,205.061 178.668,204.948 175.965,204.938C170.524,183.625 163.549,156.218 162.608,152.114C161.037,145.264 155.395,144.577 155.395,144.577C155.395,144.577 27.74,144.359 19.931,144.384C12.879,144.407 10.863,150.694 10.538,151.911ZM157.074,161.057L154.848,152.114L154.88,152.114L157.074,161.057Z"/>
    </g>
</svg>
