<?xml version="1.0" encoding="UTF-8" standalone="no"?>
<!DOCTYPE svg PUBLIC "-//W3C//DTD SVG 1.1//EN" "http://www.w3.org/Graphics/SVG/1.1/DTD/svg11.dtd">
<svg width="100%" height="100%" viewBox="0 0 256 256" version="1.1" xmlns="http://www.w3.org/2000/svg" xmlns:xlink="http://www.w3.org/1999/xlink" xml:space="preserve" xmlns:serif="http://www.serif.com/" style="fill-rule:evenodd;clip-rule:evenodd;stroke-linecap:round;stroke-linejoin:round;stroke-miterlimit:1.5;">
    <rect id="neobread_hug_bee_heart" x="0" y="0" width="256" height="256" style="fill:none;"/>
    <clipPath id="_clip1">
        <rect x="0" y="0" width="256" height="256"/>
    </clipPath>
    <g clip-path="url(#_clip1)">
        <g id="Right-bread" serif:id="Right bread">
            <path id="Crust" d="M213.578,107.289C231.759,107.289 246.519,122.049 246.519,140.229C246.519,147.958 243.851,155.068 239.388,160.69L239.388,211.745C239.388,221.261 231.662,228.987 222.146,228.987L126.944,228.987C117.428,228.987 109.702,221.261 109.702,211.745L109.702,160.494C105.332,154.904 102.726,147.868 102.726,140.229C102.726,122.049 117.486,107.289 135.666,107.289L213.578,107.289Z" style="fill:rgb(209,160,132);stroke:black;stroke-width:15px;"/>
            <rect id="Shadow" x="171.212" y="159.086" width="60.449" height="9.176" style="fill:rgb(186,133,109);"/>
            <path id="Slice" d="M124.789,159.431C119.798,155.454 116.597,149.324 116.597,142.453C116.597,130.478 126.319,120.756 138.294,120.756L178.062,120.756C190.038,120.756 199.76,130.478 199.76,142.453C199.76,149.094 196.77,155.041 192.065,159.023L192.065,207.263C192.065,211.948 188.261,215.751 183.576,215.751L133.278,215.751C128.593,215.751 124.789,211.948 124.789,207.263L124.789,159.431Z" style="fill:rgb(252,233,186);"/>
            <g id="Face">
                <path id="Mouth" d="M137.069,184.819L143.553,195.722L152.291,184.838L163.116,195.691L176.01,184.851" style="fill:none;stroke:black;stroke-width:6.02px;"/>
                <g id="Eyes">
                    <path id="Right-eye" serif:id="Right eye" d="M182.791,158.299L182.791,162.628C182.791,167.175 179.099,170.867 174.551,170.867C170.003,170.867 166.311,167.175 166.311,162.628L166.311,158.299C166.311,153.751 170.003,150.059 174.551,150.059C179.099,150.059 182.791,153.751 182.791,158.299Z"/>
                    <path id="Left-eye" serif:id="Left eye" d="M150.045,158.263L150.045,162.592C150.045,167.14 146.353,170.832 141.806,170.832C137.258,170.832 133.566,167.14 133.566,162.592L133.566,158.263C133.566,153.716 137.258,150.024 141.806,150.024C146.353,150.024 150.045,153.716 150.045,158.263Z"/>
                </g>
            </g>
        </g>
        <g id="Bee">
            <path id="Wings-outline" serif:id="Wings outline" d="M110.745,156.03C110.264,156.664 109.756,157.283 109.222,157.887C96.515,172.247 69.614,173.528 49.337,157.001C28.491,140.011 25.525,113.512 38.587,98.749C47.306,88.895 62.533,85.109 77.842,89.058C86.093,76.311 99.436,69.125 112.01,70.535C130.637,72.624 145.593,93.068 141.795,118.255C138.816,138.016 125.351,152.303 110.745,156.03ZM101.433,141.862C101.563,141.88 101.693,141.897 101.824,141.911C113.349,143.204 124.613,131.601 126.963,116.018C129.312,100.435 121.863,86.734 110.338,85.442C99.446,84.22 88.787,94.517 85.666,108.806C72.902,100.312 57.47,100.044 49.821,108.689C41.492,118.102 45.521,134.54 58.813,145.374C72.105,156.207 89.659,157.36 97.988,147.947C99.581,146.147 100.722,144.089 101.433,141.862Z"/>
            <path id="Body" d="M101.632,122.19C60.216,108.805 19.078,120.269 9.822,147.774C0.566,175.28 26.676,208.478 68.091,221.864C109.507,235.249 150.646,223.785 159.902,196.279C169.157,168.774 143.048,135.575 101.632,122.19Z" style="fill:rgb(254,194,7);"/>
            <g id="Stripes">
                <path d="M72.106,119.922C73.042,120.387 14.092,130.209 21.345,190.838C-24.609,118.841 70.553,114.09 72.106,119.922Z" style="fill:rgb(85,85,85);"/>
                <path d="M21.477,191.456C12.69,133.339 70.544,119.532 69.861,117.897L93.248,121.28C93.248,121.28 22.807,135.228 34.786,203.364L23.488,192.104" style="fill:rgb(254,194,7);"/>
                <path d="M50.819,214.488L34.908,203.338C22.865,135.125 94.218,118.611 94.222,118.636L107.151,122.948C107.262,122.945 34.379,144.792 50.819,214.488Z" style="fill:rgb(85,85,85);"/>
                <path d="M106.191,123.208L120.64,130.216C120.64,130.216 50.985,152.546 66.54,221.474L51.255,215.377C31.618,147.909 107.068,123.626 108.347,124.254" style="fill:rgb(254,194,7);"/>
                <path d="M123.582,130.963L134.978,138.843C134.978,138.843 69.586,153.467 83.352,225.038L66.54,221.474C48.664,150.802 121.617,132.176 123.582,130.963Z" style="fill:rgb(85,85,85);"/>
            </g>
            <path id="Body-outline" serif:id="Body outline" d="M101.632,122.19C60.216,108.805 19.078,120.269 9.822,147.774C0.566,175.28 26.676,208.478 68.091,221.864C109.507,235.249 150.646,223.785 159.902,196.279C169.157,168.774 143.048,135.575 101.632,122.19Z" style="fill:none;stroke:black;stroke-width:15px;"/>
            <g id="Wings">
                <path id="Back-wing" serif:id="Back wing" d="M110.338,85.442C98.814,84.15 87.549,95.752 85.2,111.335C82.85,126.918 90.3,140.619 101.824,141.911C113.349,143.204 124.613,131.601 126.963,116.018C129.312,100.435 121.863,86.734 110.338,85.442Z" style="fill:rgb(167,167,167);"/>
                <path id="Front-wing" serif:id="Front wing" d="M49.821,108.689C41.492,118.102 45.521,134.54 58.813,145.374C72.105,156.207 89.659,157.36 97.988,147.947C106.317,138.534 102.287,122.096 88.995,111.263C75.703,100.429 58.15,99.276 49.821,108.689Z" style="fill:rgb(195,195,195);"/>
            </g>
            <g id="Face1" serif:id="Face">
                <path id="Mouth1" serif:id="Mouth" d="M141.675,196.667L136.589,205.242L129.549,196.789L120.819,205.411L110.466,196.78" style="fill:none;stroke:black;stroke-width:6.5px;"/>
                <g id="Eyes1" serif:id="Eyes">
                    <path id="Right-eye1" serif:id="Right eye" d="M133.438,175.554C134.606,178.974 137.441,180.056 139.591,180.075C142.008,180.096 144.609,179.358 146.258,175.257" style="fill:none;stroke:black;stroke-width:7px;"/>
                    <path id="Left-eye1" serif:id="Left eye" d="M105.341,175.554C106.509,178.974 109.344,180.056 111.494,180.075C113.911,180.096 116.513,179.358 118.161,175.257" style="fill:none;stroke:black;stroke-width:7px;"/>
                </g>
            </g>
        </g>
        <path id="Arm" d="M192.517,212.327L156.56,212.327C148.332,212.327 141.651,205.646 141.651,197.418C141.651,189.332 148.215,182.768 156.301,182.768L192.517,182.768" style="fill:rgb(209,160,132);stroke:black;stroke-width:10px;stroke-linecap:butt;"/>
        <path id="Heart" d="M100.241,60.968L90.15,50.877C80.47,41.197 80.47,25.478 90.15,15.797C99.831,6.116 115.55,6.116 125.231,15.797L128,18.566L130.769,15.797C140.45,6.116 156.169,6.116 165.85,15.797C175.53,25.478 175.53,41.197 165.85,50.877L155.759,60.968C155.367,61.518 154.923,62.043 154.43,62.536L136.889,80.076C134.439,82.527 131.215,83.737 128,83.706C124.785,83.737 121.561,82.527 119.111,80.076L101.57,62.536C101.077,62.043 100.633,61.518 100.241,60.968Z" style="fill:rgb(239,124,148);stroke:black;stroke-width:15px;stroke-linejoin:miter;stroke-miterlimit:5;"/>
    </g>
</svg>
