<?xml version="1.0" encoding="UTF-8" standalone="no"?>
<!DOCTYPE svg PUBLIC "-//W3C//DTD SVG 1.1//EN" "http://www.w3.org/Graphics/SVG/1.1/DTD/svg11.dtd">
<svg width="100%" height="100%" viewBox="0 0 256 256" version="1.1" xmlns="http://www.w3.org/2000/svg" xmlns:xlink="http://www.w3.org/1999/xlink" xml:space="preserve" xmlns:serif="http://www.serif.com/" style="fill-rule:evenodd;clip-rule:evenodd;stroke-linecap:round;stroke-linejoin:round;stroke-miterlimit:1.5;">
    <rect id="neobread_woem" x="0" y="0" width="256" height="256" style="fill:none;"/>
    <path id="Crust" d="M192.734,26.885C222.946,26.885 247.473,51.413 247.473,81.624C247.473,94.467 243.041,106.282 235.623,115.623L235.623,200.464C235.623,216.277 222.785,229.115 206.972,229.115L48.771,229.115C32.958,229.115 20.12,216.277 20.12,200.464L20.12,115.297C12.857,106.008 8.527,94.318 8.527,81.624C8.527,51.413 33.054,26.885 63.266,26.885L192.734,26.885Z" style="fill:rgb(209,160,132);stroke:black;stroke-width:15px;"/>
    <rect id="Shadow" x="122.332" y="112.959" width="105.66" height="15.248" style="fill:rgb(186,133,109);"/>
    <path id="Slice" d="M42.009,112.691C33.24,105.704 27.616,94.934 27.616,82.861C27.616,61.82 44.698,44.738 65.738,44.738L135.611,44.738C156.652,44.738 173.734,61.82 173.734,82.861C173.734,94.528 168.481,104.979 160.213,111.974L160.213,196.732C160.213,204.964 153.53,211.647 145.299,211.647L56.924,211.647C48.692,211.647 42.009,204.964 42.009,196.732L42.009,112.691Z" style="fill:rgb(252,233,186);"/>
    <g id="Face">
        <path id="Mouth" d="M105.41,178.508C104.457,180.856 102.257,182.462 99.73,182.653C97.203,182.844 94.787,181.587 93.492,179.409C88.722,171.383 82.427,160.791 77.86,153.107C76.634,151.045 76.61,148.484 77.796,146.399C78.982,144.315 81.196,143.027 83.595,143.027C91.66,143.027 102.254,143.027 109.896,143.027C112.116,143.027 114.19,144.131 115.43,145.972C116.67,147.813 116.913,150.15 116.079,152.206C113.051,159.671 108.748,170.278 105.41,178.508Z"/>
        <g id="Eyes">
            <path id="Right-eye" serif:id="Right eye" d="M142.057,111.337L142.057,119.283C142.057,127.631 135.28,134.407 126.933,134.407C118.586,134.407 111.809,127.631 111.809,119.283L111.809,111.337C111.809,102.99 118.586,96.213 126.933,96.213C135.28,96.213 142.057,102.99 142.057,111.337Z"/>
            <path id="Left-eye" serif:id="Left eye" d="M81.952,111.273L81.952,119.219C81.952,127.566 75.175,134.343 66.828,134.343C58.481,134.343 51.704,127.566 51.704,119.219L51.704,111.273C51.704,102.925 58.481,96.149 66.828,96.149C75.175,96.149 81.952,102.925 81.952,111.273Z"/>
        </g>
    </g>
</svg>
