<?xml version="1.0" encoding="UTF-8" standalone="no"?>
<!DOCTYPE svg PUBLIC "-//W3C//DTD SVG 1.1//EN" "http://www.w3.org/Graphics/SVG/1.1/DTD/svg11.dtd">
<svg width="100%" height="100%" viewBox="0 0 256 256" version="1.1" xmlns="http://www.w3.org/2000/svg" xmlns:xlink="http://www.w3.org/1999/xlink" xml:space="preserve" xmlns:serif="http://www.serif.com/" style="fill-rule:evenodd;clip-rule:evenodd;stroke-linecap:round;stroke-linejoin:round;stroke-miterlimit:1.5;">
    <rect id="neobread_pat" x="0" y="0" width="256" height="256" style="fill:none;"/>
    <path id="Crust" d="M192.734,26.885C222.946,26.885 247.473,51.413 247.473,81.624C247.473,94.467 243.041,106.282 235.623,115.623L235.623,200.464C235.623,216.277 222.785,229.115 206.972,229.115L48.771,229.115C32.958,229.115 20.12,216.277 20.12,200.464L20.12,115.297C12.857,106.008 8.527,94.318 8.527,81.624C8.527,51.413 33.054,26.885 63.266,26.885L192.734,26.885Z" style="fill:rgb(209,160,132);stroke:black;stroke-width:15px;"/>
    <rect id="Shadow" x="122.332" y="112.959" width="105.66" height="15.248" style="fill:rgb(186,133,109);"/>
    <path id="Slice" d="M42.009,112.691C33.24,105.704 27.616,94.934 27.616,82.861C27.616,61.82 44.698,44.738 65.738,44.738L135.611,44.738C156.652,44.738 173.734,61.82 173.734,82.861C173.734,94.528 168.481,104.979 160.213,111.974L160.213,196.732C160.213,204.964 153.53,211.647 145.299,211.647L56.924,211.647C48.692,211.647 42.009,204.964 42.009,196.732L42.009,112.691Z" style="fill:rgb(252,233,186);"/>
    <g id="Face">
        <path id="Mouth" d="M65.596,155.72L76.372,173.837L90.892,155.752L108.879,173.787L130.306,155.773" style="fill:none;stroke:black;stroke-width:10px;"/>
        <g id="Eyes">
            <path id="Right-eye" serif:id="Right eye" d="M139.619,105.292L113.841,120.202L139.771,131.466" style="fill:none;stroke:black;stroke-width:12.61px;"/>
            <path id="Left-eye" serif:id="Left eye" d="M52.172,105.292L77.95,120.202L52.02,131.466" style="fill:none;stroke:black;stroke-width:12.61px;"/>
        </g>
    </g>
    <g id="Hand">
        <path id="Main" d="M108.386,65.971L55.072,65.971C46.825,65.971 38.193,58.218 38.193,58.218L14.414,34.44L38.273,10.581L62.014,34.322L108.431,34.322L162.959,53.352C165.699,54.314 167.142,57.319 166.181,60.058C163.927,66.48 156.884,69.864 150.462,67.611L118.313,56.329C118.16,61.676 113.77,65.971 108.386,65.971Z" style="fill:white;"/>
        <path d="M108.386,75.971L55.072,75.971C43.652,75.971 31.511,65.658 31.511,65.658C31.378,65.539 31.248,65.416 31.122,65.289L7.343,41.511C3.438,37.606 3.438,31.274 7.343,27.369L31.202,3.51C35.108,-0.395 41.439,-0.395 45.344,3.51L66.156,24.322L108.431,24.322C109.553,24.322 110.667,24.511 111.726,24.88L166.254,43.911L166.27,43.917C174.218,46.706 178.406,55.422 175.617,63.37C171.535,74.999 158.78,81.128 147.15,77.046C147.15,77.046 123.682,68.811 123.682,68.81C120.025,73.186 114.528,75.971 108.386,75.971ZM108.386,65.971C113.77,65.971 118.16,61.676 118.313,56.329L150.462,67.611C156.884,69.864 163.927,66.48 166.181,60.058C167.142,57.319 165.699,54.314 162.959,53.352L108.431,34.322L62.014,34.322L38.273,10.581L14.414,34.44L38.193,58.218C38.193,58.218 46.825,65.971 55.072,65.971L108.386,65.971Z"/>
        <path id="Thumb" d="M68.907,69.461L110.876,69.461C115.457,69.461 119.175,64.852 119.175,59.174C119.175,53.497 115.457,48.888 110.876,48.888L68.907,48.888" style="fill:white;stroke:black;stroke-width:7px;"/>
    </g>
</svg>
