<?xml version="1.0" encoding="UTF-8" standalone="no"?>
<!DOCTYPE svg PUBLIC "-//W3C//DTD SVG 1.1//EN" "http://www.w3.org/Graphics/SVG/1.1/DTD/svg11.dtd">
<svg width="100%" height="100%" viewBox="0 0 256 256" version="1.1" xmlns="http://www.w3.org/2000/svg" xmlns:xlink="http://www.w3.org/1999/xlink" xml:space="preserve" xmlns:serif="http://www.serif.com/" style="fill-rule:evenodd;clip-rule:evenodd;stroke-linecap:round;stroke-linejoin:round;stroke-miterlimit:1.5;">
    <rect id="neobread_heart_eyes" x="0" y="0" width="256" height="256" style="fill:none;"/>
    <path id="Crust" d="M192.734,26.885C222.946,26.885 247.473,51.413 247.473,81.624C247.473,94.467 243.041,106.282 235.623,115.623L235.623,200.464C235.623,216.277 222.785,229.115 206.972,229.115L48.771,229.115C32.958,229.115 20.12,216.277 20.12,200.464L20.12,115.297C12.857,106.008 8.527,94.318 8.527,81.624C8.527,51.413 33.054,26.885 63.266,26.885L192.734,26.885Z" style="fill:rgb(209,160,132);stroke:black;stroke-width:15px;"/>
    <rect id="Shadow" x="122.332" y="112.959" width="105.66" height="15.248" style="fill:rgb(186,133,109);"/>
    <path id="Slice" d="M42.009,112.691C33.24,105.704 27.616,94.934 27.616,82.861C27.616,61.82 44.698,44.738 65.738,44.738L135.611,44.738C156.652,44.738 173.734,61.82 173.734,82.861C173.734,94.528 168.481,104.979 160.213,111.974L160.213,196.732C160.213,204.964 153.53,211.647 145.299,211.647L56.924,211.647C48.692,211.647 42.009,204.964 42.009,196.732L42.009,112.691Z" style="fill:rgb(252,233,186);"/>
    <g id="Face">
        <g id="Mouth">
            <path id="Mouth-backgorund" serif:id="Mouth backgorund" d="M123.9,160.688C123.9,171.755 114.915,180.74 103.848,180.74L87.896,180.74C76.689,180.74 67.59,171.642 67.59,160.434C67.59,154.023 72.795,148.817 79.207,148.817L112.028,148.817C118.58,148.817 123.9,154.136 123.9,160.688Z" style="fill:rgb(160,25,25);"/>
            <path id="Mouth-backgorund1" serif:id="Mouth backgorund" d="M93.162,180.74C92.529,179.557 92.186,178.294 92.186,176.982C92.186,170.317 101.023,164.907 111.908,164.907C115.976,164.907 119.757,165.662 122.899,166.957C120.264,174.958 112.726,180.74 103.848,180.74L93.162,180.74Z" style="fill:rgb(216,72,72);"/>
        </g>
        <g id="Eyes">
            <path id="Right-eye" serif:id="Right eye" d="M132.098,131.051L110.61,111.906C106.236,108.122 105.756,101.499 109.54,97.125C113.324,92.751 119.947,92.272 124.321,96.055L136.066,106.215L147.812,96.055C152.186,92.272 158.809,92.751 162.593,97.125C166.376,101.499 165.897,108.122 161.523,111.906L140.035,131.051C138.994,132.234 137.532,132.836 136.066,132.827C134.6,132.836 133.139,132.234 132.098,131.051Z" style="fill:rgb(239,124,148);"/>
            <path d="M121.655,141.837C121.653,141.836 121.651,141.833 121.648,141.831C121.214,141.444 100.694,123.161 100.704,123.169C90.154,113.956 89.023,97.916 98.196,87.311C107.396,76.676 123.499,75.511 134.134,84.711L136.066,86.382L137.999,84.711C148.634,75.511 164.737,76.676 173.937,87.311C183.11,97.916 181.979,113.956 171.439,123.161C171.439,123.161 150.478,141.837 150.488,141.827C146.557,145.805 141.317,147.839 136.068,147.827C130.811,147.836 125.581,145.805 121.655,141.837ZM132.098,131.051C133.139,132.234 134.6,132.836 136.066,132.827C137.532,132.836 138.994,132.234 140.035,131.051L161.523,111.906C165.897,108.122 166.376,101.499 162.593,97.125C158.809,92.751 152.186,92.272 147.812,96.055L136.066,106.215L124.321,96.055C119.947,92.272 113.324,92.751 109.54,97.125C105.756,101.499 106.236,108.122 110.61,111.906L132.098,131.051Z" style="fill:rgb(168,9,62);"/>
            <path id="Left-eye" serif:id="Left eye" d="M51.991,131.051L30.503,111.906C26.129,108.122 25.65,101.499 29.434,97.125C33.217,92.751 39.84,92.272 44.214,96.055L55.96,106.215L67.705,96.055C72.079,92.272 78.703,92.751 82.486,97.125C86.27,101.499 85.791,108.122 81.417,111.906L59.929,131.051C58.887,132.234 57.426,132.836 55.96,132.827C54.494,132.836 53.033,132.234 51.991,131.051Z" style="fill:rgb(239,124,148);"/>
            <path d="M41.548,141.837C41.547,141.836 41.545,141.833 41.542,141.831C41.108,141.444 20.587,123.161 20.597,123.169C10.048,113.956 8.916,97.916 18.089,87.311C27.289,76.676 43.393,75.511 54.028,84.711L55.96,86.382L57.892,84.711C68.527,75.511 84.631,76.676 93.831,87.311C103.004,97.916 101.872,113.956 91.333,123.161C91.333,123.161 70.371,141.837 70.381,141.827C66.451,145.805 61.211,147.839 55.961,147.827C50.705,147.836 45.475,145.805 41.548,141.837ZM51.991,131.051C53.033,132.234 54.494,132.836 55.96,132.827C57.426,132.836 58.887,132.234 59.929,131.051L81.417,111.906C85.791,108.122 86.27,101.499 82.486,97.125C78.703,92.751 72.079,92.272 67.705,96.055L55.96,106.215L44.214,96.055C39.84,92.272 33.217,92.751 29.434,97.125C25.65,101.499 26.129,108.122 30.503,111.906L51.991,131.051Z" style="fill:rgb(168,9,62);"/>
        </g>
    </g>
</svg>
