<?xml version="1.0" encoding="UTF-8" standalone="no"?>
<!DOCTYPE svg PUBLIC "-//W3C//DTD SVG 1.1//EN" "http://www.w3.org/Graphics/SVG/1.1/DTD/svg11.dtd">
<svg width="100%" height="100%" viewBox="0 0 256 256" version="1.1" xmlns="http://www.w3.org/2000/svg" xmlns:xlink="http://www.w3.org/1999/xlink" xml:space="preserve" xmlns:serif="http://www.serif.com/" style="fill-rule:evenodd;clip-rule:evenodd;stroke-linecap:round;stroke-linejoin:round;stroke-miterlimit:1.5;">
    <rect id="neobread_megaphone" x="0" y="0" width="256" height="256" style="fill:none;"/>
    <clipPath id="_clip1">
        <rect x="0" y="0" width="256" height="256"/>
    </clipPath>
    <g clip-path="url(#_clip1)">
        <g id="Bread">
            <path id="Crust" d="M-11.136,26.885C-41.347,26.885 -65.875,51.413 -65.875,81.624C-65.875,94.467 -61.442,106.282 -54.025,115.623L-54.025,200.464C-54.025,216.277 -41.187,229.115 -25.374,229.115L132.827,229.115C148.64,229.115 161.478,216.277 161.478,200.464L161.478,115.297C168.741,106.008 173.071,94.318 173.071,81.624C173.071,51.413 148.544,26.885 118.333,26.885L-11.136,26.885Z" style="fill:rgb(209,160,132);stroke:black;stroke-width:15px;"/>
            <rect id="Shadow" x="-46.394" y="112.959" width="105.66" height="15.248" style="fill:rgb(186,133,109);"/>
            <path id="Slice" d="M139.589,112.691C148.358,105.704 153.983,94.934 153.983,82.861C153.983,61.82 136.9,44.738 115.86,44.738L45.987,44.738C24.947,44.738 7.865,61.82 7.865,82.861C7.865,94.528 13.117,104.979 21.385,111.974L21.385,196.732C21.385,204.964 28.068,211.647 36.3,211.647L124.674,211.647C132.906,211.647 139.589,204.964 139.589,196.732L139.589,112.691Z" style="fill:rgb(252,233,186);"/>
            <g id="Face">
                <g id="Mouth">
                    <path id="Mouth-backgorund" serif:id="Mouth backgorund" d="M57.699,160.688C57.699,171.755 66.684,180.74 77.751,180.74L93.703,180.74C104.91,180.74 114.009,171.642 114.009,160.434C114.009,154.023 108.803,148.817 102.391,148.817L69.57,148.817C63.018,148.817 57.699,154.136 57.699,160.688Z" style="fill:rgb(160,25,25);"/>
                    <path id="Mouth-backgorund1" serif:id="Mouth backgorund" d="M88.437,180.74C89.07,179.557 89.412,178.294 89.412,176.982C89.412,170.317 80.575,164.907 69.691,164.907C65.623,164.907 61.841,165.662 58.7,166.957C61.334,174.958 68.872,180.74 77.751,180.74L88.437,180.74Z" style="fill:rgb(216,72,72);"/>
                </g>
                <g id="Eyes">
                    <path id="Right-eye" serif:id="Right eye" d="M71.159,122.536C71.57,113.695 65.951,104.647 56.298,104.459C47.232,104.284 38.578,111.372 38.541,123.289" style="fill:none;stroke:black;stroke-width:12px;"/>
                    <path id="Left-eye" serif:id="Left eye" d="M96.958,122.565C96.547,113.724 102.166,104.676 111.819,104.489C120.885,104.313 129.539,111.402 129.576,123.319" style="fill:none;stroke:black;stroke-width:12px;"/>
                </g>
            </g>
        </g>
        <path id="Right-hand" serif:id="Right hand" d="M147.806,221.639L202.439,168.12C210.629,159.931 208.408,149.064 200.219,140.875C192.172,132.828 179.106,132.828 171.059,140.875L118.387,192.221" style="fill:rgb(209,160,132);stroke:black;stroke-width:10px;stroke-linecap:butt;"/>
        <g id="Megaphone">
            <path id="Outline" d="M156.062,180.4C154.973,181.605 153.713,182.599 152.317,183.379C148.872,185.301 144.736,185.841 140.254,184.538C134.623,182.902 127.615,177.419 122.895,168.962C118.174,160.506 117.186,151.663 118.749,146.01C119.993,141.512 122.623,138.275 126.068,136.352C127.634,135.478 129.342,134.89 131.159,134.631C131.159,134.631 181.846,82.789 181.846,82.79C183.586,78.446 186.398,75.307 189.898,73.353C194.741,70.65 200.942,70.251 207.84,73.152C217.472,77.202 229.822,89.135 239.13,105.811C248.438,122.487 252.112,139.263 250.504,149.587C249.353,156.981 245.758,162.05 240.915,164.753C237.681,166.558 233.918,167.325 229.75,166.814L156.062,180.4ZM149.905,171.367L229.67,156.66C232.074,157.206 234.239,157.027 236.041,156.021C244.315,151.403 241.787,131.088 230.398,110.685C219.01,90.282 203.046,77.467 194.772,82.085C192.726,83.227 191.341,85.329 190.586,88.154L135.236,144.766C133.645,144.324 132.168,144.4 130.942,145.084C126.766,147.415 127.073,155.931 131.626,164.089C136.18,172.247 143.267,176.978 147.443,174.647C148.615,173.993 149.434,172.851 149.905,171.367Z"/>
            <path id="Mouthpiece" d="M130.942,145.084C135.118,142.753 142.205,147.484 146.758,155.642C151.312,163.8 151.619,172.316 147.443,174.647C143.267,176.978 136.18,172.247 131.626,164.089C127.073,155.931 126.766,147.415 130.942,145.084Z" style="fill:rgb(227,227,227);"/>
            <path id="Body" d="M135.057,144.949L195.263,83.37L235.771,155.535L148.985,171.537C139.167,169.701 131.589,152.135 135.057,144.949Z" style="fill:rgb(255,92,92);"/>
            <path id="Outer-ring" serif:id="Outer ring" d="M194.772,82.085C203.046,77.467 219.01,90.282 230.398,110.685C241.787,131.088 244.315,151.403 236.041,156.021C227.767,160.64 211.803,147.824 200.414,127.421C189.026,107.018 186.498,86.704 194.772,82.085Z" style="fill:rgb(227,227,227);"/>
            <path id="Inside" d="M200.52,87.649C206.014,84.583 218.079,95.718 227.446,112.5C236.814,129.282 239.959,145.397 234.465,148.463C228.972,151.529 216.907,140.394 207.539,123.612C198.172,106.83 195.027,90.715 200.52,87.649Z" style="fill:rgb(42,42,42);"/>
        </g>
    </g>
</svg>
