<?xml version="1.0" encoding="UTF-8" standalone="no"?>
<!DOCTYPE svg PUBLIC "-//W3C//DTD SVG 1.1//EN" "http://www.w3.org/Graphics/SVG/1.1/DTD/svg11.dtd">
<svg width="100%" height="100%" viewBox="0 0 256 256" version="1.1" xmlns="http://www.w3.org/2000/svg" xmlns:xlink="http://www.w3.org/1999/xlink" xml:space="preserve" xmlns:serif="http://www.serif.com/" style="fill-rule:evenodd;clip-rule:evenodd;stroke-linecap:round;stroke-linejoin:round;stroke-miterlimit:1.5;">
    <rect id="neobread_cowboy" x="0" y="0" width="256" height="256" style="fill:none;"/>
    <path id="Crust" d="M184.575,63.21C210.979,63.21 232.415,84.646 232.415,111.05C232.415,122.274 228.541,132.6 222.059,140.764L222.059,214.911C222.059,228.731 210.839,239.951 197.019,239.951L58.757,239.951C44.937,239.951 33.717,228.731 33.717,214.911L33.717,140.479C27.37,132.361 23.585,122.144 23.585,111.05C23.585,84.646 45.021,63.21 71.425,63.21L184.575,63.21Z" style="fill:rgb(209,160,132);stroke:black;stroke-width:15px;"/>
    <rect id="Shadow" x="123.047" y="138.435" width="92.343" height="13.326" style="fill:rgb(186,133,109);"/>
    <path id="Slice" d="M52.848,138.201C45.184,132.094 40.268,122.682 40.268,112.131C40.268,93.742 55.197,78.813 73.586,78.813L134.652,78.813C153.04,78.813 167.97,93.742 167.97,112.131C167.97,122.328 163.379,131.461 156.153,137.574L156.153,211.65C156.153,218.844 150.312,224.684 143.118,224.684L65.882,224.684C58.688,224.684 52.848,218.844 52.848,211.65L52.848,138.201Z" style="fill:rgb(252,233,186);"/>
    <g id="Face">
        <path id="Mouth" d="M73.461,175.807L82.879,191.64L95.569,175.835L111.289,191.596L130.015,175.853" style="fill:none;stroke:black;stroke-width:8.74px;"/>
        <g id="Eyes">
            <path id="Right-eye" serif:id="Right eye" d="M141.218,137.316L141.218,144.26C141.218,151.555 135.295,157.478 128,157.478C120.705,157.478 114.782,151.555 114.782,144.26L114.782,137.316C114.782,130.02 120.705,124.098 128,124.098C135.295,124.098 141.218,130.02 141.218,137.316Z"/>
            <path id="Left-eye" serif:id="Left eye" d="M88.63,137.316L88.63,144.26C88.63,151.555 82.708,157.478 75.412,157.478C68.117,157.478 62.195,151.555 62.195,144.26L62.195,137.316C62.195,130.02 68.117,124.098 75.412,124.098C82.708,124.098 88.63,130.02 88.63,137.316Z"/>
        </g>
    </g>
    <g id="Hat">
        <path id="Outline" d="M65.414,54.356C66.06,50.384 67.314,44.675 69.65,39.734C73.565,31.451 75.628,23.127 83.806,23.048C89.586,22.991 90.656,23.924 94.218,27.351C97.779,30.778 97.963,34.553 101.959,34.356C105.956,34.16 108.072,31.642 109.034,29.366C109.996,27.091 113.181,25.463 116.891,25.363C120.6,25.263 123.559,28.233 126.071,30.814C128.205,33.005 132.229,44.657 133.648,56.111C148.561,54.168 162.151,50.84 173.394,46.801C175.713,45.891 178.349,46.403 180.159,48.115C181.969,49.826 182.627,52.429 181.849,54.795C173.388,79.941 140.144,98.259 100.647,97.514C61.259,96.771 28.431,77.31 20.328,51.951C19.58,49.558 20.295,46.948 22.158,45.27C24.021,43.592 26.691,43.154 28.993,44.148C39.376,48.276 51.787,51.869 65.414,54.356Z" style="fill:none;stroke:black;stroke-width:15px;"/>
        <path id="Brim" d="M28.993,44.148C26.691,43.154 24.021,43.592 22.158,45.27C20.295,46.948 19.58,49.558 20.328,51.951C28.431,77.31 61.259,96.771 100.647,97.514C140.144,98.259 173.388,79.941 181.849,54.795C182.627,52.429 181.969,49.826 180.159,48.115C178.349,46.403 175.713,45.891 173.394,46.801C154.342,53.646 128.547,58.449 101.007,57.929C73.54,57.411 47.905,51.666 28.993,44.148Z" style="fill:rgb(98,70,12);"/>
        <path id="Brim-highlight" serif:id="Brim highlight" d="M71.389,59.355C70.793,59.089 70.099,59.175 69.586,59.578C69.073,59.98 68.825,60.634 68.941,61.276C71.176,71.798 84.713,80.118 101.139,80.428C117.592,80.739 131.295,72.905 133.653,62.437C133.776,61.814 133.548,61.174 133.059,60.77C132.57,60.366 131.899,60.263 131.311,60.501C123.663,63.362 112.862,65.462 101.277,65.243C89.71,65.025 78.966,62.526 71.389,59.355Z" style="fill:rgb(126,95,27);"/>
        <path id="Top" d="M64.791,59.307C64.791,59.307 65.576,48.352 69.65,39.734C73.565,31.451 75.628,23.127 83.806,23.048C89.586,22.991 90.656,23.924 94.218,27.351C97.779,30.778 97.963,34.553 101.959,34.356C105.956,34.16 108.072,31.642 109.034,29.366C109.996,27.091 113.181,25.463 116.891,25.363C120.6,25.263 123.559,28.233 126.071,30.814C128.584,33.395 133.72,49.101 134.133,62.149C131.898,62.516 101.865,72.57 64.791,59.307Z" style="fill:rgb(98,70,12);"/>
        <path id="Top-highlight" serif:id="Top highlight" d="M71.279,56.041C71.279,56.041 71.89,48.059 74.974,41.775C77.938,35.733 79.507,29.667 85.669,29.595C90.025,29.544 90.807,32.47 93.485,34.96C96.163,37.451 99.276,40.237 102.287,40.087C105.299,39.937 109.014,37.931 109.743,36.271C110.472,34.611 112.897,31.172 115.692,31.092C118.488,31.013 120.712,33.172 122.601,35.048C124.49,36.923 128.333,48.356 128.622,57.86C126.937,58.131 99.193,65.638 71.279,56.041Z" style="fill:rgb(126,95,27);"/>
    </g>
</svg>
