<?xml version="1.0" encoding="UTF-8" standalone="no"?>
<!DOCTYPE svg PUBLIC "-//W3C//DTD SVG 1.1//EN" "http://www.w3.org/Graphics/SVG/1.1/DTD/svg11.dtd">
<svg width="100%" height="100%" viewBox="0 0 256 256" version="1.1" xmlns="http://www.w3.org/2000/svg" xmlns:xlink="http://www.w3.org/1999/xlink" xml:space="preserve" xmlns:serif="http://www.serif.com/" style="fill-rule:evenodd;clip-rule:evenodd;stroke-linecap:round;stroke-linejoin:round;stroke-miterlimit:1.5;">
    <rect id="neobread_meeple" x="0" y="0" width="256" height="256" style="fill:none;"/>
    <path id="Crust" d="M192.734,26.885C222.946,26.885 247.473,51.413 247.473,81.624C247.473,94.467 243.041,106.282 235.623,115.623L235.623,200.464C235.623,216.277 222.785,229.115 206.972,229.115L48.771,229.115C32.958,229.115 20.12,216.277 20.12,200.464L20.12,115.297C12.857,106.008 8.527,94.318 8.527,81.624C8.527,51.413 33.054,26.885 63.266,26.885L192.734,26.885Z" style="fill:rgb(209,160,132);stroke:black;stroke-width:15px;"/>
    <rect id="Shadow" x="122.332" y="112.959" width="105.66" height="15.248" style="fill:rgb(186,133,109);"/>
    <path id="Slice" d="M42.009,112.691C33.24,105.704 27.616,94.934 27.616,82.861C27.616,61.82 44.698,44.738 65.738,44.738L135.611,44.738C156.652,44.738 173.734,61.82 173.734,82.861C173.734,94.528 168.481,104.979 160.213,111.974L160.213,196.732C160.213,204.964 153.53,211.647 145.299,211.647L56.924,211.647C48.692,211.647 42.009,204.964 42.009,196.732L42.009,112.691Z" style="fill:rgb(252,233,186);"/>
    <g id="Eyes">
        <g id="Right-eye" serif:id="Right eye">
            <circle id="Eye-white" serif:id="Eye white" cx="130.968" cy="115.715" r="23.779" style="fill:white;"/>
            <circle id="Pupil" cx="127.906" cy="112.691" r="20.392"/>
            <path id="Eye-reflection-top" serif:id="Eye reflection top" d="M116.892,101.838C120.92,97.81 126.719,97.069 129.835,100.185C132.95,103.3 132.21,109.1 128.182,113.127C124.154,117.155 118.355,117.896 115.239,114.78C112.124,111.665 112.864,105.865 116.892,101.838Z" style="fill:white;"/>
            <path id="Eye-reflection-bottom" serif:id="Eye reflection bottom" d="M137.831,117.603C137.831,117.603 136.632,121.739 132.389,122.644" style="fill:none;stroke:rgb(151,151,151);stroke-width:8px;"/>
        </g>
        <g id="Left-eye" serif:id="Left eye">
            <circle id="Eye-white1" serif:id="Eye white" cx="70.382" cy="115.715" r="23.779" style="fill:white;"/>
            <circle id="Pupil1" serif:id="Pupil" cx="67.32" cy="112.691" r="20.392"/>
            <path id="Eye-reflection-top1" serif:id="Eye reflection top" d="M56.306,101.838C60.333,97.81 66.133,97.069 69.248,100.185C72.364,103.3 71.623,109.1 67.595,113.127C63.568,117.155 57.768,117.896 54.653,114.78C51.537,111.665 52.278,105.865 56.306,101.838Z" style="fill:white;"/>
            <path id="Eye-reflection-bottom1" serif:id="Eye reflection bottom" d="M77.244,117.603C77.244,117.603 76.045,121.739 71.803,122.644" style="fill:none;stroke:rgb(151,151,151);stroke-width:8px;"/>
        </g>
    </g>
    <g id="Meeple">
        <path id="Outline" d="M71.404,134.824C72.501,130.609 74.732,125.552 78.775,122.233C82.839,118.149 88.684,114.909 97.262,114.853C111.627,114.758 116.658,125.842 118.404,133.33C123.674,135.407 132.223,138.514 135.706,141.28C144.139,147.979 145.192,155.23 144.167,160.058C143.188,164.667 138.388,170.451 131.942,172.407C135.094,178.142 139.391,186.064 139.923,188.659C140.705,192.473 139.837,195.913 137.597,198.865C135.333,201.848 130.542,204.7 124.039,205.343C122.33,205.958 120.182,206.31 117.453,206.1C111.607,205.65 103.628,206.121 103.628,206.121C103.371,206.136 103.114,206.14 102.857,206.134C102.857,206.134 99.245,206.283 95.423,203.809C93.452,205.345 91.419,205.862 89.893,205.978C86.608,206.228 85.052,206.337 82.221,206.136C81.734,206.102 80.798,206.031 79.627,205.941C79.144,205.958 78.644,205.95 78.126,205.914C76.862,205.824 71.637,205.793 67.866,205.775C65.74,206.291 63.547,206.356 61.93,205.963C61.165,205.777 60.443,205.524 59.768,205.204L59.763,205.202C57.492,204.621 54.86,203.507 53.054,201.503C50.719,198.91 48.357,194.753 51.111,187.698C52.739,183.527 56.071,176.605 58.394,171.998C56.934,171.556 55.415,170.942 54.047,170.1C50.441,167.881 47.678,164.441 47.059,159.392C45.929,150.169 50.145,145.975 55.391,142.296C57.107,141.093 63.551,138.103 69.094,135.846C69.876,135.486 70.652,135.144 71.404,134.824ZM63.559,196.267C64.002,197.117 65.373,196.743 66.462,196.269C70.387,196.286 77.282,196.33 78.795,196.437C79.106,196.459 79.398,196.451 79.671,196.418C81.139,196.53 82.325,196.62 82.892,196.66C85.21,196.824 86.483,196.71 89.172,196.505C90.535,196.402 92.683,190.339 94.853,186.9C96.247,189.198 97.535,191.965 98.471,193.533C100.285,196.57 103.083,196.637 103.083,196.637C103.083,196.637 111.797,196.136 118.182,196.628C119.848,196.756 120.923,196.493 121.59,195.977C127.276,195.881 131.27,193.75 130.617,190.568C129.876,186.957 120.907,172.254 119.984,170.198C119.062,168.143 118.52,166.617 118.661,164.776C118.702,164.236 119.016,163.885 119.524,163.663C119.953,163.606 120.37,163.508 120.771,163.376C122.492,163.2 124.996,163.526 127.254,163.587C131.11,163.69 134.344,160.581 134.874,158.084C135.404,155.587 134.159,152.184 129.797,148.719C125.435,145.254 112.516,141.44 109.811,139.888C109.688,137.534 109.195,124.274 97.325,124.353C91.606,124.39 87.748,126.536 85.149,129.307C81.389,132.022 80.345,137.313 80.056,140.116C79.876,141.126 79.834,141.748 79.834,141.748C78.94,141.894 75.989,143.119 72.889,144.558C68.067,146.513 62.342,149.025 60.846,150.074C58.294,151.864 55.939,153.749 56.489,158.237C57.039,162.724 62.676,163.422 64.558,163.555C66.439,163.689 70.122,163.025 71.692,164.646C73.262,166.268 70.156,170.192 68.87,172.449C67.585,174.707 62.142,185.564 59.961,191.152C57.988,196.207 62.651,196.296 63.559,196.267Z"/>
        <path id="Shading" d="M79.834,141.748C79.834,141.748 80.998,124.461 97.325,124.353C109.195,124.274 109.688,137.534 109.811,139.888C112.516,141.44 125.435,145.254 129.797,148.719C134.159,152.184 135.404,155.587 134.874,158.084C134.344,160.581 131.11,163.69 127.254,163.587C123.399,163.484 118.826,162.606 118.661,164.776C118.52,166.617 119.062,168.143 119.984,170.198C120.907,172.254 129.876,186.957 130.617,190.568C131.358,194.179 126.116,196.436 119.209,195.902C112.302,195.368 110.377,195.85 110.377,195.85C110.377,195.85 105.469,196.024 102.158,195.926C98.321,195.814 100.252,184.492 97.37,184.582C94.487,184.673 91.069,196.361 89.172,196.505C86.483,196.71 85.21,196.824 82.892,196.66C80.575,196.496 67.93,195.507 67.93,195.507C67.93,195.507 61.581,199.464 63.941,193.392C66.301,187.32 72.189,175.525 73.58,173.072C74.971,170.619 78.331,166.356 76.633,164.594C74.935,162.832 70.95,163.554 68.914,163.409C66.878,163.264 60.779,162.506 60.184,157.63C59.59,152.755 62.137,150.707 64.899,148.762C67.66,146.817 78.013,142.046 79.834,141.748Z" style="fill:rgb(171,134,16);"/>
        <path id="Front" d="M79.945,141.962C79.945,141.962 79.845,127.565 90.817,127.607C101.789,127.649 102.245,139.739 102.358,141.907C104.858,143.335 116.8,146.846 120.831,150.035C124.863,153.224 126.014,156.356 125.524,158.654C125.034,160.953 122.045,163.814 118.481,163.719C114.918,163.624 111.745,163.244 110.438,164.767C109.131,166.289 110.909,167.912 111.762,169.804C112.614,171.696 120.904,185.23 121.589,188.553C122.274,191.877 124.566,197.119 118.182,196.628C111.797,196.136 103.083,196.637 103.083,196.637C103.083,196.637 100.285,196.57 98.471,193.533C96.658,190.495 93.523,182.961 90.859,183.044C88.194,183.127 84.446,192.706 83.282,194.018C82.117,195.33 80.936,196.588 78.795,196.437C76.653,196.286 63.709,196.26 63.709,196.26C63.709,196.26 57.779,196.741 59.961,191.152C62.142,185.564 67.585,174.707 68.87,172.449C70.156,170.192 73.262,166.268 71.692,164.646C70.122,163.025 66.439,163.689 64.558,163.555C62.676,163.422 57.039,162.724 56.489,158.237C55.939,153.749 58.294,151.864 60.846,150.074C63.399,148.284 78.262,142.236 79.945,141.962Z" style="fill:rgb(255,200,47);"/>
    </g>
    <path id="Right-hand" serif:id="Right hand" d="M147.779,225.367L128.142,205.73C119.953,197.541 119.953,184.243 128.142,176.054C136.189,168.007 149.255,168.007 157.302,176.054L177.198,195.949" style="fill:rgb(209,160,132);stroke:black;stroke-width:10px;stroke-linecap:butt;"/>
    <path id="Left-hand" serif:id="Left hand" d="M47.21,226.367L66.847,206.73C75.037,198.541 75.037,185.243 66.847,177.054C58.8,169.007 45.734,169.007 37.687,177.054L17.792,196.949" style="fill:rgb(209,160,132);stroke:black;stroke-width:10px;stroke-linecap:butt;"/>
</svg>
