<?xml version="1.0" encoding="UTF-8" standalone="no"?>
<!DOCTYPE svg PUBLIC "-//W3C//DTD SVG 1.1//EN" "http://www.w3.org/Graphics/SVG/1.1/DTD/svg11.dtd">
<svg width="100%" height="100%" viewBox="0 0 256 256" version="1.1" xmlns="http://www.w3.org/2000/svg" xmlns:xlink="http://www.w3.org/1999/xlink" xml:space="preserve" xmlns:serif="http://www.serif.com/" style="fill-rule:evenodd;clip-rule:evenodd;stroke-linecap:round;stroke-linejoin:round;stroke-miterlimit:1.5;">
    <rect id="neobread_heart" x="0" y="0" width="256" height="256" style="fill:none;"/>
    <path id="Crust" d="M192.734,26.885C222.946,26.885 247.473,51.413 247.473,81.624C247.473,94.467 243.041,106.282 235.623,115.623L235.623,200.464C235.623,216.277 222.785,229.115 206.972,229.115L48.771,229.115C32.958,229.115 20.12,216.277 20.12,200.464L20.12,115.297C12.857,106.008 8.527,94.318 8.527,81.624C8.527,51.413 33.054,26.885 63.266,26.885L192.734,26.885Z" style="fill:rgb(209,160,132);stroke:black;stroke-width:15px;"/>
    <rect id="Shadow" x="122.332" y="112.959" width="105.66" height="15.248" style="fill:rgb(186,133,109);"/>
    <path id="Slice" d="M42.009,112.691C33.24,105.704 27.616,94.934 27.616,82.861C27.616,61.82 44.698,44.738 65.738,44.738L135.611,44.738C156.652,44.738 173.734,61.82 173.734,82.861C173.734,94.528 168.481,104.979 160.213,111.974L160.213,196.732C160.213,204.964 153.53,211.647 145.299,211.647L56.924,211.647C48.692,211.647 42.009,204.964 42.009,196.732L42.009,112.691Z" style="fill:rgb(252,233,186);"/>
    <g id="Eyes">
        <g id="Right-eye" serif:id="Right eye">
            <circle id="Eye-white" serif:id="Eye white" cx="130.968" cy="115.715" r="23.779" style="fill:white;"/>
            <circle id="Pupil" cx="127.906" cy="112.691" r="20.392"/>
            <path id="Eye-reflection-top" serif:id="Eye reflection top" d="M116.892,101.838C120.92,97.81 126.719,97.069 129.835,100.185C132.95,103.3 132.21,109.1 128.182,113.127C124.154,117.155 118.355,117.896 115.239,114.78C112.124,111.665 112.864,105.865 116.892,101.838Z" style="fill:white;"/>
            <path id="Eye-reflection-bottom" serif:id="Eye reflection bottom" d="M137.831,117.603C137.831,117.603 136.632,121.739 132.389,122.644" style="fill:none;stroke:rgb(151,151,151);stroke-width:8px;"/>
        </g>
        <g id="Left-eye" serif:id="Left eye">
            <circle id="Eye-white1" serif:id="Eye white" cx="70.382" cy="115.715" r="23.779" style="fill:white;"/>
            <circle id="Pupil1" serif:id="Pupil" cx="67.32" cy="112.691" r="20.392"/>
            <path id="Eye-reflection-top1" serif:id="Eye reflection top" d="M56.306,101.838C60.333,97.81 66.133,97.069 69.248,100.185C72.364,103.3 71.623,109.1 67.595,113.127C63.568,117.155 57.768,117.896 54.653,114.78C51.537,111.665 52.278,105.865 56.306,101.838Z" style="fill:white;"/>
            <path id="Eye-reflection-bottom1" serif:id="Eye reflection bottom" d="M77.244,117.603C77.244,117.603 76.045,121.739 71.803,122.644" style="fill:none;stroke:rgb(151,151,151);stroke-width:8px;"/>
        </g>
    </g>
    <path id="Heart" d="M89.615,216.235L42.517,174.271C32.93,165.977 31.879,151.461 40.173,141.874C48.466,132.286 62.983,131.236 72.57,139.529L98.314,161.799L124.058,139.529C133.646,131.236 148.162,132.286 156.456,141.874C164.749,151.461 163.698,165.977 154.111,174.271L107.013,216.235C104.73,218.828 101.527,220.147 98.314,220.127C95.101,220.147 91.898,218.828 89.615,216.235Z" style="fill:rgb(239,124,148);"/>
    <path d="M79.094,226.951C79.093,226.949 79.091,226.948 79.088,226.945C78.449,226.376 32.611,185.535 32.654,185.572C16.852,171.855 15.133,147.892 28.828,132.06C42.538,116.212 66.535,114.475 82.383,128.185C82.383,128.185 98.314,141.965 98.314,141.965L114.245,128.185C130.093,114.475 154.091,116.212 167.8,132.06C181.483,147.878 179.78,171.812 164.018,185.534C164.018,185.534 117.534,226.951 117.538,226.947C112.356,232.374 105.349,235.148 98.313,235.127C91.277,235.146 84.274,232.374 79.094,226.951ZM89.615,216.235C91.898,218.828 95.101,220.147 98.314,220.127C101.527,220.147 104.73,218.828 107.013,216.235L154.111,174.271C163.698,165.977 164.749,151.461 156.456,141.874C148.162,132.286 133.646,131.236 124.058,139.529L98.314,161.799L72.57,139.529C62.983,131.236 48.466,132.286 40.173,141.874C31.879,151.461 32.93,165.977 42.517,174.271L89.615,216.235Z" style="fill:rgb(168,9,62);"/>
    <path id="Right-hand" serif:id="Right hand" d="M144.305,225.138L124.667,205.501C116.478,197.312 116.478,184.014 124.667,175.825C132.714,167.778 145.781,167.778 153.828,175.825L173.723,195.72" style="fill:rgb(209,160,132);stroke:black;stroke-width:10px;stroke-linecap:butt;"/>
    <path id="Left-hand" serif:id="Left hand" d="M53.534,225.138L73.171,205.501C81.361,197.312 81.361,184.014 73.171,175.825C65.124,167.778 52.058,167.778 44.011,175.825L24.116,195.72" style="fill:rgb(209,160,132);stroke:black;stroke-width:10px;stroke-linecap:butt;"/>
</svg>
