<?xml version="1.0" encoding="UTF-8" standalone="no"?>
<!DOCTYPE svg PUBLIC "-//W3C//DTD SVG 1.1//EN" "http://www.w3.org/Graphics/SVG/1.1/DTD/svg11.dtd">
<svg width="100%" height="100%" viewBox="0 0 256 256" version="1.1" xmlns="http://www.w3.org/2000/svg" xmlns:xlink="http://www.w3.org/1999/xlink" xml:space="preserve" xmlns:serif="http://www.serif.com/" style="fill-rule:evenodd;clip-rule:evenodd;stroke-linecap:round;stroke-linejoin:round;stroke-miterlimit:1.5;">
    <rect id="neobread_gamer" x="0" y="0" width="256" height="256" style="fill:none;"/>
    <path id="Crust" d="M192.734,26.885C222.946,26.885 247.473,51.413 247.473,81.624C247.473,94.467 243.041,106.282 235.623,115.623L235.623,200.464C235.623,216.277 222.785,229.115 206.972,229.115L48.771,229.115C32.958,229.115 20.12,216.277 20.12,200.464L20.12,115.297C12.857,106.008 8.527,94.318 8.527,81.624C8.527,51.413 33.054,26.885 63.266,26.885L192.734,26.885Z" style="fill:rgb(209,160,132);stroke:black;stroke-width:15px;"/>
    <rect id="Shadow" x="122.332" y="112.959" width="105.66" height="15.248" style="fill:rgb(186,133,109);"/>
    <path id="Slice" d="M42.009,112.691C33.24,105.704 27.616,94.934 27.616,82.861C27.616,61.82 44.698,44.738 65.738,44.738L135.611,44.738C156.652,44.738 173.734,61.82 173.734,82.861C173.734,94.528 168.481,104.979 160.213,111.974L160.213,196.732C160.213,204.964 153.53,211.647 145.299,211.647L56.924,211.647C48.692,211.647 42.009,204.964 42.009,196.732L42.009,112.691Z" style="fill:rgb(252,233,186);"/>
    <g id="Face">
        <path id="Mouth" d="M65.596,153.72L76.372,171.837L90.892,153.752L108.879,171.787L130.306,153.773" style="fill:none;stroke:black;stroke-width:10px;"/>
        <g id="Eyes">
            <path id="Right-eye" serif:id="Right eye" d="M143.057,109.742L143.057,117.688C143.057,126.036 136.28,132.813 127.933,132.813C119.586,132.813 112.809,126.036 112.809,117.688L112.809,109.742C112.809,101.395 119.586,94.618 127.933,94.618C136.28,94.618 143.057,101.395 143.057,109.742Z"/>
            <path id="Left-eye" serif:id="Left eye" d="M82.953,109.678L82.953,117.624C82.953,125.971 76.176,132.748 67.828,132.748C59.481,132.748 52.704,125.971 52.704,117.624L52.704,109.678C52.704,101.331 59.481,94.554 67.828,94.554C76.176,94.554 82.953,101.331 82.953,109.678Z"/>
        </g>
    </g>
    <path id="Controller" d="M130.637,150.123C130.637,150.123 144.315,143.564 148.785,150.883C148.785,150.883 152.316,155.728 154.281,170.933C156.245,186.137 159.494,202.403 159.435,211.053C159.376,219.704 159.373,223.957 157.411,227.708C155.449,231.459 150.518,232.813 143.815,232.321C133.102,231.535 121.427,214.143 121.427,214.143C121.427,214.143 119.75,211.724 114.454,211.316C109.515,210.936 99.913,210.101 98.637,209.99C97.36,209.887 87.754,209.111 82.821,208.663C77.53,208.183 75.474,210.289 75.474,210.289C75.474,210.289 57.088,228.588 48.814,227.893C42.22,227.338 39.042,221.695 37.733,217.669C36.423,213.643 37.129,209.45 38.512,200.91C39.894,192.371 45.808,176.874 50.278,162.209C54.748,147.544 59.037,143.355 59.037,143.355C64.664,136.883 77.803,145.655 77.803,145.655L130.637,150.123Z" style="fill:rgb(156,78,151);stroke:black;stroke-width:10px;"/>
    <path id="Right-hand" serif:id="Right hand" d="M153.779,231.186L134.142,211.549C125.953,203.359 125.953,190.062 134.142,181.872C142.189,173.825 155.255,173.825 163.302,181.872L183.198,201.768" style="fill:rgb(209,160,132);stroke:black;stroke-width:10px;stroke-linecap:butt;"/>
    <path id="Left-hand" serif:id="Left hand" d="M46.21,228.367L65.847,208.73C74.037,200.541 74.037,187.243 65.847,179.054C57.8,171.007 44.734,171.007 36.687,179.054L16.792,198.949" style="fill:rgb(209,160,132);stroke:black;stroke-width:10px;stroke-linecap:butt;"/>
    <g id="Headset">
        <path id="Outline" d="M171.061,63.395C146.872,47.259 85.666,16.718 11.759,56.685C14.274,48.576 34.092,32.894 34.092,32.894C34.092,32.894 146.065,-17.447 214.414,63.851C214.287,63.953 214.145,64.055 213.99,64.155C223.357,71.288 229.753,85.54 229.753,101.941C229.753,120.18 221.844,135.76 210.735,141.849C209.378,142.704 207.837,143.321 206.183,143.748C204.301,144.297 202.354,144.586 200.362,144.586C199.96,144.586 199.561,144.574 199.164,144.551C194.018,144.562 188.701,143.56 184.746,142.569C169.01,138.627 157.493,122.865 157.493,99.329C157.493,84.244 162.904,70.977 171.061,63.395Z" style="fill:none;stroke:black;stroke-width:10px;stroke-linecap:butt;"/>
        <path id="Shading" d="M186.885,56.685C196.484,56.685 212.403,58.58 217.768,68.92C221.47,76.054 216.277,89.72 216.277,99.329C216.277,110.038 218.986,130.567 214.486,138.06C209.096,147.034 193.549,144.775 184.746,142.569C169.01,138.627 157.493,122.865 157.493,99.329C157.493,75.793 170.663,56.685 186.885,56.685Z"/>
        <ellipse id="Cup" cx="200.362" cy="101.941" rx="29.392" ry="42.644" style="fill:rgb(43,43,43);"/>
        <path id="Headband" d="M181.245,70.897C181.245,70.897 113.888,6.345 17.894,53.379C20.409,45.27 40.209,29.043 40.209,29.043C40.209,29.043 146.065,-17.447 214.414,63.851C209.343,67.919 181.245,70.897 181.245,70.897Z" style="fill:rgb(43,43,43);"/>
    </g>
</svg>
