<?xml version="1.0" encoding="UTF-8" standalone="no"?>
<!DOCTYPE svg PUBLIC "-//W3C//DTD SVG 1.1//EN" "http://www.w3.org/Graphics/SVG/1.1/DTD/svg11.dtd">
<svg width="100%" height="100%" viewBox="0 0 256 256" version="1.1" xmlns="http://www.w3.org/2000/svg" xmlns:xlink="http://www.w3.org/1999/xlink" xml:space="preserve" xmlns:serif="http://www.serif.com/" style="fill-rule:evenodd;clip-rule:evenodd;stroke-linecap:round;stroke-linejoin:round;stroke-miterlimit:1.5;">
    <rect id="neobread_sob" x="0" y="0" width="256" height="256" style="fill:none;"/>
    <path id="Crust" d="M192.734,26.885C222.946,26.885 247.473,51.413 247.473,81.624C247.473,94.467 243.041,106.282 235.623,115.623L235.623,200.464C235.623,216.277 222.785,229.115 206.972,229.115L48.771,229.115C32.958,229.115 20.12,216.277 20.12,200.464L20.12,115.297C12.857,106.008 8.527,94.318 8.527,81.624C8.527,51.413 33.054,26.885 63.266,26.885L192.734,26.885Z" style="fill:rgb(209,160,132);stroke:black;stroke-width:15px;"/>
    <rect id="Shadow" x="122.332" y="112.959" width="105.66" height="15.248" style="fill:rgb(186,133,109);"/>
    <path id="Slice" d="M42.009,112.691C33.24,105.704 27.616,94.934 27.616,82.861C27.616,61.82 44.698,44.738 65.738,44.738L135.611,44.738C156.652,44.738 173.734,61.82 173.734,82.861C173.734,94.528 168.481,104.979 160.213,111.974L160.213,196.732C160.213,204.964 153.53,211.647 145.299,211.647L56.924,211.647C48.692,211.647 42.009,204.964 42.009,196.732L42.009,112.691Z" style="fill:rgb(252,233,186);"/>
    <g id="Face">
        <path id="Mouth" d="M77.16,170.87L93.075,156.02L112.81,171.263" style="fill:none;stroke:black;stroke-width:10px;"/>
        <g id="Tears">
            <path id="Right-tears" serif:id="Right tears" d="M144.691,118.824L108.383,118.824L108.383,207.696C108.383,217.716 116.518,225.85 126.537,225.85C136.557,225.85 144.691,217.716 144.691,207.696L144.691,118.824Z" style="fill:rgb(91,206,250);fill-opacity:0.9;"/>
            <path id="Left-tears" serif:id="Left tears" d="M83.534,118.824L47.226,118.824L47.226,207.696C47.226,217.716 55.36,225.85 65.38,225.85C75.399,225.85 83.534,217.716 83.534,207.696L83.534,118.824Z" style="fill:rgb(91,206,250);fill-opacity:0.9;"/>
        </g>
        <g id="Eyes">
            <path id="Right-eye" serif:id="Right eye" d="M139.922,119.624L112.417,116.237" style="fill:none;stroke:black;stroke-width:12px;"/>
            <path id="Left-eye" serif:id="Left eye" d="M51.483,119.624L78.987,116.237" style="fill:none;stroke:black;stroke-width:12px;"/>
        </g>
    </g>
</svg>
