<?xml version="1.0" encoding="UTF-8" standalone="no"?>
<!DOCTYPE svg PUBLIC "-//W3C//DTD SVG 1.1//EN" "http://www.w3.org/Graphics/SVG/1.1/DTD/svg11.dtd">
<svg width="100%" height="100%" viewBox="0 0 256 256" version="1.1" xmlns="http://www.w3.org/2000/svg" xmlns:xlink="http://www.w3.org/1999/xlink" xml:space="preserve" xmlns:serif="http://www.serif.com/" style="fill-rule:evenodd;clip-rule:evenodd;stroke-linecap:round;stroke-linejoin:round;stroke-miterlimit:1.5;">
    <rect id="neobread_verified" x="0" y="0" width="256" height="256" style="fill:none;"/>
    <path id="Crust" d="M192.734,26.885C222.946,26.885 247.473,51.413 247.473,81.624C247.473,94.467 243.041,106.282 235.623,115.623L235.623,200.464C235.623,216.277 222.785,229.115 206.972,229.115L48.771,229.115C32.958,229.115 20.12,216.277 20.12,200.464L20.12,115.297C12.857,106.008 8.527,94.318 8.527,81.624C8.527,51.413 33.054,26.885 63.266,26.885L192.734,26.885Z" style="fill:rgb(209,160,132);stroke:black;stroke-width:15px;"/>
    <rect id="Shadow" x="122.332" y="112.959" width="105.66" height="15.248" style="fill:rgb(186,133,109);"/>
    <path id="Slice" d="M42.009,112.691C33.24,105.704 27.616,94.934 27.616,82.861C27.616,61.82 44.698,44.738 65.738,44.738L135.611,44.738C156.652,44.738 173.734,61.82 173.734,82.861C173.734,94.528 168.481,104.979 160.213,111.974L160.213,196.732C160.213,204.964 153.53,211.647 145.299,211.647L56.924,211.647C48.692,211.647 42.009,204.964 42.009,196.732L42.009,112.691Z" style="fill:rgb(252,233,186);"/>
    <g id="Eyes">
        <g id="Right-eye" serif:id="Right eye">
            <circle id="Eye-white" serif:id="Eye white" cx="130.968" cy="115.715" r="23.779" style="fill:white;"/>
            <circle id="Pupil" cx="127.906" cy="112.691" r="20.392"/>
            <path id="Eye-reflection-top" serif:id="Eye reflection top" d="M116.892,101.838C120.92,97.81 126.719,97.069 129.835,100.185C132.95,103.3 132.21,109.1 128.182,113.127C124.154,117.155 118.355,117.896 115.239,114.78C112.124,111.665 112.864,105.865 116.892,101.838Z" style="fill:white;"/>
            <path id="Eye-reflection-bottom" serif:id="Eye reflection bottom" d="M137.831,117.603C137.831,117.603 136.632,121.739 132.389,122.644" style="fill:none;stroke:rgb(151,151,151);stroke-width:8px;"/>
        </g>
        <g id="Left-eye" serif:id="Left eye">
            <circle id="Eye-white1" serif:id="Eye white" cx="70.382" cy="115.715" r="23.779" style="fill:white;"/>
            <circle id="Pupil1" serif:id="Pupil" cx="67.32" cy="112.691" r="20.392"/>
            <path id="Eye-reflection-top1" serif:id="Eye reflection top" d="M56.306,101.838C60.333,97.81 66.133,97.069 69.248,100.185C72.364,103.3 71.623,109.1 67.595,113.127C63.568,117.155 57.768,117.896 54.653,114.78C51.537,111.665 52.278,105.865 56.306,101.838Z" style="fill:white;"/>
            <path id="Eye-reflection-bottom1" serif:id="Eye reflection bottom" d="M77.244,117.603C77.244,117.603 76.045,121.739 71.803,122.644" style="fill:none;stroke:rgb(151,151,151);stroke-width:8px;"/>
        </g>
    </g>
    <g id="Verified-bubble" serif:id="Verified bubble">
        <path id="Bubble" d="M84.317,133.226C85.675,126.169 92.403,120.607 100.367,120.607C108.331,120.607 115.058,126.169 116.416,133.226C122.366,129.196 131.056,130.021 136.688,135.652C142.319,141.283 143.143,149.973 139.114,155.923C146.17,157.281 151.732,164.009 151.732,171.973C151.732,179.937 146.17,186.664 139.114,188.022C143.143,193.972 142.319,202.662 136.688,208.294C131.056,213.925 122.366,214.749 116.416,210.72C115.058,217.776 108.331,223.338 100.367,223.338C92.403,223.338 85.675,217.776 84.317,210.72C78.367,214.749 69.677,213.925 64.046,208.294C58.415,202.662 57.59,193.972 61.62,188.022C54.563,186.664 49.001,179.937 49.001,171.973C49.001,164.009 54.563,157.281 61.62,155.923C57.59,149.973 58.415,141.283 64.046,135.652C69.677,130.021 78.367,129.196 84.317,133.226Z" style="fill:rgb(82,127,227);"/>
        <path d="M79.238,120.963C84.025,114.77 91.702,110.607 100.367,110.607C109.031,110.607 116.709,114.77 121.495,120.963C129.26,119.968 137.632,122.454 143.759,128.581C149.885,134.708 152.371,143.08 151.376,150.844C157.57,155.63 161.732,163.308 161.732,171.973C161.732,180.637 157.57,188.315 151.376,193.101C152.371,200.866 149.885,209.238 143.759,215.365C137.632,221.491 129.26,223.977 121.496,222.982C116.709,229.176 109.031,233.338 100.367,233.338C91.702,233.338 84.024,229.176 79.238,222.982C71.474,223.977 63.102,221.491 56.975,215.365C50.848,209.238 48.362,200.866 49.357,193.102C43.164,188.315 39.001,180.637 39.001,171.973C39.001,163.308 43.164,155.63 49.357,150.844C48.362,143.08 50.848,134.708 56.975,128.581C63.102,122.454 71.474,119.968 79.238,120.963ZM84.317,133.226C78.367,129.196 69.677,130.021 64.046,135.652C58.415,141.283 57.59,149.973 61.62,155.923C54.563,157.281 49.001,164.009 49.001,171.973C49.001,179.937 54.563,186.664 61.62,188.022C57.59,193.972 58.415,202.662 64.046,208.294C69.677,213.925 78.367,214.749 84.317,210.72C85.675,217.776 92.403,223.338 100.367,223.338C108.331,223.338 115.058,217.776 116.416,210.72C122.366,214.749 131.056,213.925 136.688,208.294C142.319,202.662 143.143,193.972 139.114,188.022C146.17,186.664 151.732,179.937 151.732,171.973C151.732,164.009 146.17,157.281 139.114,155.923C143.143,149.973 142.319,141.283 136.688,135.652C131.056,130.021 122.366,129.196 116.416,133.226C115.058,126.169 108.331,120.607 100.367,120.607C92.403,120.607 85.675,126.169 84.317,133.226Z"/>
        <path id="Tick-shadow" serif:id="Tick shadow" d="M75.265,182.564C72.544,179.821 72.563,175.385 75.306,172.664C78.05,169.944 82.485,169.963 85.206,172.706L96.546,184.142L115.518,164.933C118.233,162.184 127.396,154.964 127.497,158.826C127.553,160.977 127.542,171.196 125.479,174.77L101.537,199.013C100.224,200.343 98.433,201.092 96.564,201.094C94.694,201.096 92.902,200.35 91.586,199.023L75.265,182.564Z" style="fill:rgb(56,89,202);"/>
        <path id="Tick" d="M75.265,172.564C72.544,169.821 72.563,165.385 75.306,162.664C78.05,159.944 82.485,159.963 85.206,162.706L96.546,174.142L115.518,154.933C118.233,152.184 122.668,152.156 125.417,154.871C128.166,157.586 128.194,162.022 125.479,164.77L101.537,189.013C100.224,190.343 98.433,191.092 96.564,191.094C94.694,191.096 92.902,190.35 91.586,189.023L75.265,172.564Z" style="fill:white;"/>
    </g>
    <path id="Right-hand" serif:id="Right hand" d="M144.305,225.138L124.667,205.501C116.478,197.312 116.478,184.014 124.667,175.825C132.714,167.778 145.781,167.778 153.828,175.825L173.723,195.72" style="fill:rgb(209,160,132);stroke:black;stroke-width:10px;stroke-linecap:butt;"/>
    <path id="Left-hand" serif:id="Left hand" d="M53.534,225.138L73.171,205.501C81.361,197.312 81.361,184.014 73.171,175.825C65.124,167.778 52.058,167.778 44.011,175.825L24.116,195.72" style="fill:rgb(209,160,132);stroke:black;stroke-width:10px;stroke-linecap:butt;"/>
</svg>
