<?xml version="1.0" encoding="UTF-8" standalone="no"?>
<!DOCTYPE svg PUBLIC "-//W3C//DTD SVG 1.1//EN" "http://www.w3.org/Graphics/SVG/1.1/DTD/svg11.dtd">
<svg width="100%" height="100%" viewBox="0 0 256 256" version="1.1" xmlns="http://www.w3.org/2000/svg" xmlns:xlink="http://www.w3.org/1999/xlink" xml:space="preserve" xmlns:serif="http://www.serif.com/" style="fill-rule:evenodd;clip-rule:evenodd;stroke-linecap:round;stroke-linejoin:round;stroke-miterlimit:1.5;">
    <rect id="neobread_popcorn" x="0" y="0" width="256" height="256" style="fill:none;"/>
    <clipPath id="_clip1">
        <rect x="0" y="0" width="256" height="256"/>
    </clipPath>
    <g clip-path="url(#_clip1)">
        <path id="Crust" d="M192.734,26.885C222.946,26.885 247.473,51.413 247.473,81.624C247.473,94.467 243.041,106.282 235.623,115.623L235.623,200.464C235.623,216.277 222.785,229.115 206.972,229.115L48.771,229.115C32.958,229.115 20.12,216.277 20.12,200.464L20.12,115.297C12.857,106.008 8.527,94.318 8.527,81.624C8.527,51.413 33.054,26.885 63.266,26.885L192.734,26.885Z" style="fill:rgb(209,160,132);stroke:black;stroke-width:15px;"/>
        <rect id="Shadow" x="122.332" y="112.959" width="105.66" height="15.248" style="fill:rgb(186,133,109);"/>
        <path id="Slice" d="M42.009,112.691C33.24,105.704 27.616,94.934 27.616,82.861C27.616,61.82 44.698,44.738 65.738,44.738L135.611,44.738C156.652,44.738 173.734,61.82 173.734,82.861C173.734,94.528 168.481,104.979 160.213,111.974L160.213,196.732C160.213,204.964 153.53,211.647 145.299,211.647L56.924,211.647C48.692,211.647 42.009,204.964 42.009,196.732L42.009,112.691Z" style="fill:rgb(252,233,186);"/>
        <g id="Face">
            <path id="Mouth" d="M65.596,155.72L76.372,173.837L90.892,155.752L108.879,173.787L130.306,155.773" style="fill:none;stroke:black;stroke-width:10px;"/>
            <g id="Eyes">
                <path id="Right-eye" serif:id="Right eye" d="M143.057,111.742L143.057,119.688C143.057,128.036 136.28,134.813 127.933,134.813C119.586,134.813 112.809,128.036 112.809,119.688L112.809,111.742C112.809,103.395 119.586,96.618 127.933,96.618C136.28,96.618 143.057,103.395 143.057,111.742Z"/>
                <path id="Left-eye" serif:id="Left eye" d="M82.953,111.678L82.953,119.624C82.953,127.971 76.176,134.748 67.828,134.748C59.481,134.748 52.704,127.971 52.704,119.624L52.704,111.678C52.704,103.331 59.481,96.554 67.828,96.554C76.176,96.554 82.953,103.331 82.953,111.678Z"/>
            </g>
        </g>
        <g id="Popcorn">
            <path id="Outline" d="M56.221,188.147C54.62,185.171 54.381,179.644 54.381,176.748C54.381,172.611 57.739,169.252 61.876,169.252C63.059,169.252 64.178,169.526 65.173,170.015C64.974,169.243 64.868,168.435 64.868,167.601C64.868,162.279 69.188,157.958 74.511,157.958C75.622,157.958 76.691,158.147 77.685,158.494C78.088,155.764 79.382,153.322 81.261,151.474C80.655,150.617 79.772,149.262 79.303,146.269C78.415,140.607 83.977,135.393 89.686,135.886C93.01,136.173 93.184,136.504 96.518,138.268C97.671,137.703 98.966,137.386 100.334,137.386C104.126,137.386 107.354,139.82 108.54,143.209C110.125,142.263 111.977,141.719 113.955,141.719C119.796,141.719 124.537,146.46 124.537,152.301C124.537,154.613 123.794,156.753 122.534,158.495C122.66,158.489 122.787,158.487 122.915,158.487C127.881,158.487 131.912,162.518 131.912,167.484C131.912,167.999 131.869,168.503 131.786,168.994C132.348,168.887 132.928,168.831 133.521,168.831C138.631,168.831 142.78,172.98 142.78,178.09C142.78,178.593 142.547,179.695 142.166,181.138L132.734,235.067C132.734,242.512 117.43,248.556 98.58,248.556C79.73,248.556 64.426,242.512 64.426,235.067L56.221,188.147Z" style="fill:none;stroke:black;stroke-width:15px;"/>
            <path id="Kernels" d="M135.946,198.261C135.946,198.261 86.482,213.359 69.126,199.342L61.354,187.718C57.325,187.595 54.381,180.807 54.381,176.748C54.381,172.611 57.739,169.252 61.876,169.252C63.059,169.252 64.178,169.526 65.173,170.015C64.974,169.243 64.868,168.435 64.868,167.601C64.868,162.279 69.188,157.958 74.511,157.958C75.622,157.958 76.691,158.147 77.685,158.494C78.088,155.764 79.382,153.322 81.261,151.474C80.655,150.617 79.772,149.262 79.303,146.269C78.415,140.607 83.977,135.393 89.686,135.886C93.01,136.173 93.184,136.504 96.518,138.268C97.671,137.703 98.966,137.386 100.334,137.386C104.126,137.386 107.354,139.82 108.54,143.209C110.125,142.263 111.977,141.719 113.955,141.719C119.796,141.719 124.537,146.46 124.537,152.301C124.537,154.613 123.794,156.753 122.534,158.495C122.66,158.489 122.787,158.487 122.915,158.487C127.881,158.487 131.912,162.518 131.912,167.484C131.912,167.999 131.869,168.503 131.786,168.994C132.348,168.887 132.928,168.831 133.521,168.831C138.631,168.831 142.78,172.98 142.78,178.09C142.78,180.497 137.453,196.614 135.946,198.261Z" style="fill:rgb(248,226,108);"/>
            <path id="Bucket" d="M142.526,179.079L132.734,235.067C132.734,242.512 117.43,248.556 98.58,248.556C79.73,248.556 64.426,242.512 64.426,235.067L54.635,179.079C57.014,185.841 75.795,191.113 98.58,191.113C121.365,191.113 140.147,185.841 142.526,179.079Z" style="fill:white;"/>
            <g id="Stripes">
                <path d="M66.751,239.965L66.751,186.98C70.303,188.105 74.488,189.043 79.131,189.739L79.131,246.154C73.589,244.634 69.239,242.483 66.751,239.965Z" style="fill:rgb(216,72,72);"/>
                <path d="M91.481,248.263L91.481,190.94C93.792,191.054 96.164,191.113 98.58,191.113C100.367,191.113 102.129,191.081 103.861,191.018L103.861,248.395C102.14,248.501 100.376,248.556 98.58,248.556C96.146,248.556 93.771,248.455 91.481,248.263Z" style="fill:rgb(216,72,72);"/>
                <path d="M116.242,246.612L116.242,189.992C120.825,189.381 125.004,188.539 128.622,187.515L128.622,241.485C125.72,243.598 121.432,245.37 116.242,246.612Z" style="fill:rgb(216,72,72);"/>
            </g>
            <g id="Shadows">
                <path d="M100.54,150.478C100.54,150.478 97.635,156.915 89.686,153.434" style="fill:none;stroke:black;stroke-width:3px;"/>
                <path d="M116.289,165.885C116.289,165.885 110.115,169.312 105.819,161.773" style="fill:none;stroke:black;stroke-width:3px;"/>
                <path d="M83.214,168.969C83.214,168.969 82.074,175.938 73.496,174.634" style="fill:none;stroke:black;stroke-width:3px;"/>
                <path d="M104.019,179.78C104.019,179.78 98.285,183.902 93.142,176.913" style="fill:none;stroke:black;stroke-width:3px;"/>
                <path d="M127.207,176.256C127.207,176.256 124.302,182.693 116.353,179.213" style="fill:none;stroke:black;stroke-width:3px;"/>
            </g>
        </g>
        <path id="Right-hand" serif:id="Right hand" d="M183.018,205.982L158.968,219.868C148.938,225.659 136.093,222.217 130.303,212.187C124.613,202.332 127.994,189.711 137.85,184.021L162.217,169.953" style="fill:rgb(209,160,132);stroke:black;stroke-width:10px;stroke-linecap:butt;"/>
        <path id="Right-hand1" serif:id="Right hand" d="M18.166,209.693L42.217,223.579C52.247,229.369 65.091,225.928 70.882,215.898C76.572,206.042 73.19,193.421 63.335,187.731L38.968,173.663" style="fill:rgb(209,160,132);stroke:black;stroke-width:10px;stroke-linecap:butt;"/>
    </g>
</svg>
