<?xml version="1.0" encoding="UTF-8" standalone="no"?>
<!DOCTYPE svg PUBLIC "-//W3C//DTD SVG 1.1//EN" "http://www.w3.org/Graphics/SVG/1.1/DTD/svg11.dtd">
<svg width="100%" height="100%" viewBox="0 0 256 256" version="1.1" xmlns="http://www.w3.org/2000/svg" xmlns:xlink="http://www.w3.org/1999/xlink" xml:space="preserve" xmlns:serif="http://www.serif.com/" style="fill-rule:evenodd;clip-rule:evenodd;stroke-linecap:round;stroke-linejoin:round;stroke-miterlimit:1.5;">
    <rect id="neobread_halo" x="0" y="0" width="256" height="256" style="fill:none;"/>
    <path id="Crust" d="M192.734,26.885C222.946,26.885 247.473,51.413 247.473,81.624C247.473,94.467 243.041,106.282 235.623,115.623L235.623,200.464C235.623,216.277 222.785,229.115 206.972,229.115L48.771,229.115C32.958,229.115 20.12,216.277 20.12,200.464L20.12,115.297C12.857,106.008 8.527,94.318 8.527,81.624C8.527,51.413 33.054,26.885 63.266,26.885L192.734,26.885Z" style="fill:rgb(209,160,132);stroke:black;stroke-width:15px;"/>
    <rect id="Shadow" x="122.332" y="112.959" width="105.66" height="15.248" style="fill:rgb(186,133,109);"/>
    <path id="Slice" d="M42.009,112.691C33.24,105.704 27.616,94.934 27.616,82.861C27.616,61.82 44.698,44.738 65.738,44.738L135.611,44.738C156.652,44.738 173.734,61.82 173.734,82.861C173.734,94.528 168.481,104.979 160.213,111.974L160.213,196.732C160.213,204.964 153.53,211.647 145.299,211.647L56.924,211.647C48.692,211.647 42.009,204.964 42.009,196.732L42.009,112.691Z" style="fill:rgb(252,233,186);"/>
    <path id="Halo" d="M98.671,12.799C143.226,12.799 179.399,26.272 179.399,42.867C179.399,59.462 143.226,72.935 98.671,72.935C54.116,72.935 17.944,59.462 17.944,42.867C17.944,26.272 54.116,12.799 98.671,12.799ZM98.671,23.994C64.284,23.994 36.367,32.451 36.367,42.867C36.367,53.283 64.284,61.74 98.671,61.74C133.058,61.74 160.976,53.283 160.976,42.867C160.976,32.451 133.058,23.994 98.671,23.994Z" style="fill:rgb(91,206,250);"/>
    <path d="M98.671,2.799C132.449,2.799 161.658,10.477 176.216,20.931C185.153,27.35 189.399,35.143 189.399,42.867C189.399,50.591 185.153,58.384 176.216,64.803C161.658,75.257 132.449,82.935 98.671,82.935C64.893,82.935 35.685,75.257 21.127,64.803C12.189,58.384 7.944,50.591 7.944,42.867C7.944,35.143 12.189,27.35 21.127,20.931C35.685,10.477 64.893,2.799 98.671,2.799ZM98.671,12.799C54.116,12.799 17.944,26.272 17.944,42.867C17.944,59.462 54.116,72.935 98.671,72.935C143.226,72.935 179.399,59.462 179.399,42.867C179.399,26.272 143.226,12.799 98.671,12.799ZM98.671,23.994C133.058,23.994 160.976,32.451 160.976,42.867C160.976,53.283 133.058,61.74 98.671,61.74C64.284,61.74 36.367,53.283 36.367,42.867C36.367,32.451 64.284,23.994 98.671,23.994ZM48.605,42.867C49.7,43.541 50.994,44.264 52.213,44.768C62.687,49.095 79.616,51.74 98.671,51.74C117.726,51.74 134.655,49.095 145.13,44.768C146.348,44.264 147.642,43.541 148.737,42.867C147.642,42.194 146.348,41.47 145.13,40.966C134.655,36.639 117.726,33.994 98.671,33.994C79.616,33.994 62.687,36.639 52.213,40.966C50.994,41.47 49.7,42.194 48.605,42.867Z"/>
    <g id="Face">
        <path id="Mouth" d="M67.59,155.72L78.365,173.837L92.886,155.752L110.873,173.787L132.3,155.773" style="fill:none;stroke:black;stroke-width:10px;"/>
        <g id="Eyes">
            <path id="Right-eye" serif:id="Right eye" d="M110.439,111.888C110.028,120.729 115.647,129.777 125.301,129.964C134.367,130.14 143.021,123.051 143.057,111.134" style="fill:none;stroke:black;stroke-width:12px;"/>
            <path id="Left-eye" serif:id="Left eye" d="M84.641,111.859C85.052,120.699 79.433,129.748 69.779,129.935C60.714,130.11 52.059,123.022 52.023,111.105" style="fill:none;stroke:black;stroke-width:12px;"/>
        </g>
    </g>
</svg>
